<mxfile host="app.diagrams.net" agent="Mozilla/5.0 (Windows NT 10.0; Win64; x64) AppleWebKit/537.36 (KHTML, like Gecko) Chrome/133.0.0.0 Safari/537.36 Edg/133.0.0.0" border="50" scale="3" compressed="false" locked="false" version="26.0.16">
  <diagram name="Blank" id="YmL12bMKpDGza6XwsDPr">
    <mxGraphModel dx="1722" dy="731" grid="0" gridSize="10" guides="1" tooltips="1" connect="1" arrows="1" fold="1" page="0" pageScale="1" pageWidth="827" pageHeight="1169" background="none" math="1" shadow="0">
      <root>
        <mxCell id="X5NqExCQtvZxIxQ7pmgY-0" />
        <mxCell id="1" parent="X5NqExCQtvZxIxQ7pmgY-0" />
        <mxCell id="r_Jpmp6yM1Su2GTmglGd-17" value="Master Node" style="swimlane;fillColor=#fa6800;strokeColor=#C73500;fontColor=#000000;" vertex="1" parent="1">
          <mxGeometry x="-444" y="228" width="216" height="383" as="geometry" />
        </mxCell>
        <UserObject label="K3s基本&lt;div&gt;组件&lt;/div&gt;" treeRoot="1" id="r_Jpmp6yM1Su2GTmglGd-24">
          <mxCell style="whiteSpace=wrap;html=1;align=center;treeFolding=1;treeMoving=1;newEdgeStyle={&quot;edgeStyle&quot;:&quot;elbowEdgeStyle&quot;,&quot;startArrow&quot;:&quot;none&quot;,&quot;endArrow&quot;:&quot;none&quot;};fillColor=#d5e8d4;strokeColor=#82b366;" vertex="1" parent="r_Jpmp6yM1Su2GTmglGd-17">
            <mxGeometry x="53.5" y="38" width="109" height="33" as="geometry" />
          </mxCell>
        </UserObject>
        <UserObject label="Kafka server" treeRoot="1" id="r_Jpmp6yM1Su2GTmglGd-25">
          <mxCell style="whiteSpace=wrap;html=1;align=center;treeFolding=1;treeMoving=1;newEdgeStyle={&quot;edgeStyle&quot;:&quot;elbowEdgeStyle&quot;,&quot;startArrow&quot;:&quot;none&quot;,&quot;endArrow&quot;:&quot;none&quot;};fillColor=#cce5ff;strokeColor=#36393d;" vertex="1" parent="r_Jpmp6yM1Su2GTmglGd-17">
            <mxGeometry x="53.5" y="90" width="109" height="33" as="geometry" />
          </mxCell>
        </UserObject>
        <mxCell id="r_Jpmp6yM1Su2GTmglGd-51" value="" style="swimlane;startSize=0;fillColor=#ffff88;strokeColor=#36393d;" vertex="1" parent="r_Jpmp6yM1Su2GTmglGd-17">
          <mxGeometry x="30" y="151" width="165" height="200" as="geometry" />
        </mxCell>
        <mxCell id="r_Jpmp6yM1Su2GTmglGd-52" value="&lt;b&gt;Knative&lt;/b&gt;" style="text;html=1;align=center;verticalAlign=middle;resizable=0;points=[];autosize=1;strokeColor=none;fillColor=none;" vertex="1" parent="r_Jpmp6yM1Su2GTmglGd-51">
          <mxGeometry x="60" y="10" width="60" height="30" as="geometry" />
        </mxCell>
        <mxCell id="r_Jpmp6yM1Su2GTmglGd-60" style="edgeStyle=orthogonalEdgeStyle;rounded=0;orthogonalLoop=1;jettySize=auto;html=1;exitX=0.5;exitY=0;exitDx=0;exitDy=0;entryX=0.5;entryY=1;entryDx=0;entryDy=0;" edge="1" parent="r_Jpmp6yM1Su2GTmglGd-51" source="r_Jpmp6yM1Su2GTmglGd-53" target="r_Jpmp6yM1Su2GTmglGd-54">
          <mxGeometry relative="1" as="geometry" />
        </mxCell>
        <mxCell id="r_Jpmp6yM1Su2GTmglGd-53" value="行人图像特征提取" style="rounded=1;arcSize=10;whiteSpace=wrap;html=1;align=center;fillColor=#6a00ff;fontColor=#ffffff;strokeColor=#3700CC;" vertex="1" parent="r_Jpmp6yM1Su2GTmglGd-51">
          <mxGeometry x="28" y="118" width="100" height="40" as="geometry" />
        </mxCell>
        <mxCell id="r_Jpmp6yM1Su2GTmglGd-54" value="多模态行人检索" style="rounded=1;arcSize=10;whiteSpace=wrap;html=1;align=center;fillColor=#6a00ff;fontColor=#ffffff;strokeColor=#3700CC;" vertex="1" parent="r_Jpmp6yM1Su2GTmglGd-51">
          <mxGeometry x="28" y="59" width="100" height="40" as="geometry" />
        </mxCell>
        <mxCell id="r_Jpmp6yM1Su2GTmglGd-18" value="Agent Node" style="swimlane;fillColor=#f0a30a;strokeColor=#BD7000;fontColor=#000000;" vertex="1" parent="1">
          <mxGeometry x="-144" y="228" width="188.5" height="283" as="geometry" />
        </mxCell>
        <UserObject label="K3s基本&lt;div&gt;组件&lt;/div&gt;" treeRoot="1" id="r_Jpmp6yM1Su2GTmglGd-37">
          <mxCell style="whiteSpace=wrap;html=1;align=center;treeFolding=1;treeMoving=1;newEdgeStyle={&quot;edgeStyle&quot;:&quot;elbowEdgeStyle&quot;,&quot;startArrow&quot;:&quot;none&quot;,&quot;endArrow&quot;:&quot;none&quot;};fillColor=#d5e8d4;strokeColor=#82b366;" vertex="1" parent="r_Jpmp6yM1Su2GTmglGd-18">
            <mxGeometry x="38" y="45" width="109" height="33" as="geometry" />
          </mxCell>
        </UserObject>
        <UserObject label="Kafka server" treeRoot="1" id="r_Jpmp6yM1Su2GTmglGd-38">
          <mxCell style="whiteSpace=wrap;html=1;align=center;treeFolding=1;treeMoving=1;newEdgeStyle={&quot;edgeStyle&quot;:&quot;elbowEdgeStyle&quot;,&quot;startArrow&quot;:&quot;none&quot;,&quot;endArrow&quot;:&quot;none&quot;};fillColor=#cce5ff;strokeColor=#36393d;" vertex="1" parent="r_Jpmp6yM1Su2GTmglGd-18">
            <mxGeometry x="39.75" y="95" width="109" height="33" as="geometry" />
          </mxCell>
        </UserObject>
        <mxCell id="r_Jpmp6yM1Su2GTmglGd-27" value="" style="swimlane;startSize=0;fillColor=#ffff88;strokeColor=#36393d;" vertex="1" parent="r_Jpmp6yM1Su2GTmglGd-18">
          <mxGeometry x="25" y="150" width="146.5" height="101" as="geometry" />
        </mxCell>
        <mxCell id="r_Jpmp6yM1Su2GTmglGd-28" value="&lt;b&gt;Knative&lt;/b&gt;" style="text;html=1;align=center;verticalAlign=middle;resizable=0;points=[];autosize=1;strokeColor=none;fillColor=none;" vertex="1" parent="r_Jpmp6yM1Su2GTmglGd-27">
          <mxGeometry x="40" y="10" width="60" height="30" as="geometry" />
        </mxCell>
        <mxCell id="r_Jpmp6yM1Su2GTmglGd-36" value="&lt;p style=&quot;margin-top: 0pt; margin-bottom: 0pt; margin-left: 0in; direction: ltr; unicode-bidi: embed; word-break: normal;&quot;&gt;&lt;span style=&quot;font-family: 微软雅黑; letter-spacing: 3pt;&quot;&gt;&lt;font&gt;行人检测与图像识别&lt;/font&gt;&lt;/span&gt;&lt;/p&gt;" style="rounded=1;arcSize=10;whiteSpace=wrap;html=1;align=center;fillColor=#6a00ff;fontColor=#ffffff;strokeColor=#3700CC;" vertex="1" parent="r_Jpmp6yM1Su2GTmglGd-27">
          <mxGeometry x="23.25" y="47" width="100" height="40" as="geometry" />
        </mxCell>
        <mxCell id="r_Jpmp6yM1Su2GTmglGd-42" value="" style="group" vertex="1" connectable="0" parent="1">
          <mxGeometry x="-399.44" y="647" width="126.88" height="113" as="geometry" />
        </mxCell>
        <mxCell id="r_Jpmp6yM1Su2GTmglGd-40" value="" style="shape=image;verticalLabelPosition=bottom;labelBackgroundColor=default;verticalAlign=top;aspect=fixed;imageAspect=0;image=data:image/png,iVBORw0KGgoAAAANSUhEUgAAALUAAAB/CAYAAACpIIN7AAAAAXNSR0IArs4c6QAAAARnQU1BAACxjwv8YQUAAAAJcEhZcwAADsMAAA7DAcdvqGQAAARTSURBVHhe7d3LalRZFIfxZd2SlMYLgq02JqQnURw4ELxMRLBfQEfqpB+iX6MfRHvS4FC6Jz1QdKwI3WCBgxAiUt6SmLrpXqd2VXe2TiImsv/7++HJqXNKg5587Oysifs+BgYIqcUzIIOoIYeoIYeoIYeoIYeoIYeoIYeoIYeoIYeoIYeoIYeoIYeoIYeoIYeoIYeoIYeoIYeoIYeoIYeoIYeoIYeoIYeoIYeoIYeoIYeoIYeoIYeoIYeoIYeoIYeoIYeoIYeoIYeoIYeoIYeoIYeoIYeoIYeoIYeoIYeoIYeoIaf4/8Z5K/zrn/XMOn2zcNpzve6mrT14Hr4S+8KVH36Kr6vLeG/63uRDOCZvTX12Y5vZZs3OLMzbxeXDtn+2Hu/qKTpqD/r+htmf4VgZmIVfe+5955U9/e2v8JXwSP0bp5/j62nc8ey2/b7qhn+I/v86qv7sWKtRs8Vjbbt19aT98vOPNtfSDLvo7Yev0B70i+8U9F7rDUb278q63f17xR7/8ybe1VN01L7l8BW6NJ3VDXvSeRev9BQdte+hC2w6rNgf7UN/FK/0FB31lwz6fXuzumbdldXq7NcTw/7A3q69rN7b6eGfa2sj7HWw64r+QfHue7M7yXdhj+/hnT9s2OtbvdW0yzev26Hjx6r3POhHv9+z3sZmdb0T9WbTlq9csqXz5+Kdsb38QXFsfP3rjZ/CsVS9VsNKnRiNRlXQzs9+PTEcDL8qaDcMK37/w1a8wm4i6kStVqtWaOdnv56oN+rWas/Fq53xlbo5OxOvsJvYfiTbD99Dr7/qViu0B73/6BFrhCCd76nXu6/Dir3zHy/9c80ePGAz7Xa8M8b249sj6u882SLqb8+fDiCFqBOM9PLH9oORnhxW6gQjvfwRdYKRXv7YfjDSk0PUjPTk+NMBpBB1gpFe/th+MNKTw0qdYKSXP6JOMNLLH9sPRnpyiJqRnhx/OoAUok4w0ssf2w9GenJYqROM9PJH1AlGevlj+8FITw5RM9KT408HkELUCUZ6+WP7wUhPDit1gpFe/og6wUgvf2w/GOnJIWpGenL86QBSiDrBSC9/bD8Y6clhpU4w0ssfUScY6eWP7QcjPTlEzUhPjj8dQApRJxjp5Y/tByM9OazUCUZ6+SPqBCO9/LH9YKQnh6gZ6cnxpwNIIeoEI738sf1gpCeHlTrBSC9/RJ1gpJc/th+M9OQQNSM9Of50itUKR2P8sigzzZrNzeh+6YuOejHsKk4UWPXSD207uzAfr/QUHfWZsFRfC1vchRB2CW23GjU7feqA3b560i4sH4p39RS9p3Zb4V//rGfWCUfvC1vS3dbrbtrag+dx7xv/AtO9dHXhH/47T++FY/LW1Gc3tplr1e3s4nwVtL9WVXzU0FP09gOaiBpyiBpyiBpyiBpyiBpyiBpyiBpyiBpyiBpyiBpyiBpyiBpyiBpyiBpyiBpyiBpyiBpyiBpizD4BB957270qsrYAAAAASUVORK5CYII=;" vertex="1" parent="r_Jpmp6yM1Su2GTmglGd-42">
          <mxGeometry width="126.88" height="89.03" as="geometry" />
        </mxCell>
        <mxCell id="r_Jpmp6yM1Su2GTmglGd-41" value="Kafka集群接口" style="text;strokeColor=none;fillColor=none;spacingLeft=4;spacingRight=4;overflow=hidden;rotatable=0;points=[[0,0.5],[1,0.5]];portConstraint=eastwest;fontSize=12;whiteSpace=wrap;html=1;" vertex="1" parent="r_Jpmp6yM1Su2GTmglGd-42">
          <mxGeometry x="18.159999999999968" y="83" width="90.56" height="30" as="geometry" />
        </mxCell>
        <mxCell id="r_Jpmp6yM1Su2GTmglGd-44" value="" style="group" vertex="1" connectable="0" parent="1">
          <mxGeometry x="-95.75" y="563" width="98" height="112.14999999999998" as="geometry" />
        </mxCell>
        <mxCell id="r_Jpmp6yM1Su2GTmglGd-39" value="" style="shape=image;verticalLabelPosition=bottom;labelBackgroundColor=default;verticalAlign=top;aspect=fixed;imageAspect=0;image=data:image/png,iVBORw0KGgoAAAANSUhEUgAAAZgAAAFWCAYAAABU2YuRAAAAAXNSR0IArs4c6QAAAARnQU1BAACxjwv8YQUAAAAJcEhZcwAADsMAAA7DAcdvqGQAANT1SURBVHhe7P33l2RJct8LWmZGRmqtS6su0V2txfT0DEYAg5khSIICJJd8e/ad/VPeP7G757yz5+0vu/sOl1wCIPj2gQBBAIMZYFRrLaurunSl1pkRmbn2Mb8WceNmROqsSuHfLK9740q/7ub2dTNXdWsKiYiIiIiI2GPUJ9uIiIiIiIg9RSSYiIiIiIh9QSSYiIiIiIh9QSSYiIiIiIh9QSSYiIiIiIh9QSSYiIiIiIh9QSSYiIiIiIh9QSSYiIiIiIh9QSSYiIiIiIh9QSSYiIiIiIh9QSSYiIiIiIh9QSSYiIiIiIh9QSSYiIiIiIh9QSSYiIiIiIh9QSSYiIiIiIh9QSSYiIiIiIh9QSSYiIiIiIh9QSSYiIiIiIh9QSSYiIiIiIh9QSSYiIiIiIh9QSSYiIiIiIh9Qd2aItmPiIg4wFhNtpthq7XGrT4vi42ev7rNp9bHOu6RRszdiIiIiIh9QSSYiIiInQHfR/R/RGyA6CKLiHjCqOVUytb+durS2muU4pXVHHXRRRZRiZi7ERERERH7gkgwERERe4TVqFAiKhDlISJij4C32UNERERsg4mI2DOki1JdXV2yF47X0UBRPiRrq1rfT/9O9tlkWzHSBdT30++qeJY+aFslum7V4lqf3JOOt++WtmFjtVL22Vaqj1V9PWcqv2B9LTZ9JNZxjzIiwURE7BHSRamCYFZUiderIi0fKpECxLKqt9Wz1eNcwlPYdzW9omF1dVUKxaIsLy/L0tKSrOg+vwuFFSkWClJYWZEVfdCqXryq7yuuFO2eFd0H9bygChrzOcnnG6WxPie5XIOGRg05aWhokMbGRj2Xl6amJt3WS04fAR00aOBp7Ku9pt8SvrtOWUrpzfbTqLer/csIkWCOCyLBRETsEaoRDMcgmHpV2KZjOZYwBwQDeUAMRQhCCaMIkShLLK5AGvpbjy8tFoxYlgvLsriwaASzrOeMbPRcsUiAXNaUUPR5Go2iPmuFZ3JAUVdXr3Fxykqg1gvkQYBgGhshm7ySS3m/ublZQ0uybdbj9dKsnNCsbJPX++sb6qVRSalRv6++QS0h/SYIRW2Z5CVOMMDoSDeBVEIaRYI5yogEExGxR8gWpRX9XZf4rtZU86JPCVT4OWxWiu4vLhVldm5WpmbmZHZ2RiZndV+3swtzMj83b+cgluVlrJaCEtFKsGgSAlrVsKamUENDXp+vRKYKvKhk4oSChVGn73dLowQIQg+h6CEgyKJBLa36+gY7Bsk0YM3osZaWVmlta5X29lbpbm+W7rY26elola72Dunq7pC29nZpyTcZXSRfnPwfrJqVtZWSG06pyLZOME7GEUcPkWAiIvYJqHc1LNRCEVkqrBlBLCwsyNzCvMwtLsji8pLMLy7KooYZJRJIhfMcg0gW1VIxa0UtFyMVLapYKZALxZbfkIYTSS4hmFpFmusrEe5z1KcUPYRUr8QC8QDIBkvFLJ58TsmkUdqbm6StrVnaOzqks00JprVJWpuaddssra2teq5NOlrblPjCaJcGjWe9vtOJJqCSYCLZHC1Egok4NsiK+l4ps2pFiGNFVc5LyjALSysyPb8sU1NT8mhsVMYnxmV8clImp6eUVOaUcCCVeVmAWNQaIV64p+oS8kDJ0yZC20jCJQZX/lgi7nZKA5IApTYS+z8NvS+xVgBxxhoCkBGE46Rk36PERpxW1grKnLjHlNT0P1xnEEtzS156u7qlp7dbBgYGZKhfw9CQEU+bxh2XWqM+E5Ipoxxv4rGVPEmn917lYcT+IBJMxKFFZf27EuvVbaViAttVTpWj1MtvwA3kbijcYnO4u5RMxidm5f7EjIxqmJpZkJn5WZmZmTHLZYkGem+IX6tTSyexUDSg2BtUcadr+hAN8SfOuLAcfiyNNX1WGpUWQyWIM1+Fiw34e4A/t0RkitXVFftWIx5cbBYfJUBNj/q6NesokFdLp00tmPaONunp6pLOzk7p1/2hvm7p7WyTLt0PnQmUNNXi4j1OhtbbroTqOYzTzVF5fSWqyUDE40UkmIhDi90SDHAlmj1XobSxJPTnmipQ+6kqblUPcIzeWkvLRVlcXFbi0P2lJRkdH5fR0XG1Vsbl4fi0TEzNyOx8cHctFZbDM/ReSET/MxeS/hcsBj3u7SKqesO1Gjfit6Lv8vaRzZAlGWDPTRS5A6eVf3upzSb5bYpfySVsw32cC6Gc+ryLjgwcNwtI06shV29uNVxq7e3t0qNhuL9H+vt6pK+7x9py2nGjtbZJS3NeWpoa7Ws1NglpEIfyO5xIOOpXgPLeekSCefKIBBNxaLFTgkmLPLVvwDE/br2e0kpcleeKkgtEwDuX1wqyotdQk5+dX5SxiUm5e39UHiqhjI5NyAMll8mpSVleXrFeYriv1iqsgEBYpriT9/PcdBsI1kHCZyV4/LZGMJmbE1S7t9a1juw9ta6HdCBAiHF1tWi/3cXGtzVq+jW3NEtne5sM9vXL0GC/nBgelJEh3Gm9mW7QiSuOfU27nB3Vd+gfpMh5YhUJ5mAjEkzEocVOCQaklaYfZ5tW6mnltaonVqQoc0uLMjkzLZPTsxpmbDs+PackMyXTs4syPb8gs3NLsrBcCM/T9xDcGnFCcXg8qhXC4Lw6XOB7IJOVpCMCJEPbDS44etLRI41u0J2tgWh6ujpksLfLrJuB7g7p7e6Srs7QI02fos/z9CrnBakJOFM+uh6RYJ48IsFEHFqk20QQ4qBssmqF+m44tmK1XhqZHdSGqQuXi8DaKmotKEYsDxQmRYSxKbOLczI+NSH3HjyQ27fvyp179xP316Is08tL69lCL676sHVYu0qmEd6JZR1osD9ioF0KYAGyv1JQ8rX2p4LklHTojdbb3SkXTp+Uc+fPyekTI9KtxNPMINCGRrVs6GwQXH71uOz0j9T1XKtFMpFgnjwiwUQcWmQJJouy4sGzzzXhKiwDxL6s5Nmq8tPzgXBECiurMr8Uen6NTYwn7SqjMj45bWNVpmfnrUsxDfS4v2h6UBqxp63q79C2EXqAgeNCMGl14t/oR0JbEmm/Ig16jtO0C4XOAXXS1tIsHW1t0t+r1szAgJwaGpSTI8MypNaN3mT3QCykZPktASEHIw4aIsFEHFpsRjBlhLaTsqWyonq8aMqfQHtKUf8vrKzJ/OKyWiQLaq0smXXyaHxUHo6Oy7gSzNjohMzOzUmxEHp88bR8vjlpxwmN5RBLeIOeT6LHOyCYmqSSxhElGCcX0NCg5KIHmVoGMLXNmg0WDcRDxwC6Op8eHlKr5rScOTEo7a0t0tXKuJpmIxN/C08kxUsEw4ktJHPE40EkmIhDizTBgPWCHJS9X+X9qtyCoUMVHWyX9ff88rINdvzmzj0Nd+X+6JiSSxirgjVjDfNF3dp9dM1ttDYFb5g3BZqM2gehWIX3O0oEk7FmKnAEXWRZ0sFaKdpsBBo0SayLc6ptqlhcsu7LTfkG6eloV4umS546f07Onzkr50+dlDweyORawJ38ruiOnb4g4okhEkzEIUZQxvyPPWGijPJWxc+fI0swBb2OqVdm5ueUVGaVSCZkanJG9xfMHTY+OWvHsWaWlgqlHl+oMrbB8tGtazR9Z/ViVINIjjnB1Kn5wjEbU6PE4iQd0jh0/aaHnlkzer65qVH6e/pkeLBfTp8Ytt5nQ3290q3k06Rk424zg94HynkW8SQRCSbiEKOsjMP0KQx0pKtsoyr/5ISCq9QIYfC5hfmlRRmbmpC7D+7Lrdt35Ztv7tgI+7m5RT1P20xO79fAIMAGyCRnNW2e5MrQkCGDdA+0gEgw1VH+Rogg7JTTxA1B+Jspc1bV2llZLkhrc85cZ1cvX5KnL16Ui6dPSF97q3UUyPntkBYqjUpGqqNFxJNBJJiIIwEIBnIANh+XKpwGVVQFNVvmFgsyPT0rY+NTMjoxJg+UTB5OTMrU/KzMzc/LvFouDJYENoAyIYagoEI7zXqCSZRkihC2TDDHHhmCWUcuqd8rwdpZWS0aieRzDdLZ3iyDXV1y9dwZuXjqhJw9eUJaW5ukqVErAnodCJZSJJgnjUgwEYcaNKbbVjUV/MLswstLRVlWU2WpUJTZ+Tnr+TU2NqFWyoQ8VHLBDTY9OysFVUbeKN+gFgvjM6xx3qvV6xSfXw3oIeZkUwvlqyPSqG2lVSOckB90BCho7miNQa2U1oYGOTE4IBdOnpRL58+Z22xArZumpkabIaFB2R4LKLrJniwiwUQcWqCmwmzFK0oODdbGMrdQlMmJaZum5fa9e3LnwQN59HDM2lfmFhZtGntQn8MFRi1Xg/tXVLExQBBrqDqSe63EKMHUZ4dCZgklEkx1VEtfT9sMuWig8sAgVybaJMXrNQ+hjXqtTLQ2520MzbNPX5enr16Wk4OD5krL6fkGVW2RYJ4sIsFEHFqgkibn5mRqZlZmFpdkemrWrJWpqRkZnw5zgHGOgZBLrPyoN7CyI0rH5vRSprD9lBIygmFQSwph9D1vQ7nZIUO1eb0qEQmmOtIEU5lqaTcj5LKqaYxVSbC01/zx2Zjp3kweMrnmqcFhOXfmtFy9dFFOjwxIf2e7NOk1TjBpNRdJ5/EhEkzEY0EtMcsWdr/OXFKqYcw7koCVGjmN/scSWVWlc//hqNy+e0fuPXik4aE8fPgwjKxfTtxfqqDWcJlokIackQldit1Kqfb+tYwFsxWCCXdsRChHj2yq5+jmSNt9ThZpOMmQ93QFh2TIFywY6ybuqa35wnE6AOAS62hrl5dfeF6ev3JJrp4/Lc16nvzdquxF7D0iwUQ8FriYsSVQuD2kgQeLS/GUoGCcVHwQJGNVRkfHbILJ8SkNkxM2N9gCsxkvLtqWNVVsYS693wjFuhUHBe8Nvx6fde8nfjUJBpTPrVdQkWCsYlAFFcRci2DI9EwvOvuVELnlGQ1tyTU5W6a53sbMcK4536RWzCl54eol+dYL16XFrirndRbr8y9irxEJJuKxwMWMre87wXhBt3OqoTjNBImLTNeyuCBzi0syM7skk3Mz5vZ6+PCRPBqdkInpKVsdcrmo1sqGuqK6cg/vrTxXuzgEpcYYjto43gSzcR5oCiQ3OMGQ1rSnkDbrlH1CIuH/ACzG4M4MHSzqlWAaczlpasyrVbtiFs3QQJ8RzPdfezkSzAFAJJiITeGFfDcq0sWMrU9+CMqF3LsC6/v09PTcgkxNz8o9JRNcX7fv3JeJ2VmZ0+NhckkGQGoNVrUWg/V2gp0RzONUSgeRlMoqP+2+BFsmmGSbTetK92P4QXsYbjFW86QjR2NjozTkmJU5WC2+0mdRKxnkDQ3+L0Iw33pV2lIuzGr5Gglm/xEJJmJTpGuRjmq+840QxCwoTBSRz1q8qjVYmwusuCKTap1MTE/LlBLJxPikjE2olZI01E/PzUthme7HSlBq2UBSpiBUiaQHVW4HkWB2gtoE46hGNBXkkexn05prSF+ay2yrwWZNwHLRSkSONjQ9xz7HfBVRyAaCAd2d7fLc5Qvye2+8Lu0N1fP28ebh8UYkmIia2JhCwtnKIlzrjvRVgZoKqhyY4n5RAy4u1k/56usb8s3tu9Zg/3B81LobMw8Y7SYNjU1BwTAVvtVMmcGYZn56fG0c01qIBLMTlNO6FsFshlpeRhu7ouQBYdC2QlpjsWChYKR62vs23Z0cFxlk09rUJM9fuSA//u53pI1JNfXax5tnEWlEgomoiY3Vdvrs+g66lQhnuQpLZXFZrRW1VB5NTtikknQtxlIZm56wBbxmF+YZS6fKXgmkLqdbvXmNWqs+JzVOIszOS1dVjm0c22oIiqcy5pFgNsP203kzkKasFcO6LxALbi8Cx81asW057X0LwWABs0aME0xzY84smB//znelszE8w6/X3E1CFgcxnY8GIsFE1ASqZC0pkFpMbQv8GFekj6swmYI2F4laHfjOsUBwXywsFWRRw/T8rEzPzMmkkgoj6+8/fGDkMjkza+0q3gOsQWut+Xze2lmAV1aNUyoQCebxYmvp7OmYXhPHlb2PO4IQwrF6aVRCIRshi4Yc+0yCmfr+Op6T3Jds0wTDFuSVoK5fOic/+R4EkzPrx69HckPI4iCm89FAJJiImqDIQhqgXEiD8qBwowTW9DjFk2upRaJQrFtwfYO5wOgBNjo1pWQyZo31jFuBWBYXlmzSyaXFQnl0fX15nIr733lW2n+fXBqQ9DQKjfzpE1tD+KZK5RIJZjNUpkOt9LKZkvWct5MwsBUSYclkW7dfScRcYfo7nA956KTCsUqU85d3+3uz71d718bA/N53Xpe+1harpIRnA66tFt+DmM5HA5FgImqCIp0ueulCTcgSDO6vOSUOprofV4tkSi2VCd0+mpyUsalp+804FnqBhRHz4TmANetRHFgjaULBGkr/TrvISl1ZTReVFdBWUY1gamP7z989DqLiC+mQJRjfZmF5qiGn+UobWppY2AeQij0vyU/gzy+jMv1rva9BayBPnT0hP3z9NRnsaJfmZl8QDtTKw4OYzkcDkWAOLLaq0PavcDBWPjydGmOYDj/ESo8mr2UgZFFFqFhcs8klJ8Yn5M7Dh3Lz9jfyaHRcxiYnrI1lbmnZlAaj6m0qfHOP0KDLrFEK+iYrEEcGOga313pkySegMq3WkVINBCW21fTban7sJbYat8eJkA5OCFgowPJNZcTyVM8ZgWhgrArX8ht3VQ6LVPfJX85XxwZp7ZWKGmqLcTWXT5+U33ntFRnq6pC2trYkn4njSmm/EgcxnY8GIsEcWGxVoe1f4YBgVG3YvtKBvqncOZlOoXPWWD8ro0oko+OMrp8KDfbTUzI9Pa2Ew6h62mBWlIhotcflxd0hzmWCQDHofynrZD3B1E6P9HMckWD2C1Q0SNzq6dFMry8NRjDWrhIsUtLaQpKv7HtbTCU2SOeUhbMRwTx16oR8++UX5ERPt3R2dibxBeV2nEocxHQ+GogEc2CxVYW2f4UDgnFANQUlioXlJZuOZW6hIGPTMzJqDfVKMBNKMJNMLDkvi4sLNm2+apCgYNRqAcQ0PDHMIRWsojU75l9hCsB7jClWU0plO4gEs18Ieba2xsBGLBQNkIXmF7+blFzoWkza5rBWMwq9Oqk4NkjjjBzUIpicWr/nTg7Lt154Ts4M9ElXV1cSX8ZNhXvWk8xBTOejgUgwBxRp5b6+4JULRGXRKP+qVlTL9keAO8CySAuEF8X5laJZJ/cePpC7d+/LnfsP5eHYuEzPLNgYFuYKM2+J1lq3CkSPxuA0IsGksdW47RQ7/aZwH12LWUOnsTGspUMjPmlqbSp2xXplvt8EgwVzbmRQXnvuupwZHpTerm4b0It7DHhbnyM8tTKd9zvVjxMiwRxQbEwwZeC2KqO8zx3pgWi0eTSkqMOUuymCugpC4Y4V/W9huWiN9TTKT83OKJHMq4UyLo8ePbL166dm59SSWZSlosY0mViSYdbUYrNKpRaIA1ZMGtxf8R2RYHaNdBH3vAlbd3dVInvMrFC9Pgx+DPdCLmyZaNK7FeMSc9QaTLkxtpjGNWTC2oPUcoZYXnz2mpw/OSKDvb1iy2gnz44E83gRCeaAYusEU/4/XTS4w7sNu9JnpLS7CazBPkUw1O8YXU9j/fzCkrWt3H/0UL65f19u37uvhDIvMzNKNNPTdi9r1dtstvWNgVz2FOXvWNshwWxdwW1VnewsHrvDVuO2MbJFHFkg1GsiYQl47Z7rOJ6+nt85JRDaVchvd4tZA77Kjlkr67oUbyf909heGrs15NYM8V4pLMnIQK+8cP2qPHX2tIz0D+hxfa7KEZWOSDCPF5FgDii2SjABXiTClv+5AwOG7IUA6laLqhgoXGtayELPLZsDTLcMgmS+r/HxSXn4aMyIZVT36VY8u7gkc3p+GStFH7iSzPlkCipxiUQ8aWwsHxsVcdpSHF4RsXEpus3lmKaFSgQTSgYrxa9DWW/s7tp/VCOYohLMcH+PPHv1oly+cMYWIlPJVUmPBPMkEAnmgKKSYBy1FIkXiXq8zbanddHQJsK+ZnGYNyrcX9QTS0tLtr7K7NyszVoModCmwvLCD0fHbCoXuh1j5awyADIZBGmNuYmiAZFgDgI2JhhHtaLujfXkI24vc4cpobDfmM+bpcI5jrmlUnI/uoA9IdQimIHeTrl28aw8c+WinBk+USIYyIW4R4J5fIgEc6CxkeJwCkoXh/qw0qM1nKMY9JwqBS9OZq0UCjI7Oy8PHj6Uu/cfyv0H93V/1LoYL6mlUtR7i2qtsB6LPQNfe0NOn4GCCcom4qBhewRDHlo+1gWly356OnxIpnKKlRo4oATT29UmT509Kc8/fUUunDptJQWC0SpSRWkBkWD2F5FgDjxqK49AMeXiwGKyNGiSpUzVQsFbXFiQufl5mZydk4npGRtRPzE1JVO6ZSXImbk5mZ9bMGsmDKQMz0O5YPUwk7ERlR53hWPnotgcIGxMMJ5X5BvB3V6sudJo7q9AJh68XYV9R7X83lk7y96hFsH0dLQqsQzJC89ek6fOnDOrnkZ+CIZSkkYkmP1FJJgnjHThd9AmCUyvK9JZVG5QDxeFM6GPDG4x1knBBcYx5vpiynvrWnz/gdy7e1cePBpXopnUgli0NhhzeWGlGJH4VPg8TJ+Z7Ia4VRa7KDaPF+n0DvmxnlT8GrrqZhve6WFF4zwN9TTYu6ViC3jRlpZYI0zhs/5dBxO1CKazrUnOjvTLK88/L1fOn9OUwlJbS1oey9+GTEeC2V9EgnnC8ORPF2Q8XMW1FclrTRMwHQuXlS7RqiN+ZVUF9pP6GSPml4ur1vuL9eqZoXh0fMK6FU/OzMnc7Ky1uywvL0uB1SD1nmCZOGklxSqZvRhEgjk4SKd3mmDScrOyEhrsycHQpbiuNF1LaFtJja4npC2VlLtr/bsOHqqVG46trCxLe3OjjPR2y2svPy/PPPWUlZXqBEMqIteVsl35K2I3iATzhFGtoEAwtKI0JroetUH5T1dKmZ58aXlB5hfmZX6xmEwyOS+PxiflwZgSTLLGysTUtCwuF6xmav72enqRBeVDYBAaYIVJfofOAAEbEcxGiCK1e1heJOlY2lq7mJ5TckA1eh5ma/I5PZ1etMsnmVxHKoqS/B2yLEvLWPpbVlcL0ppvkIHOdvn2qy/JM1evWPsLBEMXGP16u7YM0jJ7LGKvEAnmgIJMIUA0nkHuFGGLK2x8bNRcXzTWP3w4Kg9Hx23d+pnZeSWHUJzWmExSrRKUEK6T8IDwRM96JxUvqMDJBaSPl1GbcKJI7Q6kN5aHKUwCbisNbDlnFgluMN23oJUGtrSlVFoq5edZO0sqW5yUvIKxnQqE40mSUlrG+D5g6aUE09JYL72dbUYwz127pl8WCeZJIRLMQYDngMp5mkSMSDRwemF5TWbn52ygI43z00oiY2Nj5gabnp7V37O2xgpzheEqs15fWpW1xlytwVKrtSWGNbvpqunZniaSNLzQgvR+GZFg9hMQDORCWlqAZHRLXmDB5DRLQpuKkopauiUS4bxqfs5hrThQrJCKWzmOssV6tAimq7VZ3njtJbn+zDVp1HOWXpFgHjsiwTxhmNIgBygk+o/2Fqa/p02lwL5aG3QZZoZiBkHefXBf7t0flXtKLtMzizI/N2fuL9CQV2tljZov05LTaE9NVotUonQY2R+UVrje22AApJOGF1qQ3i8jEsx+w9OR9E/vQz6Nmq+4vYL7K3TWcIsli/VKtQwIxioZqZmstwJTy08wm9My5vLJMQimuaFOOlrzZsE8/+wzktfzzFpAG0wkmMeLY0cwbiFUIhzdehHb+Mrq76gOc3toCUdJADVUbO2U2fkFeTQ2Lg/GJmRsYlweMVvx+JStVz+/vCKFIuSTuFGYuViB6wRYDTbJVe9NBOmkyQWkCcZRui9FKpFg9JuS7bawxWlusoqacUyrWsHwthIb+Kjswe98Yz4MgNTjni8+/Y+/r5yHtfOopJR1c9QIpkkjZwTzyivy/HPXlGCwCDXtqhJJte+udl3EThAJxpAUTPt/K9j4SvdrqwqwLUgnsu9DC2G9lDVbXnhxYTFMLDk7Zy6vB2qxPBoblfGJSZmanpbp+bngk9e6GG6v+hxdTRutYJXnHFsz5eMLQTlWiVWKXEAkmK1jR1+0CcG4u4o0L5NFsFYIoS0luDl93wmGezydfS4xlSTbbpdggI9/2gr8yoNMMC2NDfLGq68qwTwtLWrp0WEG62WjryS3goWTJErErnE8CMa/UOVmY4LZSCGkRXPjwsjU9fVaY1JL3cBTiYI/nS2N9KiFhcKaLCwW5PZdpsG/I7du35bJyUmbybhQoOtx6AEGOZR6fNn71XpJdSkGrlC8ATcN7gbRgtkZdvRFmxDMis24ENLc2so0nSERpr73wZAQC/ueV1xDSBNM+T1JO80WIut5etTaYEgDrXJpFWxNLZiX5cUXrktna5O5yShxpFu4nu+tlj+cKyVKxC4RCcYQjm5EMH5FwMaFkRUcg1sj/Ob1Zq1oUi8vF9U6CbMSj0/PySjBuhPPyZSNsGfKliVZ0WdABulGWWukzcp+4trYbH6wrWRztftAreO1cBRFaqezOgeEe9N56cD1xXr1kEqwVmhb0X3d6p411JP+6/IgEx9XrmBnin9jmT48UFtMK3g5LTuvvfKSvPz8delub5Y8HSHUql+fltl85dz25D2iNo4dwYD1qsIdBOvPgPXug/WFkVQ0f7ZuWR9FNYMRDE4LW7NerZG5BdZWmZeHo4/k4YNR+ebuPbn3aFQejU6qReOuEX2bkhOLOFVDmmBCrXZ9XKoRwlayudp9oNbxWjiKIrVzginfV1FZ0F0sE1+wy6fDJ+8dejbZq4JIMDUQCKZupSCvvvyivPTsMzY3GT3LIsE8fhxLglmP2sqj2pngoqoErzCHh+5ANNYbTP9jsCMLdY2OTcoDiGV0TKanZq2xnmnymbGY0fX0+nJQALBW0i4sjpFV6yyYSDCPBTtflyZR+lrhIE+xUMhXuhE3NTRaTzDSl4GR3iHDoUeTvSqIBFMDq1Kn1r+sFOWl55+TF565KoO9XdLWFGYiI60r5Tmbr5zbnrxH1MbxaeTnK2vKTVbIyoWtfGa1xFPVCiPtI8xUvKikwRLCdB+emVuQR0zXMqoEw3T4ExMyPjlpbjK6HkMq3l5iyseEP7hE0kj/9nYYELIuEszjwE4IBnKBNHKapz6y3lxgCZkwbiW9CmQWkWB2Ak0DlpkoFuTF68/I89ev2vowHc15+8JA8Gl5zuYr57Yn7xG1cbwIphY2kCcXP7+d39lHcQxXGFPeM1blzr0Hcv/RA1tbhQGRDJC0pYX1Rtwk9bk8jGL3rtngR0YaV/raUUDZnmAAC8azLGwjwTweZBXRVrAqzdbrq1FyEEySv6bkNICN0rY+04mjEpXxqWzf2UlcjxbBFJcX5YXr123K/hNDfUowai1iOUaCeayIBKOfX+5JUwbJgiCuEZJjiCJuMLYLyysyr8TBAEhfs35CrRSmxGfCyTmIZVaJpbAsRboim8WCldIgaykh9+Qv924pbz0OaUSC2X/wvZVpDEL+Ofw4xwhmgaqF4haoXatWBtPhN+UYS16+drMOGY5IMDuBfjszhWu5u371sly/8pScOTEkXW1NkWCeAI4vwaQ+O0swJAnBBFEFEudYUS9nVD1dkBeLK0YsuL6+uXtH7j18ZJbLzIwSihIP84ABSCMNyCF7DKyptVLtOMgqoDTBBOy/YthICVbDYRYpvhWyQGG7HNgkk0oW6QZ4B9d712J6ftEDzNxgkE3S/tKQUVj7QTCV2OhcJcrEdLQIBhfZlYsX5OnLF+TimVPWkywSzOPH8SGYjCCFzw6FCoFLn+WMqhXbZ82URa0NMbIeFxik8mB0TEZ1H5KZnJm1GY0XGYKvz8v2OMsW20oiCW+tRjAQCaimgCqzbP8Vw0ZKsBp2K1I7uXsvVYJ/b/o7GMyIK5NTdCu2Hl8aaEPxNhXu8+BgP939Pd1xA4Rrq+chRLczZJVmbRxGgqnmcXAYqScE89T5s3Lt0gW5fOGsLULGF0aCebw49gSDCwzB4yyBtpTllVWb4n52fl7m5hZs3MrE5KQ11EMwrF0/t7hgI+/pBcazGPSYwxVCo20yNmWjIuuEApGkp3ZxRILZHvZKJRD39Pf6PnNZ2Vazt5FZFCCZxFoh1IRaPrSvpbE+PavfHwmmOrZKMBdOnzJyYW3+vq4O+0LSvjL9s2nFuZ2me0QWx5pgvGswCWDjVTQwweTk7ILcHX0kt+7el7t37sijR2MyPj5hbS5M6cKsxPnmJvO5Mxi7LLTUjtIFNVNos/M9JT2BIsFUYid375VKIO64xHBj8d02B5hu6xvqpKmpMYxdwdWSsUSyYL0e4NyT7tm1Pj2rPysSTHVslWBOjwzJU+fOWE8yuirHcTCPH4eeYMriUb1QqSpI9irPh+6+9TYVC5NL0jD/aHJKJqdm5MHUpDycZP16RtbPyAKWytJSaOFPYOttYK0obHBkkoo2xsGUS3hvIArdrzWZoJJMEPjq8c8qIwpXRZbVeO5eFpH1CnFjbEWkdi506e9N0iwh6q1is268NoreuhRjlYZxKmHwaziWjkG6p9+6nn+lCoQqtQ3fWT0PI8GUUYtU/Es99kYwzBq+vCwjQwNy6cxJeeWFZ2Wot1vPUYD31kWWff92sPVcqsTBzqlKHEqCSUcZF5dt09o/BR9LwC0I6YoqgJViUYoqiIvLRZldmJPxyWlbtOvmndty7+FDa1+ZWVyS5UQCbLR1PbXXsN4GIA4UTlMC+kxIBlQnGJCIRZoQUhZMLWSVe5ZgVssvKIE4rT+6c2TjsBm2IlKbX7EeQRmmi5cSO3GrQjBlxbkeVAbS35Te99H16+YEUzGydNV7+T4Lmu8lS0XzHYKpRDleOyGYnWN9emyOvY7D3qIawVT7SuuSw+zihYKSSr+cOz0kb7zyYopgkvz2cljxXM+kKi/LIPvunaTeTnIJHOycqsThIBhimMpzL+CGxAdRXFELQ2E9fUqlmSWGQh8eMnOpsCLTM9NGKEyBf//hqIxNTtgKkNPzs9bVGIuGnmL0GPPeYL62CgrGSKVKioUG4HB9aeVIRcmCKSG9H67bSIFnz0WCqUw/+1bNkOw7swTjFQBIgdmmmYy0MWmg9wGQfKevWc8+wV1h68kjPCuNSDD7hyzBZL/Qz9Ndh5H8uMN6Otrl7MiQfP/br8iJvh6VAT1uIqQXW37oN+uuPyudApxOZ1k2dbLv30nq7SSXwMHOqUocbIKpFjNkI4mybVUZqHqRYmEpFPBkCmMUCmNPFpdWZEHD3OyC9fhi+vuxiUl5ND4uY6PjtjrkkloyS2bVqACagsmpDDYEcsi4oCCXWrVjq00r0n3SKgpG8qxqygqkFTlklVXs/M4SDM/MxudJE8xWkFUY1ZBV4BsRDEinC9c6qThCBWDVeoE15hj8iJWCGyw01vt3cmxvUH5/JJjdIS0v2a/zc5RX68epFcT6lVXpam2X00O98oM3XpdTg0owK0XNY82IkjyznHh4nksWZ9j37Epnm98F0DlpeKVzP8oKSH/zwc6pSjwmgtmOwCfJl41V6je76AoXDEJhtRAUiAbcZcsrBVlcXJYHjybk9u27cufufRuvMjo6KvMLS0ooBa39Q0JBMEGd1mQRVtxqIVn0eRmCASivCism5WuvhH93WXk5CQEGXDqy92I1uXvGwTXrCEaRvZfzO1VoFd+VYP131UYVg6oqNiSYJM2z37me2FWZaIRD/MJU9XZUt9XIxd1fTUooeSUY7mMaF2/Qjzi42DLBIAJaMYFgOlqa5dRAn/zwO68pwfSq1FMh4YLkBvSFHdVn2IFKOIm43FUtGzUqiw6v6tUucVtD+pt3+6zHiQNIMECTMBsr/e06A4FCmAhchmd1WS0Qug6zjsqj8TGZmJiQiakpmRyblonxKVu33qZsWVpSMkpWDEyUSkkpJsKCa2zNDgbhCyhnK+Z3shO2CSqV1Ppvzk5o6fACkj7Gvg3aS9qQXJD9qf4bxZkmLcdxIZiQB6o4qsQb15c12CtJB7IO+9a+YulWTjvfrn9HxEFANXlJl7BSGdLsszYYLd9tLS0y0tclv/udb5sl06Anc1puSpxgBGPSY2RSzvlKD4AfX1em9MBWfQW1S9zWkP7W3T7rceKAEowiazkgOPoYoqv0kKxXr1sVpEU1feeVOB5OjMvd+/fk1u1vbAGvsbFRWZxbkuJSmK0YhYNrxB6nz3HXisMabU1erK6TCK0LIVCFRDxIsioNy2VFvP5cOZnD8/xajvvVWUVetmDKaZEmIw98V3D/BJjbqPLTMsikbQp7TTDl764ER2vW/rZBMGtS1DiH9i9LD1MgIV2sc0Zjzog6PRV++us3TqeIg4JaFZL1JU2vVYJZK65Ic77JJrr8wRuvytnhQS37a2H5ZC0vQQC5OkgDA6op/7ZNWb/upkUWXVZovwOrWEq6j9vNKnqUQ/2rXbq2hmrflMZun/84cXAJJpOM5DnrqrBeOcQyNRt6f7Geyv1HD+X+6Jh1K6ZNZVHJZrGwEqbBVyFAMLTeasrHBQYK8aVmvfaKUkKQGVmvosMZvaq6+yStiNNElVb0/t0IIouQZWHvyiS/C3d4b/V3+z1BiVIrL19b/h3Wk9ks7uuxXnyrPaMWtkowIP3cagqkehtMBkr0DZpbYXQ9ZKLWim7TDfeg1riVal+2ne+NePyoRTYBq7JKeyoE05iX4d4u+f53XpezJ4elkbFMDWvSqHJRRtjHVc4Yt0KxIMtLK+bpIBTp9FMoyApW0TqsSk4rME1NTdLc3CJtra3S0toSKjPJFTsBUr7RJ+7m2Y8bT5xg0q+nYDM+JbinFIkgoGewVFgFcpLJJWfmbFS9ra9i69aP27QtcwsLtsZKfSO9g7gXJWPUUiKRogoL76QhvlGvyzckg+dcKel1EIyoxRPaSIKSCkKt+xWppTRQSxmlLBwUY1EJzywk3ef9EEnYaq2pdCwcZyAn+8qjeq78HI452CdefJ/Hm99+zOPNcbdw+A32g2A8blt1kTn82UyHb99Upc0LkEbAvjOpQVJzNGLR35CJEwuN9ITSs/XeLFk5qkV3K98b8eRgFbMkP0vdxPVnaEtTAlEiaVXF39neIYMDPTZt/0B/t+mBlcKSLBNUV8wtaEV0cdGGK0AmC/NLMr+kv/XYwsK8zM8vKLksy6qW3eIKw7DXI58PBNPS0iIdHR3S2dmZEE6ztOqx9tY2aWtvt/2mprzdg3S5hFWXyupy6aheQg4mDhjB1CftKQXV76ERlrPMRowwfPbFF/LZl1/JV1/fMGKhVxhLC9Nmks/nk7do8qvCcSXBlgxx5b6igrLCeiwry9LX0y3dHYlAtDTb1u5BYSvpmBXAs1Q000hnflmJhRqOKbNMkjpprBSDBcYa+7QBmTXm5zRe1Lp8W1gNQs9KmDbZoiJdg+cdvNsVqcfDwQwDwGv01LSMDKldbZjjj59gAklrGuh38hxTFsk7zZrUY6QV8mFEklQIsNZyWklgxmKQtlKy7rdIMEcHVtnT/KRcBNkI7anIRmOuXno72+TkYJ+cOjkiJ4YHZbCvX8tAvRSWl2VsXCulDx/K/XsP5c69u3L37l2bAX1qMgyqnp2dVXJZUJKZNw8Iz7Z3aDmtVm6ozCGP6J9WJZOuri4jmd7eHjl14qScOXNGzp09J6fPnJT+/n6Ls81hx70aeKRXIq3ylEjkRhK4voQeXDx2gmEvnUD+ehQTihyFi7WCyTq/uCAPR8eDC+zBQxsMyT6usYXlJVuauGCmayAYUwz6ILMOIBTNTJTy6mroMcYxFG5zc5PWLFqNYDrb2uxe5hHDX+/xQbHxvLWU0gIoOVBN2EJtqvytjjUtEbybZ3vgWq+JuVVj8dXvQdHy/RQITHbIiGNGjikywnxn6261ELcQv/QxM9lzicssIcyy1VP5fVnxTSvbWoqXvPN0y6LW8XQ6lZ6buCFsLIPGK6S/xkgVR3qmYh/wSrBzSdf0naCWxXScYQp8C6i05nePjd6b9Ry4XJlcaGhsbLQKYm9Xtwz0tMtgb6esmbWyLHNKGlNTUzaf4PjYmIxNTMjk1LTMJEtrLKqecZdYoUAZ05DoC3er875aFTMrS0kcTJdoaMk3qQXVLt09PUo2XXJSyebEyZMyONQvp4ZHlHDOSJNWjrxdENDxRN9k++mhDmlQevVtya+DjydCMEDVB2JiipYGeCJBA9uymqOQx+z8os1a/IVaLV/duCk3bn4jc9QqikVV/lprpeFWTc4iAqECQC2dT6GBzy0BrJsVrfmGWsiKCUG7Znp/b5/WJnqkS62X1qZmq1GYstJghIQST2JajWAwtdMoJyGEVl0wXHHbiG99D2BrxKpbf4ZvcRWuKMtUWDVKOEY+hYIsqBlPgcCc5zfxLsVf0yMNE2ItKKRDUMo0eof2Cv/uMtZ/b9iWr0nvg50SjJNgCRpv4oLx4fGC6IkryoP4BkIJ8Qbh+bXSfHNEglmPw0AwAPloVrnAPUV7S6tWGof6B6S9TRV9/arcvXVDbtzQ8PXXNqcgLnXc7LjCcHkF74c+KJEBLGLkikBlxsgr0StmQVf5Xpdv7mGfUNBnI8uUN6BGlVkvIyMn5MqVS/LMM8/IC889r3pIK7hq7UBKZpFHgtkpyonle4FglFBWgjsMQC6Qyq279+SmEsqt27fVYhmVmbl5W7iLhm+ii1AgXPrPBMW6HKsiYgqYVRQxCtdIRS0WVUaMeQj+0XYzYdvaWqW9pc0UVi7VdZiU8OcTUxMaI4TKDK1OMGVyySapPVPjyFejIImrTfGeCKWTWfY9prj1FNdYSGpSZs3ot2LdUOOCeKipQULUxhYXgmnPdVhE/ixLM31/fZ1aABoH3s8x4BZDmLUgnAOhl0yIlx/zrcPiqfGqhlrHSS+QfhbpSm2QNhWsLgq5uSs1zulpetJw1+ROEQlmPQ4DwWBNoJg7OtRaUVKBYJCP+dk5+ebW5/LhB+/IxBiEMmkuLypj1umH3qQqz5RVq0hq+TBvQlK+ADLopONuV8poLYJJy7jJaFJmzNVLWc+F8kRFibaZ/r4es2Jee+VleeHFF+XixYtGNC7fVk6T8pEFZyLBrEM5scIeTB18j7jDbAzLwqI11t/85o589fUtua0k8+DRmMwvaa1dJY82EVeGYGVVyUQVKG0pRiZWY1BlowqHjGxU4aPWiyusrbVNM7DDGtvyKoj4TCEW/3QEh11+B3IJsFG/WtsP+0nmh1sqEJ6T+saEaNJAkHmGK/BKggntKWn4OYTVhT0Ld5u5lQPZuLlfKARLh0JV1HdjyXF9gKZ/UpgoAA7eyQwGWDweH7ahZhfikD7u2AnBhK6drEvPu0JhdIvKCcbIODnm76t8XlAMu0EkmPU4DATDdD+U5b6eHjmhyjrf2GiVy1u3bsk7b/9Gfvazv5KlxdlSBYtON8hQfX2jWSboEi8DuLZoozS9ofsscZ1vbLZKjVVu9Dik4zKYhnsRIKtQ4dMyl1T+OMc7VJRDWdXjbK0TQlOLvPjsM/KcWjIvvviCXLhwQU6ohZPT9xO/WgQD6lVmq8XlIOIxEUwZJJuqBVWqmoSa+azTxUJet+/ekXff/8BcYbfv3VclHYSBHmEo2OAyChlE52EyslhcDlsUqO4jBFgrfeYC65eBgV7p7dP9nl7LkKLePz+fNN6lKr5pJeNCDkmE2kvI6GyGVsve7DVpQsR1BcoWQ1CawbIovz9tBdEO4/BnW+0mqSEB3EzuxzWCVUDIfGPoDVP2L1uvGD2OMUVa8g4KECAN+XaPF4F3hUW1NB/sWLiWc9bTLoVaYpQ+Dom4WwyXgBE9hRsrRUOp91dyS9o68e9Pw/NqNzjqBLMXaVSJslDuDcGU03+juPrqoMAtA6yW7u5ua8hvyjWrLliWG19+KW+/8xv5h1/8TK9ZMTmjAoquQesUlrRCphUx5Im56OhJ2qMkRVtJjz4LSwIvR1dXj3k9sDgILS2tVWVwbHJcJicmrazRzjM2FgZ5sx1lHJ5WnCkD1jZjHW1Ue6muolLIl+NVeemll+T73/++/PSnP7XBoRAncJJZX6mNBFMTls0qSfgpx6dnzAX2+Y2v5atb38jd+w9kamZeM2vJlKYrUxq2UZ4oSXqAURvhN8fpJtja2iLtKgx0BWxrbi315GhtC8LhvcMgo5mZmS0RTBllwQYoQpSyqkH7jdL12sr83Jws6zusBkLcNXjy+taPO9L7XOPXkU6A89WsJuD3+jZYXwnZQLoa+Gbih7+ZQsC3E/xYcEFprUmVPUiLA3tWc0Pp6zvMvaDfRr6sqWXHsex3BddkSgmlSMmtFKw3c09CKroNz9T3JKQVFNd664RnVMNulGgkmO1ic4LxfEt3NHEZxvIA/hQ6wJgFTA1fJY57/X7kgjzPWQUq3JF+Dkq7p6tbhocHbFBlsGBuyNu//ZX897/5K2pRVmHBKkEPdLS1Bve46go6A0AoXRo6OvRYe5cRCueb9FnN1q24qXQ/bb7VMM/QCA2UM8oXa0YxXAKyuXPnjty7f996rT169EiJaMLKJJVN9AffyXN7envl6jNPy+uvvy6vvvSyXLl8WclPv93+cM2FNCnLf0iXw4B9I5jKBCmDXl+LWoOY1cy4ceuufPT5F/LB559Zu8vyyprVajFPSURYoFhUMxOCUYWI+4ct3VKpWZM5EAkZNDI8nJBKW9LnvElr6qGW7t0AEYLJqUmrwZTG2ii2QzAoRGYDoPbjlgNChUDdU8uLRkR6o5mbSRWmm+iezJ4mrngdXhi5zq81IkuuS3dV9mt4FmSWto5Sn1V6B8/meqwUIxcnGWpyGkfciRRAyMSerWY9W55lLj2O63Vl95l+N7/13eH5uNGCRcIz3ZIifuH64GajUGGxUEMj6ZxogH8TSNdWt4JIMLWxXwSzkfXi+ZiuaEAM3IM8Iw9WDqhQaPrTc7SoMrNs7t7g+uY8it0UvMoW701XtCoIZrBf5Vdr/aonHty7I2+9/Vv5q7/4C1PORixKHP2qIwb1upGRETmpAXfU8MigDAwM2HPQF1zbmLQHl1H+hmxSqv1vuiXIbnIsKTuQze3bt+Wrr76yjkofffSRfKnWFeP1KHugnl6rWsgYc9Pd3Sfnzp6Wf/lHfyS/98PvS69aVE367bw/TTCWbmb7HA7sK8FkwbE5TUxG3X/wKWNabspnt27K/HJBFqj5osD0tjUlGq6FTIpLizY4qrhSsK5/7a3NKlRdmiFq0vaqGdveYaNnERDzlWrN2iwIDUpPyZsDlvU9U0owKME0wVRm2MbKDSUMwVDTQSBpiGYCTXy/CNEDrbF4DxSEgcICnARQsiAIShmeXmx932twxM79xX6e55kLS68p3UuBTcHf4eeDdcH9WIDhGIWc+Lbot5CGkI21f2gwMtPzEExILo2JK2QlB/cX80xLd01/fxfHLa04riQCmdhx3SefKPzB7RZqcp4+AbXzIK1kKrLwEBW6x4mdEczGZQBAFriqqyEt2+StuWNV+XOPzWCN7GhZRrE3NjdppXPN5hCc1oA1wD0NKlutlK+EYNJLYPBe3sH93Z1dSjCDSkZasvSa6Ykx+fKLz+SdN39rrrMzZ8/KqVOnjEj6VGe4rmhPtqGyQ5ywppFLj/v6b8tKGFdYW3DiDfHvpmJHGcOrMTunlc/JKbNgvvnmG/nNW79VPfGJfPr559KQxzLKmy6inPGt3/326/I73/ue/O4PvifDA/367GVrLy4/m+3hkfV9JRh/NInCPubhnfv35OMvv5Z/+M1bcuvBAxmfnpV6Rriq0qZ3k03zoESgGlDvpDGPRrjQtmK9wDrUYlGh6u7BxO1RIaOWE8zX8E59V6LUV/TP3S5grwgGwW7HUkrG0EAq1E7efPNNEyInGJS/+X+TtCAdrCaXCEsW6TRDQL3270rVz4XnUciCu8qR/qRq7/A4ALYEFBDvwfpwgrGCT2GDaCi4uh+sIy04SkyWponQ414D3N/QEMiJ7w8kVW+FI00wRpqQVspH6ekDQvxq50EkmO1hfwhGZU//T+dFLZhMaxngeiobTVqObXqVZq2gMbi5uUXmlxZsZg4mqcUDAFiSnIGLeWRJZSe8K8TLCYYKDrpgYKDPrmMyy4I+a06fMT01rgQzZOQyqASE27yjrd30CQjSuNGXrj+TljC+C/nDWkeUQ3lKrDPkW/+4nqegA7BoxvT73vvgA3nrrbfkl7/+jbnOpmfm9DuazIKDkM6cOiHPPvuc/Nt/86/k6atXVN+1Whlyb0HA4ZH1fbdg2JLobDF/33z7LfmHt96VX779rswUVqSto0sLAaZmyIgVJYEVTWhMYNZA7+7plP5+zFsVEiUY5vuBbNxaCbXyoGxDzbxcoph+BDjJQDAIMCbqTgnGFTF971s0LuxTO/n6xg35zW9/K7du3tRrqM2jgCGYFft2TwdqcWyrwa/z/bQFY8cyVow9L/WszQjGJ+lzYMWggHiWdZ7gXfpOCi7f1YQC8BkOIA49ZxaNCjxYLmraa3JBUJBSXmulKAWu9zEFWjTWxdOwFtIli3Bd7TyIBLM97B3BVB7jsdUIxtr+VJYcyBTyZONUmK9Ly01ri5ZhlatmJRms4+nZGblz755WPrXCOT5uMoZF3aaEUItgAGUMbwaur7xWhCAwG3PS2y3nz56RFtUfVHSowJglZPJYHZVfV/nLkZYwZBf5C2VRr18LFS4nlzS4jyeiq5ihA5fZL3/5S/nf/+tfylvvvK3lBvd0sKRw4w+qvvujP/pX8v3vviEvPPu0lSF9AY9KcHhkveF/UiT7+wJXLgSU16Iq9zkNd+6PSkEzAlOZc9RwW5qapbezw0zekyPDcub0CTmtjD48NCi9arE06XnaNzCZLSM1H42UIBn7szfa/wYu0N827gOxVIW6tBgGK1bkV4VAVCk1KXAWoUKhonCJe2jcm7fBXFNKYKGLrQocCj2jRIMSL6eJBy5jC3xLetm1/HGMw6nHcQyhLB1LPbfaO9IwcqGQJPFzMiNwnDQqri6rNbksi0uLUigm6YYFww08T3/r1fZN/PG5TdbFM1g8oUGX54dCmA61EOKZ+sgM7N0JKpVnxY+IBKRKrRDmywv5UxmyqMwv7kXhE8rPC7LA/bRPNjdh5bdqpbDDAsMECO1KMHk916jl3mZgUPFl/Buu81lzkS2axUv7C9f5sgoW3yRu4T0Bea3MdLS3mbwR8nov7xsa6DdZxCVn5Qh51OvDc9YDDQKQ4+ppsP5e5A959bbJmg9PTnAt8WlUsmXIRH0u6L2Z2TnTi1RM8fIwNRZETeelCxfOWzrV6XUhdXlazRcdOOw7wYCgNMIWxVzQ7YNHo7JQZBoU+o7QoJcLgqHkcvbkSTnN1AonRmRwaMBcY1gzJC3KL/B3WRFazT7JbNtxpHf1HGNBlhaXbBvcaMEKqLiwhnCVoKchNQQ79Cyps1oH5u3t23fUNJ+yZ7q5TBxBOIZApd9VRrg2bP13KdiRAD8PKq7RwJucWDZDEi21HEMaBIsr3Mv3WW1L8wdrb4lpeYoq+HSa0NiYW0Dvt7yw7ww1LJ5pPW40WDsL35q8xwazpf5ouKwWz3AsuakK0ndEgtkl1Jx2+QTV8iOgfJ3JiB0qasBzwDGVO63oEMh72ibb2tqksyN0+aWdtEN/Y/HT5oGsUYipZ/DU5eKSlstFmVVFO784b1ZNLoe7NamoUPnhnYlcIOnuVsVa7urs1Ov0kXot5Namirlb34u3IeiK4BLzfUq+6Q3u0aeZJqDiZN/Gm6rLX4hDQEgrSIsnhL8Qy/RV60E8chpn5ipjfB5W/zfojZnZcIG+msHjE+OjRtDXrl5RogydEBwhjocDnuaPDSRUf1+/MTNTtszNzVsjvpm73d0yPDCoxHJCGb5FFZQSSIFR6kuq7GiwD75X4DVhfiPYfnwzuLtst7BGQQqAvpt9rJbQHoQIhfjtFCboG3wP32DfvMtv4R3B2qoUA3+/x4H/6X69oHlFI+rY2LiMPXxgXb4h1tBlPEzOiSW3oAFCMXdgElcbtGZEFHGQYHmUClrNKIXS8eQ6zWjbtwZ3VchmxeiJpnzOugAzt9/IUPA+DA30qeJvl2YasrFUsJZURlatZ+eK/oQgtKKnx3g2csjgWxR96GLPAOoCUdwQyGiQr2BFQBxUjiqIU0NRf6JBCJzxsuOldKdliWpTCOVnbQSutTYkTcOTJ4fl+Refk2efvW492vCEEA8q4bOzC3L7m7vy/ocfy+j4hN55OMvOvsU6q6QcTCrZrTWOSxfPqyAOmZ+Ua+gxtrS8YALYTC1YlTdCvmITVTLFfugRln2em8bVQvb92Xt3A3s2ylO3CLY17CfBQWHZWg0xAOsjG9Lw76kVstdvBH++35tG6Zmc92dqoaU3EBbN4uKczM2rWa+Es6A1ThunxHeqEjGLR4lmhY4UesyVlQOSCWNeItkcBlTKrypyDVSk2ttbpbMrTL3EYEcfe0aXYAIDE6lMYtGE2YOz+a3qOGkjZb8eNxByqMe0Wqny5G2XK4HQNlHfwYoO8bWxJknbJ0e1GIbjkFfyOfo2+3Nkf+8G/qxqfw70RpdadnhqXnr+eXnqwsVyudNAWXs4NioffvihjI6OGTHhPThseCKlvKWl2RL00oVz1iDXrDUg+oIzMImeFTMLs2HCuEQJBSWlNWDdD419tpeE2nA/cbhnq0g/u/bzTfhNYMPDqYFhySA4IBSOrdRpDhgo9EnIpp+Lt/9eWlqQpfkFG6vEd9N9mwoCFifnqIVaYaFGSTdVvcfDRki/Nxv0/xohYrswqyRBKX1NG6+EwDyBmp9SXLH2NNxP1K7pjcX8X1grp9RaGRkakAEtx7jBqBym8ysEJ4h0SN6XkAxyAslQ1oOriYPhXC0ELwYWD9twbSh3oWxSKeIVDo/PZvKnV20pVP5Vu6JGSOJA5a1dSYb5yK5ff9a6TkPgWGD04JydnZEPPvrEptCy9k8DTzg8eCKxRVgxnU/098uz166qRdORKKZFmZyZlAdKMkxuieumwbrBhh5ipTEYu4DXEHYKF+TgAw4CbpaMCoQ17O/y+QcVpgwUVjAItMO4RQPJaH4Bc7dpYcDct956pQK/sbKIeDJwCxOZLeWVBmC9v1pabOEuRr4zUzGDGpmKiVnJ6UmJlRImIg1l0ytcm6MsD4hMzhq8VVEryeB2K1njSjKVvQUrgSs2tAmGNhTKJAraXGUQT3Kdl8uDUDQpIzb+RvUF300v2TOnRuT8+XPS1NxoY4Fw+7F44t27d2yJEpYXYJ2sw4YnQzCa7XkVoMHeLrl+5YoM9PVY90IEYm5u1qyYucUFjV2DXkwPMLoj121DeKvDrYvdwoQYt5AKsTcOmg/ZC0UCL6hHBU4yDvKDAbBGJktL+r1hQk+AmwyCoQNEaTYDS69INAcJaUJBqRFoR6R7MEtZdNhEscyW0SN9fX02bxdtKy1aQbSelLlQqQLbl/cgC9yPa5l3GwnAOCkC2siS4Z02j17ybnPXWtkMx9wlBohmEtUnDCIRvpVeZbjKhodH5KmLF6ybP2WHc5Qd3GQPH4zK6NiYjd87bHgCBBNcJVr9lW41qc+fPa3sfdJG2sInNPqTqBNTUzJLY7EpJKKZDk8YKvAq1iq8jLBi/IjWuMyHrNJs5xDucG4vQG+XrYTHgZKbQYPVOHVLgWB9mkXNLzpsWA0yafRfXCIPtWAk6bIVUGPdSohwIGflgEtqa0HlRre0cVLBgzR6OjtkQC0Uxp0NDQ+FEfA9vba8BS4yNQ1slm6z3lHkRZV13epDytZQIh+loLFKh0qoPoBUNFCjL1cC8VqUyS8Nz/vQIQBC0TgkTML19BJFBq18ptKl9OgnjNAphk4MVMhwCNZJt5L2Fa1s07vMLBzIW9O7uLwqj1Qf3rt3T8tTtGC2CM1slW7rYtjdIefOnJELGtqbW61r7IytuT8hE5NTKjzBQtgpqGWnLR9vK9kLuPCHwhG6aPqsAsALjoejBpQHiobBsaxxTg8yGlitd5AWeGpczODs65lbGuwR6UYEuBL2AGk4+G3uo6Q2b9V5DUg/Neemxrz5/enSSyO9BxrtmSXDJn9saQlzdNG2Uio3bJnVoTIvdyrj3EfbQ3DVBZrCY4HhawOiq7jGvULFd7kFkz6GJWPfnPw+aHCdZLpB9SFduc+ePasWYq+RC8etDKk+nJiYlgcPR20OwcOGvdG0O4D5bOtoPBS5cPq0PHNZ2bu904RsYWlRRkcn5OGjRzYRHiP29wKlmkGqp9dO4P5mB64xCiCESTgeCI2RXoM1K2ZuzsjGlJiyD0s603nDpubRAhVmXwjduCN2Bmr4HhxOIiC0B9JLL5xH+dJDc22FfAkhp6eaGnPS1tZsy1ownQqTQGK1MHFsmDS21UbGg7SCpgxBBskvPZmEHQJCJFBbN2Vr38UkkA30ag4EU0NNQSi0tdA2UYQ8QSJftA9S+TmIMEJNlQVsGCboZWobLBgIHfhiipOTE/Jo9JG5nA8bdi4Zu4QZhiqoCBfzi50eGZbzyuCMjSmqcMzOz8nkzKxMT83KoiqtxlyTWh4hQyrM72zgfBLS4EN5F9dAYluH3WmB/21ksT4DJUpffisceoZCxyzPuBGsJsa1yT3pcNCQjR+LGVULJUWShPDdoeZpSkHTYpXlrhfDUs6mlFTpsbxCYXHJAkTEfbhnNobFpEY46gjunFphvduHaVCCsiJtcUdCKKw5wmBIyIRKVVtLq3WmGezvk+GhpLG+h/m5WG44l0zJEvJVMyqQkm7JWsZtEKgM2mzIel0ds2PovsN/ZytfhozsUDY8AOQnTFLLM7SMcx157dsNUOkaDtcie1R+vHx6SMOfvJ2wFyDX1vR7CWWsSVOuQS3Gdulsb7POEzYBpoaGXKOVp9nZ2ZIn4DBhr9JtW0D9ImZkOgq/tTkvA339cunCeRkZHDIhZgngmZlpGZ+atPUVfMr4Jw2vFSHEvm8FROOHFUPNBPPXG/+PKoJSSHrOlWrLrKi5aCGkT3DRUEAIViNLatoRO0fa7evWjLl961Sp6mHkEkWPLDKhJN2HOzvbtHbca20qWC1MB4+lwngVeotZPuo95vLUCl5YkA5i2X+Y1YVllMRht0Du7BsSF56XQ5VI+zuIoLMEI/vpndfa2mrH+A7ykOVF5ufmzZo5bHgiBMNLIRhqv9SasEvaWppsbMzZs6esoZEFd3CvMFPx+NQEzeZ270EABQ8CsfEdVpiDycsssUx54+D4XhSYgwq+HYTvDIUYImHdHus9lpAJlQWOh9U0D18hOUhw4vYAaZscquViVrRaIiy6R7dixqowkO/kyRGbHaNPCYYpXKxbMYSkYMgAlijBavkq1xXhMYAyYgOrk/bREiHo920GvzYN7sMte9AVcvBzhPiiPxhfBLngIvNKG8RL+WFhM9ydhw1PUPsF4THB1m1eE3igv1dOnzwhZ8+dtVmT8TliwYxPTsqkWjP4WrersNP+6nRjP8/ZjfLHBIdkeCZCbjUw/Qb3qwIXkqMIV3BZi8R7j9GXn2VhSWMKOnmJ+4weSBE7B6Ream9RucNqzucbTCnRKN/b3W1+/B6Ws9DAPH5MrIjbhaUYkFNXyqEM1JbRdDvPfoI4hDEwGnR/t+WGiVyrWcuU14MGJxnLSyVY3JkMWE7ni02AmfTcO2x47ATDC005UbuwDA+Zrhai1rxyth7Ci9evS19XlxSXl2RmdkpGJ+gL/tAU10YF4nHDlSywFRv1Iwh+7KjDSDb5VqZ/oY2M3jssi2A+Yy0UrOWD64bZmBcW5uxcBIqiVigj3X5gQc8zwJX5u9hvytXbAnwMhKTnF+uiDA0P2kzCzAuGP5+eYlTimNOvqHlAG01oW1lT6yXkneUhx/SZHAtehaD6mDOLy6oFYrS1sDHs2yAYk6Hq19PWnw4bAUXMcuDpCuXBQe108dyHaNMgfw7mt2yO6rn5GJAmCiLBL0JXR7tcunhOLZlhrY11ctomVbz74L5td+rD9y6VmOEI825AZoe+9uW4cAwLxmsfx4Fk+E7PR5stWb+ZGijjErBgbL1ya48JaY9fvFBk4tJAMtzrgzDTrpGjDNLIFAZEkewDt7TdavBzFddoGrHIHe0n/X191p4S2lR6rcHelgpPXE0hLQNp2ZisGrAu5XY+XBter1u0vh3bB1jjfUApx7WyqRJgHgAa523CSy2zVs5039MAmHtaZcrIRs+F9r3wjSUZynSH93YetxieFNKax76XGHmeJ5Vt/9bs9jDiiRCMJShmsCUsiVcWBvrlnxwZlHOnRmyOI9pi5ubmbFGvmdkwey+o5t5yt1cpVCGSUFPavZCR6elaBUJva9XQYOoCYxba0QR5aAU2lZY2gzL5qt9NrzHmKSOsFUP+msJQkrEpZBLCd9jz9iBfDgOccDdzeViaJJYxskUXeHoa9TKivrfbQnd3l3RpoHEY9wpTFtmAXy1TyGhaOfE8D45qyitdhh4XiAdeAGZFBm4d20BK26+eVgxjWE46JaTh34U8WjBlHhTe4/uqrYC8CHliLne+NaU3+A6Tg1SeHSYcoLQOPVYQryatxVw4dVauPnXF2mJIZIhlcmJSJiYnS4medtGUgSCGYOY9W/u9/6D2FWqPIVmJ22ZK5KghuE5QUmGqi/mFeWukXEtqmCy7sKCkw/T/pE9QiGFCzMPqBtgpTF6UpG1hNpQLirKgFaiVMLK+uSVvbShYKLi+hoeGbKkLBifTM8zcX9xr7Q3B9RXkPuSDy/5WwsYol6mdha2BCksDAy018sgEYSdArlYLRbOEyu7FgwIsNeRc5V23/B8QKmyoC9qP/Pt9P0zJc4DU9RbxZGO8Tn5I7JABgwN9cu7MKTkxOGSjiYtLyzKp5DIxPmFk4yQD1pPMxrB+/NS09xihplke8ezxotGRcFzgaUvhIK+ohdoU/Zpf1DTpxmxuDSUZz8OjCmqeHmqBGitpZpNLNjdLe0doU0kHRthzvKW12ZYfpr2LGn9JgeszVAWFfXAIZ0xAgYZ1XdwyVvJLZGk7ypWKpw0wrVoBPRjQL1Qtp3rBKqChIkpjPuXC9Rtgi05pbm6p2T51kHEgYlxRFDRBsTy62lvl1PCIXDgXBl+uqDKaUgtmdHQ0LFKmysunZUGQtor9VGi0vwQ3RUjW0E5zfIglDdIZYqGwAKudasBSoRszwUcmH3XXWFlhQibB5RNCaGdAiTCFEW0ouL+Gh4esWzEWCxNMhvEqYeZiSISByMjWilot3A/8+W5BHjaQBqQTyjRUAP2bapftWmWZZ1F5QWGDWtc9WSTyoHG0+Ko+Y1jGHAv2LSzYMeJN5cMGyra1liquhwlPPMZp8SHJ61hYTBM9p1Hr1ES9cukpOXvqtBUwGvRo6Gfyt6nZGTRTuFHBiN5sALs3K4mhh+pAGAC1L8bCHHWFuR7pNAqBRmICS0Q3NtL9UtNFlagD4sGS8bExlWm2/nnl8LhQ7d3bD8UVVmTV7yyG2aaZFJWp2rFUII7+/h5bzXB4ZMjcYKzqyoy6jGfJadrRq8t6j+m9hOBGDCPr6zTdCCgp7zRgOETWCzEO8dZvUnnxigioVo5K36hI76dBpY71pGifYUlwTw3cUfwlb03CkwJWSyBA8o7yMD09bYE25/QYHmQFmWD80mHDAabEVWnRhL149oxcOnNKhvp6zYUws7Ao9x+NyuTUlNUCKwSuSrmq1gZCzWC3tRpqFlkBx6eeHQtzHICPO41s+kK61L6piVFTB3RXplDRTkOtfrf58aSBLNQKTLvC9DgsHcysFXQtZonh3u4uGezps3VWmMmijwkm1XJnlVfIxZ6rcoayMXnTALF4ofVjdp5QrQAcIhi5aPnZbvlM9+YEpANLJK9qLTPdpVlTK9k7OKAiTBwXFpfl0fi4EQwWDBaqI4xxarf23cOGA0cwpqRpx2iot37+3e0tcuHkiLz07DM2gGypuKIZMWFhenrWCjDLMKe7Pq5HuUbkwouiy/Y33yp8TjQKtvW3VwUJ6OnDcrI897ArzO3CGlJTAZAuNPADCIautQz6A+Zz1vM0+uPKWG/FHDwQPxvvpAFrlW02znwXCo8AGeT1Omap6FEFMdjTIyMD/XJicFBODg5IbyezFTcZ8UBAjManLUUFS615Jd0qIZ3GNgpfg41b0XCoGoFT5dVdY7YmTCI8lGtkAhlimyVP/1aTIUbt69axpueg4aJu2eeJB496PUb6jSpCrH91++49W6akqGXC2thUdmiDov2N6X2ooB02HFCJDIlP5PJagEZ6u+Ta1adsttdcvlnmtNY7OTVj7THUgm2CvBI2/6RAMjvrrsx9afJA8F34qX1Z0AKzU/I6CkA5oCe8hg0JU1AgF5uqhAqEFiBcnrTFkIfs4/45yCTjDc7ArBO+zZQg7iklAI07FixkikujQ7+XsVwDan0z8LGnq0O62jneYt3xmWQyuMEgC9IMAqkkkWwAQQbXh8MM0o6893aGUK5CGqeRJRqz4CB0rtUAuGIF60XDih7CFqh8ypMGtlT4Dtcl03OzcvP2NzI1M136DjrGkB4snTA0MBgJZmvglelQCRLXan+axpzFv8wcPZfOXZDTw8NWSDk3Mzsr9x48krmFpVJ7SzCHk4xbJ1HZ96ZDGtyfDtWQupeaWGnWVwQCksmrcCjpbWhVHS6Uv3Dj4CAfXR1jxVArC77kVmvMxtqj1skkfkYwqRroxsjmz1bCdpG6h/YMD8nz8J2zFEFheTEssJa4wKxrcVOjDRZmjfrBIbVWhkbk1MgJc4Exa3hzvklydMVV+dyPYHCZ3E7YKtLpsZ1QBTj8XGpMXlTZmsKtdX2ieLOAXIIbMZA8MzubHklI6smDOHiA8EIbEairb7Sjc7NzcuvmTZsBg29YYWkFlTXaLpn+hwG1TPUDSB0PBx3bkKzHBxcK39K41d7WIhfOnZcrFy9Iuyoqui1PTE/KI8bGqFm5TIYkgmkFrYaQ7mcNmdoGcTX3m9bQPf6sL15aY/wYwWqkaslR+CEQXEr0hunWGhk97qz2r2lEOwwN/vT8efJWTEpuEhmCPOoYZ6JKgWnwCRQcapQMcKQbcV9/vykBrGzr+dXVHsgkV7aukYeDofCeADLl0SuFgDShzQHFahNxWv5XXh+stEq58N9mKWseITuAjg/IG8HO2VE9XqryPFkQj1xDk8q5VrI0dsvLKzI+MS43lWDmlWhoa8FtzBIKw2q5DA32S69WWGzapUOGQxFjFDeusrOnT8qVC2elW2uICODM3JyMT03L+MxkUiNAKDWoMKddCo6yO2F/BA3FiHAEF1D98VUmCUhnAsrDJ76kPz8jz1HOng+0wzCtjDX4J2n2ZEgmpdRKMlQ+FtxgWKn0imuwBbs6OztsGnxIhdDT02mDI5kG37rc6ncEd094ju/7b0+j4w53hVFuPD3W6FG6Aawsa8WtGnFjMeOaDe035XN6R7L3eEAuQyLpQBxUiux/XMNYLWOjo3L79m3rqowOYaAoZYSehX29fTawFvdr5VcefDxxgiGhK/7UXFcVbecQNAQOkFEsmHRmZETOnhyyZV4ZtDc1PW2j+73PexZZktlP0H8fS8W7WbpgUxCOE1xpEmisZItCZdwL+3Q5b+9oMwVtK18WGFymBGOTMe7dZJjUktNhY5SJxMnFj9FkTDsJ7q/OjlYZ6O+RkcFhC7SvsLwEPcPyOSRYvxVZVIsHMaBbMoR03GRgO3CCMPJO2i792Fbg1/r1tlWrWYWpfOwAqWZIxmNUKKzKvXt35dbtu9amTBlhXRysL2ZyOHPylHRphQUZOow4cFKfVk7p32RIcz6nbN4lVy5elBPK7NRy51j5cmLSxsfgywf4Yq2GqIoiXbC91gj8+dsFzwiNuvh9Q+Migd/UPBoZZZ2Y+S7cxxGe7vjBIX8KDFN3AGpinVojY3p5espQy6Rg+Qh/fu8nyJd03tCmYvlp+aqWlsaT6UpwUdCtmI4JuMFobO3u6rbQrkTT1t5m7Ur4xsvd04l7iD8L50VsDaQ/qRUqJOV0s8HKKj/psuvgmFs+Vg4TufGyHdxkasUklU+3XlDw5VDOsfVv2BnWP2+9HNAOAxaXl+TLL7+WW7duaRko94bjG3AlX7t22SY39aftTGs9ORzIElBN+XOkQRO/s7VVrj99Rc6fPaPKvEFNyjmZmBgPI/zn581k5qNoh2EBpmq9uXbrfglTvyTkYkIMoYUpHXy8B2RTrVAcJ5AmK2rq4/rCRQawDNRmsR5lDDREMQMazee1ssAsDZ62jwOaTQYnF9VGKjvB/92qVgnEMky34pETttpqf0+vdGrcWxhVr0IWOsRqPus9YT8UKpc6+97H9C2HGaQR5T60Y5bbMK0LuxFMZRqGil4gkPBby2JyHQRFxYV9ujCX7z0Y6pnYBC0lKu8L8uEnH8uNG7eCC0x1C54ZLN+hgV55/oUXZGCwL3yX3XG4sF77PmEgZNUIBgZnZHhTo8iAFvozJ0/IlacuWg+zpYVFGR+btPX7UWaAR1gjsprKoUaEsteAVaM/USw+62wluLZGKPW4IawH8YZYCO7acxCHauGowVOHQPJC5jYIUAuN9+rhOG5EGsFpj/FpMChcEA2TYbLdTkXAFX1J4W8BuM1YvwZl1ZCrN1nq7euRkZERJZUBWxGSHjztLWqpaGWGXmLWrVjvTYdy92J9TuZ4Se4S7DbPvXzUCocZxN/HkKW/JV3ZSKdf+hpkx6/zil2oAAYCAqoN9K/8rMcBHGHhT8uBBtU+ejR8w6OJCbnx1VdyQy2Y0fExqWOpD5WvnMraiRMjcubMWTkxPGTr/TSmXGTc7eGg4zDEsQSUE+NMWpvy5iJ75vJlJZsuU2DTk1MyOTktc7PzUlRiYQ1/K9hKKFkgmD5ieK8RamC4S0LSeu3puFkz6e8lDZzsw+R+IQ+w9BhEZtNgaH6gEKggsIYM2/S4k70A8TCC03d73nv+MDVLe3ub9PX0JGus9ElPZ5d0tAZrJcz6vDfF5ahWLnYLK5eqSLFeGEBq9b8EtdpSuQdZy5YvCMfz2xEUfY0HPUZ4HO7dvy8fffap3PrmGxs0TsXUy8XZs+fk/Llz0tfXK81NzaaoNUXsvsOEQyXlQZBWLJn7tab59NUrclYtme6OTllaKsjo2ITcvvfAfPk206wqqKBMykLFbzfD97qQ+7MREEjGcdzIxRHSXmttK2HJV2uLUZIJ58L68e1qNWDBNLfQ4M8U/2EGZrZYFxzbzJKpqnyqVCwcpnj0keaOoFa7ypTooYdba4vGRS0rVXM2AWGRudKWC9arRy9MnhCxW6TJw4GsUGxtZoOkgmZWcLX8VXA9cCIhMOjay7W1kRZCm5pbM2nCeVKwipRuv/zyS3nrzXdkbHLcer2FsrIqjBGj7eXCxYtWEbZ77P/Dh73VsPsM5IlMUFGRVlXiQ0oy50+fklMnTtrxmZkFGXs0LtNzasXY6PFQW7V7E4EFHNM6pNWQ97KWbM/VkHaRIdDHdUZlB75yLJj0/EoARcA8ZWHUe2jwJ72YKZtJMG0Apv7ea0smjXJNV8lMs8zzEPlQVWXKLa3k9i8mxxdugVjZ0UywoIlei1gAsuNEEvIvBODyQsUhLXN+/kljfm5B7ty5I5989pl8/vnnUlhaMZ0BubRqZWt4eEQrz9fk7OnTlib6ZaW/w4ZDRTCMgKZmiScV0IPn3Lkz8tSF87ZGxuLivHVZnp2ZkbmFRZsuwmqqKlimJHSfpQDMR1+1hsuxbCjDlmjleWz1t21Tgd+iShLrxbsqHzekU470QGFb7dEaYMs1SBr6CegIumN293RKEw1seifXMQPxwsKsKgnWjNF7yK+NQg2QL9UAsQCUUajdYskw+7FaLd4hAVcN7k5cFymSY2+7IUKRyafQIqGB7CVomSHN3R2J7EDytUCecN2qZjJhTYOTDu/iTuu4YdK4n0CW0qESqn1Kga8en5qU999/Tz795DP55s5tu4YZtllKnDEvV65cVgvmmowMD5ddy4nlf9hwaLSgik4ijmRgiDZlnobY8+fPyPmzp22GWpvOX62Y0fFJVRwIaujNVTloS5+kCsZqSNuZJiMDlKW5ftS8dYUFsTDOg66rWcvFa2rpcBRBumRri/xm4Fso8GUw6pp15Flrnl5ltINwbbrbMotHuZvMLA4NEJYtk2vP1LzUdMc12a7PoTbIfQxgm5mZk9n5OXteLfiz0y4UqywoyKEV3V/T56MAK79q9+B9tcKRRgXZUBZCJRDSgFQgF+BpQSXAEdxgodGb0ks59utoDMfFtqpywdiqZa1oori9i7yVuxp/YPslshyvajC9pZcQVvS/heWi3Pzmjvz13/5cbt6+ozIXvtkrMJeeuiQvv/yytU0Cvsc8IlV6wx4GHM5YK8g4RKyns1VOnRyR8xfOSV9PlyyrFfNwbFQejI7J/KIqJ3LQxCZYLqEnEJm280Z+vw+hp4aBYAO2nLOxEY3UxgOO4zQxjrSiwF0RXBaVxZgaa0u+ydrSmHoF0AYDwRBwlwEnAq+5uoWR17QmzRmvAkmR9hA/057TI81ICjJKIZ0jxJFQMCtL8zDJL0imFPhtR48W/NsfW1A2cNe1B+BlyMmFGaIdkAJlza8ByAJDsh1UDliUkLxeVFKBXKwCApGpYt9KZc5JZuuofr2RXhIA8UaGCmqFjE2MW9vLb958SyvCj4w8qDBRQaI98tKlS/L8c8+bLAN/jqaK/R02eBocQJSJIQRHiLJHnCRnAsWrly8JSywzDmVuekbu3b0vd+/ds/UVAOSCzDJ2hlHXrGvORHIu4JXv2Ar0YRXdlssBYSk1UurzS2b7MUUgl+CCArZ8spZND9RASacWzUe6CrckvWbofs7cTItKEigJrqV3Ee7QLpupuNumMafX18jQgAwP9lvnD/I3pPvGBbKU87qj1GLusdquiHL+lvJ9O+GooNq3VQspVBB1EqrB84y2OK9MkC+J1Fhg5FG1+5cLSzIxOS6ff/GptWugvOlS3tPTY+tK2eDnVS2Xa/psjV856FPTIXneXkEfGaA7TOxKo/47770v4+PjVi7QV5AiXo9nrj8jly9fkZETJ6zShK2FI5k0OKzY6/TcNwTxCkC+CH6sLd8op4aH5Knz5+SampgMiutRBdSkNVx6BLGwE0vRDg30mRIa1DDU32e13kpTfXfAJUYBsTYYrZmAzZTcUYfV3jRdrEePKu90LTQL1tKhoGGFMNW9zbpMG4iSNekZpsFvNfdBT2+vjXC2Nev1N7MCtLW22TU+B1gWNsNDEtLAFiZeTNtRbhQO0rZRfCP2Cl6yFVpm6bJep/nuIA9QsitmyQQZMuLR7ZqSSH1jTi3VeXk09tCIhVVEab9gAlIsYu+JhQw9rvKIhCFJWEWs6jqjFaWvv7kpb775pnz22WfWDR8QJwh1WOP77W9/W86rDmtvZtn1BvtWKj3mFk7+DhtSOXs44KRCFrqo4HPt7WqTyxcvye9857vyrZdelGtXrhqJDPb3KuGMWBvNOc28CxfO2aSZDGRisaeAvSMZgNAEKybE8LiTDO4Lb0B3KyYLqz1SIVDSZ9lgLBMURLeSSJuSCu0rkA9kwhgVzkMy1m6jVg/n037q8qy8m8NdYrjViqnordWqakfsC7BayDMUrg0zUKBk0x01yBJ+QzJaHbB7mlUhz8zPyIMHD2R+aV761Ip9/VuvyrlzZ9XabQrXauWGZz/OslhMKitUNSG+Dz/8UH7z1pty48YNqwS5lwO5PnfunPzgB9+zwZXQIV0CtLBY3AmHFeUSechAxOtIeP2H64QtqwZeOntGnn/2GXnlhefluaefsW7MWDC+wBM+XpuAUG8KwkYmhrAXwB3mBAOOY/tLuiB7AfGeWtTGPN0rQ7iWThI0+GOl4PoaUMuzt7vH2mjyWhOl/cxda3RlrdNCXFwpmAJx95bVCjVAHCFv1xfSkiWzFmYQYFuKt+6Xwf6hLSZPDObKSoKlZyakj1NmsCJX2RLqg/J1YiHvwtr6IR/JN86RV6t1q+ZioqLx1OWL8r3vfUdeeukl6+zRWB8sFyoehGpysJ8gfksqm1NqXb3z3rvy97/4e5mamggypvDJX5999ll57rnr1mGJGSOgJU0Zq3ARaLPKlpXDAr7jUIO0R2bYtqhFcmK4Xy6cOylXnjql22EZHugxk7NFawyNKmTUJrjWujxDBklmAyeaMuFsnDwusCGEjEdgqD2HGnS43wXquMLTiIGToNSIrsfK0HOqODiHm4u2GBr9URy4xdI1PmB5pMRgHQfUMiq7tjTXNN0blYzcj+/gfbVy1ONSGaeIvQRp66ESmiuJTNAVx+SjruwiA6FMlu+zqXmwclQGisuLKi8t5qV4WSuWVy9fkma1Cih3+jYlr/D3uIH8zU7PyVdqsbzzzrvyzrvv2OS8VH58As6OjjZ58XklmGeuq6y3C2tJEVPiy/10SuI7ntQ37Ba1ytshQDnq3pdEDRMVTjIHAQxXEBAzGvlDR2fMatbxxxTXLNPMA1WFfhNwD3Nm+bgJgGlv7QCJD7lMMps/7yjDuhXjT9Y0c6LwNMcNAkGgV7TOllQa9D9VHozEZiogLBZ+MxW+5W3ym60VQE1fFJNZqEmecozuxcDfxTGsIIc9JwEWFt1Zudavj9g9ymWs3MaFDDDzOCu/1mGZNjbZuLVltUZ8tUcqaWFMDJZoyA/mjOMY5NIAeawy28KiWbNNjTmrRFqt3wQmAJKp5ZrdO/CNaBjeF36xzzQw/+W//Bd57913ZXx8IqkUFWRubsZcec8/+5y89torcunieXONuZYIuirE2Too2d7hw6HWeqZYki9AZSDHbG2foDkNuXhmmUAmWxQRsy0z95GjTAK1k8UUWRIADftuvQDiRG3bp+xPI31v+hlHFZY/SRqgICDitKWRhhGFBnNdJvsOVy5pxV8t7ey+5J0oMH837hXAvX4sfTf7nAsTX6ZeHLEn8HzDTQr5hzyot3xZLCyHsWuj43Ln3l355u49mRifkoXFhYo8ZFsOmkcqRwW6Iuv9+VyDdKulSyee1ryWvaR8u6X8OMCUQzbtkG1FFpVEvvjyK3nrrbfkl7/+ldx/8CBcRwVJZZe2xmvXrsgb33ndVurt6ugoyaTHmm8IOosjh5NkDmycQ3JuFFJQgVt1DeUhOW6mtD3NQ3J3nRKNkov1t1eSKN2SMc13AgqGB3CclZYrCFMyzLeUWB3ZkEa18x7IJ9932G/NW6SGoBVcrf1Wykg2DyAov8LOaQ2XioJPxhmRAj0ttxJqoLi2Ehq8zURVtakWC2nO+Kb5uUV5OPpIvvjiC/nkk8/l008/sWlUZmdm7bowoBJrRa0c3NooXUhG82t2esa6sre3tsrp4RE5f+astLW0lPJ1b8B3eUCG0oGjdCVe1e/T71HyKGi8ODY5NSU///u/l7/52d/Khx9+bEtRNLe2yKqWASq2A3398vprr8mPfu/3pL+vr0QqYRv0VHhnJfb22/YfBzq+6azdMHjupGGMoWdV8JkexqwYk4lwF/u5PJNe4tsPD/Aaz06tC1dimPZYMd5dNqvcjiMYB2Prwmgh9PRw8tkt0iQGwgBM3Cj205CWEb/e8jlVS47YPcgDeg2SpuWKVsgIBs8ya/C9e/fl08+/lDffeU9++/ZbRiz3Hz205YLpdkxjv4Wk4wZuUhTz4vy8zExOyfijUZmamDSr5enLl1RRvyoXzp+VTrq11ysp6buyOUrZJk57nddesu25SYXy9r078tY7b8uv1HL58sYNaVA9wHeRNljJIyeG5Q/+4CfyzLWnpbODmcQhTlfGTi5HA0fpWxJUUE8I1K6QBMjGjoFVE8bGxnISuPCFBkW/butwBUcjXiCYYA3t9HmHFaSDp4UTNW0wkAvbLHZK6CB7L4oEpdbI2hqan9l0L8drfxTOcUc6vUlr2iiZjWF2LiwM+OD+fbl166ZZLJ999ql89dVX5hrDksECqK9rLLmtw+DcoJSX5peVYJZkQZ/DInYMtj198oRcu3xVXnj6upwaHJZm2j5VFrIW7n5CJT3sqBzh/p1bWLBv+9Wv35QPP/5IHjx8ELrQa7xIDxr1Ga3/w+//wIZMtDTkjVzsERpUmu06/epw8JDjCBLMJqBrZAIa5MOAJrynwT/s/ewJGw+DoCBpMNdACGG+M1w0oZtyaGzc8CFHHih8n+aD2ihbTxP2HTTaugXp6V8tpEFOesBl4ooFt2dYjiHc4O/xZ9ggvdTzAtEcv6Kw16C81NMwr4H5v5hF444SClOjfPDB+/Lbt96Rt999Xz765DO1WB7Ikl7T2t4h3b090tbZLk1NLVpmUpYP2aZKe3V5WWaUnBZnJpVA6mww9Y9+9wfy/Te+az3GcItZr8GyOBlcHjzUAl2dSyHztxWsqP6AEqZnZ+TrmzflF7/8lfztz/7Wvj+XbzRLulBcsvF6r6m19d033jCSwQLzaAUNcvQqosegVOknGqmwzWkhCPvW1qJKDfPUkVVgG8GtEqttoDxVwbkiQ2GVxmLovk96Wb6nHI4yXGl7r67QnXh330waYwlV6yxg+aCB9zF6O72+O713wjic9e8PVhD5tGoTcjKn1VqqZ+BxQlmeVbF7SCxPPwcYr+T5yrHCclGtlFkZGx+Tu3fvy42b38inX3wpn3z8qXz2xVeqeO+q9fJIxqcmrGGfsS7NLe3S0t4mTa2t5kZikUByB3WNrDC+ZXV5UXJry9Lf3SwXzp6Sl557Wl68fk2evsKMHUPS29YqeVXcjBWh/G5cKdwNeDDfThqEsqv/62+Ns750Rr/95tc35Wc//4W8+/77cvf+PesNB1FSsWJVyrPnzsnrr33Lxr30dHXZDMoQU6Id9C8VeddZFoBvDxcOZ6y3jZBRqnos41bpEKjKJ4d5So3LCsrOFJ91v0UxJYoLRYVQeTsMv0F2ZuXjAv9+U0KquH0wJOCcKyzfbgbu5zkQAffbMzTtg5Wk2+T5WDCNSvBYM7S3oSirre0OPI7WTqS1agbAcV1oszt+IK34foKRbibdjMApN5q2YHVlTRYWFmVifEJu3bxtriHm3Hrzt2+Z1fL551+oxTIq84vLSiRN0tnVI919IeTbWqwx30hFs8EszIRcFhdmradYsxbXqxfPyPe//Yr84U9/LK+98Kyc7O2WFq0bhpwrwy3T7VQWtwPSIcxIofvJ23HhsUzIu+9/KH/yx38in3/2hcokeiBMeMu3MHXNKy++JG9863W58tRlPVeu2PKkjXF41fSBjXmghHLYCKpmSn/Wy6QUwv8qwRpQ9g1awyFjVTA0Tykg1MTS7hHMZP1/C6E2UFg8G4IB6cJ5HOCKH4Q1Ohq0QLJaJRYCtT+O0T6VymFqbB4ySD8PxUEtlS0hC9Ka/KTHUSkOqfS3+/X3VvMEksmGwwTSKh2odXvAteNWSkV64NbkWu7BZZVrVIswrxUy2kdymo8rMjkxpZbKA7nx1dfywQcfyDvvvysfqILFWrlz575MzczatDttbR3S0dkrPd0a+vulS7f5llZ9Zt7GvTDbOYHa/sLSvMzPz9hsyLShsR79qy8/Lz/50fflu6++LFfPn5We1iZp1vylFOP20igmgf8r4XKzaUj9ZUFJh/wsvTRYOiUyyvXLarnde/hI/utf/jf5u5//nYxNTJqFjbuXtieIZOTEiLzx+rfl93/vhzLQ16txD71b6/T7CZ45wY2HPkJ27QtrhMODwxXbPQYuFGq5CBnwQkZ+7wR+P64xLBgbKKaCtlVldtRBg2/aReYFfLfAeklveSa9yNIVB8dxzov0t7t7Ni3rtq/yCtz9xZZ0hIwWlpdkGjfYxITcuXfPJm/87Ksv5SOtsdMr7IubX8vdB/dkfGbS2ldwe7V3dkpHd5eFMCtDh+Qbm+3ZNoAWFiouS51apQ26zasq723Ny+nBHrl24Yy8otbKt1/7lly7dlWGhgas4wxR809hi3Npv8E7SD+lY0sn+nohyiwN8snHH8vPfvYzeeedd2zmbwjbZG+1aK4wRukzmJIpbEiD44RjRTBl1ab7KiRhUr3ygEibk2oPwPMgF3qPIGj7P4r4YIP0oHCaa8vcC+WGfrCbtijy0ZUh4D10GLAZeal9V8nS/VdHhwfUsGmUd2IB1n5F+mlFCf3Pukr3H47KF1/ekPc/+EjefOddefO99+SjTz+Xr2/dltGJMZldXDBrp6Epb20rre3t0t7VqaHb9vNNLdbugvVqMqDWbHFp2cLK0qKsMkmlXvf0+XPyw++8Jn/ww+/Jj773Hbl66aJ0drRape1JAUvF/lTOtGTbMSyueY33r3/9a/mTP/1T+fKzz60nHF6LNax0tWJ6e3vlpRdelH/37/6dPP300yaT4DhVco6dBZPO2tBWojVdLRjegwlACnQr3CnSbTAgNAoeb7XG93sozzK9tTQu30s67o6s08RWC1kL1t+723c/KXj6pUHah6AkrIQcLL46a1+YU7IYn5wOjfU3bsinX3xu4bMvv5Avv74ht+/ftYWzpudnZb6wZG0nuaZGaWpplZa2NmntaJOW9lZpbm1TYmkqKVYqFriUlpbC9Ep4D7r0mtPDw/Lc09fk5etPy6vPX5MXr11RojkpZwd7pbudHmINGn/u51vsUVWR0EDpb6+gqafWMSP0dauPZYwOsyMzQh+C+eD9D2Rubs4c8kQSXdLZ2m7k8vrrr8szan319fRYjEhrwnHBoflSIrqVsB2E7sShpWa7qKYc0y4aa9/R57N/XBv4HWnlthUFvxsYESTp7dYL22qWzEaw9gcP+ru0r+Ggo1Zcg3JcH7BeaBOh48uyWhYT45Ny8/Yta6xnIORvf/OWLZL1yWdfyJ17D2wZ6rX6MH8YXYtbWtqkvS1MTNrV3SVdarWwhEKTko4+UtNPLZZiQQrLC1JcnJOluRnJrRakXc+fGOqXF68/I//4Jz+W3//R78q3v/W6XDx3xpZlsHJk+RZ6lRFclBCjkijtMlNU5Vf8pcHrIBZWo6Q90XqhatnGcvuP/+mPlWR+o2QzZpVJ5iBkMCn6ZKC/V37yo9+X7333DZu0FYtwVb8ZO4zzQV/R7agcqmbaIUedFv4ky44KatUy6T0WEIRG5OHEpNy+e0/e//BjmV5YDFNTJKTga3hvpVEXwWIteVxiORU01tH++uuv5b333rNBV6Ojo3bNcZi6P5v69KRBMUDkpAG+dNwF/IYMqMn62AewkVXjFkSL1pTb2lqlta3Ffmu1W98buhXjLoPo55aWrcH5/uiYrBTXNG8arTZteYRLqIL0w3ORkF5Vjv29vba8g7k73L1pnT9C/J5kQ3+ovIRKC77+NDzt6ECbTUer6Kj42f1JGpEviwvLZrFQA2fcxsTEhC0zPb8wL3Ozenxx3pSmqQl9b6OmHxO5lmRd9xlLRmcZf08IqjI1v9w9zPQodNXt0sAWBcx6TV2dbUomnVbDb1bCYV4xm49O76FHoD2L700+NTybbfi9EWpL0sYg/TSXbZ9pYOiGrPSi72yQqdkZefO3b8vPfv538pf/7S9lXsmWKW8Y4wJoY3zl5ZfljW9/W773ve/KmTNnVJbaNC3CB5AOIKjdTAwTcslk3aHGEfqUjZGoiQqgaGxSSi0cZLiNk9BCsdXartWWk5DupgxQmChU/w1MOWXCUQfp6mmAQlte1pqsKixXjiHd17tw0iinc7iOe21iyhRJoDS9LYYtbhmUni9ctVUwvgbSS8f7IMLTq1a6kV4gKOTwHaQbi6rRbZa5sSampuTu/eAGY5nhjz75RD7+9BP54gaj6x/I5My05RX3NzY32TrxrDTa0dFljfXtbRraO6WtFWuFChS9uzQfNEq4tVqUMCDq3u52OTk8IJfPnpbnrl2Sb714Xb7zyvPyrVdekOevX5ELp0f0uc0V5ALSg29DJSSQC+Cza3z6nkElzMgFvc+sz1NKJl/ZWJe/k1/88h/k9u3bMrswZ/Gk5xjke+LECXntlVfl+9//HTl76rR0qnVnPcaSfHAZPi44NhZMdoYfxtxPz87LrXv35O33PpBpFZ4VU0hq1qcUf+3aalB6gMLFevLMkErNDgvmm2++kU8//VQ++ugjua+FmGuqNVT6M44Ksl9Dd2S+ETJFAV2+/JQ888wziUJiXYwwNbsXwGqk62nkoko6t2qtsL29NSggxsRk3rxQWJHPVHFiwVBLzzXm7J2EtAUTKhPJvWqldKoC7evulW4bWd6kNedAhOloPUkLJpsWpBnpCDjGeRSipzfKz6aI1++Ymp2zmYtnNbCdmJ6SyclJmVTLBcKGWGm8toqXyioWHK4d5uvLIdf6m1flNE85Dkg/XD9UsKig5XOhYtXX0yt9fd3S09stfb19+rtLuumy3NJky5jjPrPn21PIjlCxC4SSzssqFYSkpg/082uiyp1bAm+38T9mtZCYwfvxd3//a5u88u///hdGzKsryyYLxHtN0+3KlSvyez/4obz+2itmpfOdLB+Qim4GmRgmF1YpAocWR+hTtg+E2XrMaEFk34Rpj+CN/FbIrdAcTzi5ACu0qshwfaAMg3LEktt++mylXpR+Nte7u2YzUNMvKXCTjZ3Fcb8QiKRcE0a+sNSIYyCW4H5kHMbkxKQtJYyVcuOLL62305effyFffXVD7n5z27rZzszPyiKDYBvqpFkrSi24Hzvapa1TLRQlWhrujZiVpElTU8ErBanXdGIdlvaWZhns7ZGzJ4fl6aeekleefUZeevZpeV4rEs9dvSrXnjovF8+cltMjAzKg13W0t0iTlg2tz/M1+jStZOCCLI1BS2NrebaXCJ6MRL40TSfUkvvwk0+tUZ8JLO89fGADcumGbYvb6fbixYvy6ksvy7e/9ZqN2MctBrnYIzYX1SOLY00wFERGelNo3Ie8V+CZ5qe2Np1jncwloPQovDbpZWJBkDb7obyt8qB5YMsxKLJKuRao7dt1KTIKivtgEIwTCCCeTprIG0RjMxgoEWCN2Fxgd+/IJ59+Im+++aatTeLtgvfu3JGpqSkj+yYliFYlks5utTL6eqSzRwPLjDNuRYkmr+eZxoUBkcyggNtsSclLtaw06/v61UphqfKXn3tWfvDd1+Wnv/d78sPf+a5864XrNjhyRC2YdrU6Gy0vSH+cT1iGxD3M31c7AN8+HthS7GzJd/27f++e/PVf/7X8/Od/Jx98+KF+f8EsOlAsahrot9Fb7Hvf/75Z5wP6vY87zgcVx8hFBsqKHrFeWC7K/QePrF//+PSMFiCtVTeErsW+LkhwoVRDOE/yUbuj4blZCyLzC+XVeqEbIw39FGp8te52yMJdHkcFtb4Gxci3UtO7du2atHd0WLqBYNGEOwMZVxKynwuiumoFGpdkR3uHEUk1F9mS5uXNW7flLlO7T8/aMRr629rbrcbpLrKAcC+OkHbNxy5Vtv3dPfaOgOBDd2W+rzXSpDMBqHyNEyWNzmtKnqEzCsDiQunj9qJtZXY2NNgTFhaWrAF/fn7e3GSAdDSrXYmIcSsNzaoslUBoZwhWn1tDod0DsPokFaaWfJN0aBr1KvH0d9BjrMPcYB2anyxbTJsL67PY8uR6K7Hmi1bIQ/02fbIdQXGnoZSeOeJwWaiUCUf2OWlUv2NzaHJahwjGuXx966b8/S//Qf7sz/+r3FayJk1t+n1Nw+Lysjx17oK88Nx1+Uc/+rFNvNnf329tSZY3FTKm37guqjW+KcnXo4BjRjAgZCoEs1RYsTmS3nz7XRmbmg5dEbXgYvZuhWA86azgtbSo4lPTX5UmBDM+Pi43b960muOtW7eMXI6Dq4xUS4tUurBwHIK5cvWqKqauEsFwvHKQa2XByxIM97W20TW2TS2UBlUIgWD8vbwTgrl9557cffjIpu8ANMK2M+hPt7wvxCwtGavSpnkIwQz09BrB0PuH5xH2kmD8m9ZDla/V9PV7NIKmlxPSJQ60kfCd7NPuwewI8/P0ApuVsbFxmZycUNmbsnaWubn50nt4hvWk02/HAqJthulYGpo1QLhco/IZvjVY9DaXW2NoiyGtIefOtnbp6+yW4f4+6e/qNoKBXBobwxDEUm5rGumjSjmJ9bNaH+ICyeAeqyQHKKZawvoTKmXCUfmMSlS/ozpcdgya8LPLS1r5vC9/9/e/kL9Vy+Vv/+4XZsWRfrh5Kcv5hpz83g9/ID/6wQ/NPdbf22PPCevo63+JvID15AJqfBMJd0RwDAkGqLmv/xe0qvJgdEzeevs9eaCEsLC0EuZdQmltg2BCd00thO1twZLR36xoR+P+P/zDP9iaF+7COOog1dIi5YWFY7jGIJirV65orbfXLBGOV5ILqCx4WYIhvVuV0Bl3wTTt1BRpaHbwzoJeek+tUyyY+w8eWq0f5YAy3IhgaJjtam+Vwf4BadMauX8LzyztZ6O7A/BN9u2p54etxssUFJQJmWBFNOoxugPX2zgVeoFZl2Ilk4mJMdvH3cViXnQxpqcYYzYA7jIIAgsE9xltjo1KGuxjtVg7Ida1/m7Wa8kTpr9v0zTo7+u3qU7a20Natym5kN7NBL22icZ/JSFbJ19fZ+lC/PUPsqBHmYMG83RaVyOG6gTjqKGMqzzHUf2O6kjnBWNdPv3iC1s07H/73/9/NsjUrGCzyurVKpyVEydP2uSVv/97P5JvvfKqjXUhXYmN9xrz59VGJJhDiLIQp5E9WlRRKOqXP9Ja31vvvme9jWbnlqVBlY8veASyyqRc80wpJmp6GlBeWDK4EWZmZ+Xhwwfy85//wgjGrjvGBONtLxfOn5erasH09vaphdBi7rH12JxgWlQRdnd2meuxGsGQv1QesGDu3nto3Y+dYKgMONKuNQiGxmfcPCNDSjA2fiGcD1ZEwF4QDPCu2mnUM/W8viCXU5LUbyoWNd1W66WwVJQ53F2L82qZLIbeX5NjNovvwsKcLC0W7LuZjDKv38e3Eqz3nPXaajIyIe3Mys4HywSXLgt10asLuW1p1YArUeUYK7OjrdXyqbWl2cjXFKiRh25rpENtBalWTLK3fWyHLgJ2QjDWMULJhK7If/3zn8mbSjKMDaLiWVwt2nLNjON58cUX5R//9B9Zm8uFM2dL7wrps9Wv3P43HTYcQYJJo5zR2Sx3ghkdn7Bptu89eiRTM4tbJph04UL5ULu0Wh7+53zOfN60w/zi5z+XL7/6UpVJmCIl/bzqZvPhBqmTFqkswZw7e1YuX74ig4ODe0swSfsCwNWjdX8jmHtqwdy5+8CewX3mIlOl6sgSDG4PCGZoeMCu5T7yeicEs9X85R3+TAhGRUnyTTlbN4Uu1jNz8/JQK0L39DvGlVCwWGa1ArMEsag1g8Jvbm6Vk8PD0k3bUUubDUTFmg4WTN7SCxdhSwuBc8Gd297RKh1KpIxxsW61jRppSxJcdRoX3TPi4pCBUeekm1boq2UdyBLMFtNhr1EretWA9YRV+2j0kXz6+RfyH//Tf5K/+uu/Vh0R5AqdwJiXfEOjvPbKK/LjH/9I/tW//CNLQy39liaAT40EU8axJhg89/jnP/joY7mjNd3xidkdEQzAr800GRAMfmtqQhPj4/J3SjD02vHa6nEnmNOnT9tqfidGRkyB0yMHpBV4tuDVIpiujk4jGHz61rVYFQRwghkdn9R8fWjTymPBMKiWKUwaWWUweV+WYGgra23O21TxtDsAaq37QTCkjQfSh66vuLfmVZHNKYHMzE7b4L5ZDYwgn2LgIxNEFsPgx/Zmxpt0q7U1ZOuNnBgesUoOBIrLi8GmuHpJI6wZxng1QBrJOSpFZungPoOIVOzTUa6eI8G1aKRbKx00bhXYJB32C9kyn0U6+svFZWvDevvtd+XP/+K/yscff2yN+rgPScPCcsHcppeeuiA//f0fy8svviQXLpy3dNQctGf4Z0aCKeNYEwwiMT41Ix988ql8c/++ks1MydcNUELVCpHXatNAAXVrYYdg8Em7n5xpvBklXRpQmLrvOBLMyRMntGBeMKLBXcXiXsC73gZUFjwnmAAlAS301QjGQV4wxQcEwyzATAdE47jdl9TcqURYo3bq2SgG4kv7wskTQ9ZLDdiiZftAMIBvo7EeeaH9hFUhpyanZHRsNLSrKLGwzjvxB63NdCbJ27fT0H7h9Cm5cOa0nNH0HOjrt/EXJLlnAXLHLMc02Ds8+sbHSRzZ+Bemo80ldpnflOwcdoLxqHMNSxHQA+/d9z+w7sj/+T//Z8sP4L3qkK9XX35RfueN78pPfvxjOXXylMlPQNj6r0gwZRzpLySbPWRRKkxaGGjwpDfSxiK5PfBchJMasSvZ4wL/XrYUzhBCTR3ygWgeR73G3mlKQIkjJQkbvZtz1FixhnzyUt86II5qoRZob6eDbjqs6CMXC0WZ0ArON7fvykcffyq/ffsdefOtd+S9Dz+Sr2/csiWGp6dmLU74/c+dOSuvvPSi/JOf/kT+zb/8Q/lX/+wP5Uc/+L48d+2qkU1na4v1YKpXwmIQJIHuws0qg0i3B3p7WdB4sfiVLYBVohJzFunWoRZL6ifE4pWrrX7/QUH4uhCAl3bWublz76785V/9lfz9r34pC0sFLbtacdGwoOROBePi+Qvy3W9/R37w/e9Lf0+vph9uQ2wX/lTWwqMSoF22Eo4+jsdXVkFJMFQJ+Wh+c7NoYd6t8uN+nhsaUcOUGI50TRiUFfDRCeG7qmscU+ApgtlqWvtzAfdQ67elfHVbC8EVFCwVx1bfZ3NQVbkWi6NWqAasB9ICS2JhYd66ET94cN+6ruM6xbply28G9D0aH7PaNEou39wqwyMj8vz1Z+W7r39bfvjGG/LdV1+VV597Tp67ckUunTsrw8MDajl3Whd5KjQOI9ck1AJXh35Pxwte1VDpkeW1gnzy2afWHZmVOR8+fFjyYCBzWIRY3PQWe/H55+Xk8Ii0qAXsLFVO8YhqOPbpU6/VscY8XYgZCLg7cvHCzDOYcBFi8dlnHTbALaUsjxuwBnCXGUFoyFoH1RCIC2UZ0g2CWikWrS3CraFqaUpvMdrDskp2ozxG4VJD30wO7DuSUA2u3C2/VWGxwiPtKEwzwroqb7/3nvz6t7+x6fA/+vQTua01aM6TNvRYYn2VwRMn5AVVav/opz+Vf/Mv/oX883/yj5VoXpOnzp+T/u5uVXS0F4Z0qdNIe5z93dnvrgW3SipCcu6owasBpIxWC5TIl+RXv/mN/PGf/pl8detraxNsUbImTak09Pf12RiX/+H/8G/lmWtPWzdt0idiazjimo7P81AJpqpwV0B6/XYK6mYICq8yAAo4CodaNYPlIC1rI0j83zbFul4bHBLlOHmNqlZ4rEivjb9R2DK41oPequkDsTh8BuQdoTR3VQg8KjwuPJ+8DPnKOa9A0Faj56vOexXix9iTAPJW91WJ4+ZiUYAw5b3mrR73wO8wKaRaTBpQTFgrY2qNfP31N/Lhhx/L+x9+IB989KHNVnzz9jcyiqUyNxfahhqbpLmVqVp6pW9gSAaHh2Vw6ISMKMGcOHFKhgcGpaejU5o0HnkVz7zGsVElKKfvgRDLZJJ8DxZbElyuN4KNvckEQI7pE/Q314Swpv958PeW3u/hACJbqmnRunnnjvz5X/ylkvzbcvfu3TB+SKO/vLxossP6+VgurKeP1QK5WHscKeMP3FxdHGuEUn+MQcGACCABKyR2bGdSg98+XYv0NhiCT0kfrinX3N29cpRC+K5yGvox4NZHulsxSN+7V7A80BDytfzsdNyqYcXzSQPuNTog8AyvTLAPoYTjoQhhedBhgVH1jFHB1XJHFdhXN76Szz/7XD7/4gu5ceNrPXZXJsYnrJchxY/16elNx5iTnp4e6dMaM+vRMPvwQHeX9RJjZudW1gNLdHeIi3+X/va/5PfWQBoQaqU5Y1ZSaZYKhxX+NVQtp+Zm5PPPP5O/+qv/Lp9+8qnMJtYjRZ/efKwLxOzI333jDXn22euhZx56gjQmI0hqHridJD+GiASjAmMD0HIU0KTGaqhV8GqDNhwf18FzsF7Cs4OLLNSOEyuHrSowU2abBLN8HlfgfVsJ1e7VEOILWXj8wz7pAqlwrrSAlWJ7SnEbYN4rzU9bDCshgXTcasHs2iTeaQTXZqg0lEfHh/nlcKuMT4zbEg2ffPKxvPPOO/K21orfe/c9+eKrL+XuvbsyOTGtpLKs9zNavlVYU6W/v0+G6F48MmLdjAcGBsJMAygz3qUy2KDxrccNmMQjWNhZ2UwXY87VCtzrAVS7JgT+B351+qzffViQji/7s4tztszxL3/5S/n1m7+1warNbW2Wt+Q9iw2+8MIL8of/5J8oyVxVsumxXnjmiSAk1mEkl81xrAmGj0f50BhMjRQFYkoExWRKyYvZ1mFKDCFNlJGHoLRwD4U2A7tOxd33j1LwdMgeA6FxvljhJgPpa7YKLAyDFnbPu3JILI2UeqFLMsTh0wBxvtLVFTRGmoT8OR44zqJpdEF/oFYK8819+eWX8sXnX1hjPftMbsoU+ZAOE00W9XXIAF2ke7q7bUJEBpoO9A9In1orzPHVnHSf5jrIRdnYyIXp8OkBh5OVfWQyHZ/QPwxspSjz3elQHeEM0hm2/Gbfw2HG/PKCTeFE2xeN+lNTk5rfK9YZhHxnHNFzzz0vL7/8sjx//Tnp1fxq0MonOoK8Ic31v/CwSDCb4lgTjIMxEWb6Krba3dK6nmYC9Uz89DyDQONuvdZy2fKb8xRbCMgtl63An3cYArDv1H1LD/1GFFRImzVVtith4kO+X4/Ty8qvZevPyGKztKoWDzY21kXzFkE3q0RJiRoqurpacxvtZyF/aGfQy7lTn0E82eLem56blbv378lnn38ub737jvzmrTflnffflQ/VemE1yEdjY8nYFTp7hPm9Orq6padvQPqHhmVo5ISF/qERadfjrIfPeyAilFyYXTpEDp+/jdmxX5UgXQmO7O/12F5x93dyl6VlEmoifVE67Dv8y2uF8D8pymDVWzdvy69+9Sv59NPPQkcQKpd6rqgVB9q7/uCnP7XR+qdOnVQrNSFwEgEZqEIudioVIso44gMt0ygLWtgGCVlQoWIswsdffSXvf/yZrOVCl2Vvhqmv0qDtfvcsOjrabRqOfD64xJYLy/Lhhx9arZZpY1BOTFxYdr/4dj1Qtk8GWy0i6bin7wnHESur7SXn+E0DOyPpe3p7rOsnKx0Ct+q8Vr5Rmq+thQGHDJrsaG227rnU/LOwBvkVsQW1Pv/iK5mbnzdyy+eb7XqUfuXgTvJa77MBjavWwI4fnpHujIWg6zBWC1sGQ87MaNDfrF1fLIQ4uWXE8+mJxDtYSyXf1GI14OAuDa41U2ooLAWz81ZA5WZladG6IT9z5aJcvnhR+rs7kpPAr6+WV0aJNVBNqNYX/0xs9IrKJ/pTar/ncaMyxq7SrMLCVmsKVrHTGLMi5V/9zX+3SWgpk8wKYWvq1+dssOrvvPEd+ef/9A9tVoSu9g69t2huUKyXiO3jeBAMX5iss+Gi6ASzVFyRmbkF+fCLz+Xt9z+WVVU6tjqg3rOZssuC2ZRRKj6Sn+k+8MsjyKzREUabp+/NFuUynGC8Nv7YsK0eYmVQ618H2kFWU8/T3yhfSGbkhBbgri6rnUMw1Nw3I5jQnhM6B0AwrU35ZCJGX7elDLMkNRFHx8eV4G9YF+DlYkHfHwhpM4Lp7eszlxb5Nc2qkKOPbOofSGZeCYf8pdcRIC48k7YTCKmVFSH1XpYUyOtxuqrXglvOaawVl2WNtUbOn5ZnLl+WC0o0fV0dwvoqSEywCUFIp8onbJdgtoLHLYTbRWU5yhIMcw4yroiVO//Xf//v5c/+7M+shx/5R37ROaOrtV1+9MPfld8lfP8H5ni0dkUlGHNbIisHPRkOII4PwQAVkDLBcLDOGpynFxbloy+/kHc++FCKqshYeKlMMOH6NALBrC/GKBmA8rGargasGFYXDORSCSeRWjg8GRPSIohSZWF3S9BBQynrkmC9oIhp66Lmj1uo5M7a4MPTBMOUKcz6myUYUyxYE0pUY5MT8uUXN2RyZloWl5f0ntYMwZTzkWnWvThwPz29IBSmwSc/sTRscKeeQwZQPHRL5nmtNmFkmGDSKhl6Drcf13g39WpYTzAaByUYKSzJ5Qvn5foVJZgzp22BLxIzyEzlPdkn1CaYo4qyzLEXnK8OrJd6uX3/nrzz3gfyx//5T+Tv/u7nRiygWFyySVMvX7wk/+O/+z/KKy+9YFPuROwNji3B+KGCKozZhSUlmC/l7Q8+SOYoI2FCg952CAZlQk18cXHBlBONwaZg9Dnp0eSOSlW8HpsR0MFB6MQQUPlV1dKPkdKQgk86aVOzJPdvl2Ba1YJpU9JweJqx1XqnrZnyxVdfy+TEhK1QCMFAALjWeBdXOWwdD80nOg/MqMWDxTI6OqYVhoL1FAvjXEKvQEjFrJZkES8nLbbeYYT1hkB4T3VUIxjBiiosyrVLF+XZa1fljFp73Uy8qRagtQVFgsmgLHPsOcFoqdPfdTYlz9vvvid/+l/+TH7929/KV1rWsXzBilovTL3/xre/Lf/0pz+RC2fPW7tXxN7g+LTB8JVaEl0U/aNZJnlOLY5PvvhS3lQLpkBy6DFQxxKyVVKnGsF4uwoEg8mNUsHnHsZLlHuRpbGZ++vQEEzi0rI0SFyRjqwFA9JkUg07JZh0erHP2igTU1Ny48ZNeTQ2aksoMJX9RgQD+WFNMdnkwwcPzb3JNZAIZAKBYKVgrWC18Czy2a0awHP5Ro/P9glmSeqUZHCPPff0NTk5OCBdrfqNkWBqoCxz7GUJZnxqWv78L/6b/F/+b/9Xs0hxlRq0nCNP/8O//bfyL/7ZP5UL586HZbjDWZPDjfIuYnMcaVmsUHUpOUnrLwQIVwkkYG0vyXFDRlluBTwPZYTSCWNDVsyvj8Lh3HYCfYcORdC4IkjW5Vv30sG7fKeD9YrSexx+fKdAkWfJBdg8YORpA+/DUnJiC+9CuaeDWS96DYHeRZAI41L6+nplaGhIhodHZIQeYLrvSz7Xq1XDe9aoRCTv04clRFAGlYlqIR3vLPDgMc0QsgksbknlJ6IMSqmHNCCX6flZee+D920WhbGxCbVEVySfa9KTa9LV3SEvqfXyzNNX5fTpM0mb26qW2YIRz1q12lHEtrDzUn1IkBa6anSBHrARulqacylF5y4tVzgeNgOKEzeKKwX89lg11HCzzzpKYTtIk8tW4aTgImsj7U1LB1emPZM8Q7lreq/oeRpxUShuXXJtiG9ZEiAd65as94TBoOTXivX0YnwKPd4Yt0JglH1PD+vQd5n1QkXC21d4v5FUEtL7G8HTzuNRJkGVI7V+qajw7TzGnpchroj1IAUJjMhnNuqPP/7Exijhtia9KZuk5VD/gLz6yity+amnpD8ZTEnqpuV5u7IdUYkjTzAAdeIqJS0uCBMBwUKhoCxM+LQQ76ZG7ULpc1OVa6BONCFY47aG44btFtqgYDVPSpYPREFTRegeTN6Z1aiB9hHWVKejxfgka9XPWBsK19N5g55l2f4WPn0Nrk3rHVZUgtFnQSQjarWwvDM9BHGREZfQ0F/9Gzi+U6XEfVi7VEggKN5nHQawihTIUVCBEZtDZaCwbJ08Pv/8C7l3755ZKL5cNp1DzpwK3ZJPqlWqVRI9GvLN5Uxz0n7vJk+PO44FwQDEIy0iCA+qnWPoLNw5dlwFyWqx21T8QQmGUO13RCXcLZYmcv+dTjtPv0AsZYRzTCy5JstLdDWflbFH43Lr9h25eeuWfH3rts0FRiO91VyVWBiLAkIe630sSaznGOfiXY8BhIVip6sxjcHecF8muIBsnLJw11vamvFQC67IeJd3HgiVHjts2PitxxukHuNeilp+xyYmbJjAHSUX2l6wBgGeilMnTsrFixfl3BkWvmsj4Utpv1m+Rmwdx0L7pYkFOHXgzsaVUpIn3C7UTpVgbLQ3F9AOkw47QKXCpIdRCN5OYV2iD0wgPh6qna8WNL2SsBW45bZdCw4FAFEEt5imnForjLifW5yXR4/G5MubN+S9996Xd9//0Ja8vfn1N/Lw4SNZmF+yexmngvIwd5iGpcVCWJp4Zkbm51jfPiw01dbWqeTSrsq9RXINQSkFN6d+7D7APomQ/CaONhiTHmuNDUqMoZjyfro+A0TWQwTpUw6kU1Et0vv3H5UGOVOJsEls14qarvW2bPeVK5fNBdqkcpF2m9K47yFidzgWBONAhFyM2OLOtvU0dL+9o92W8e3q6ja3FuNjcJVQ2Km9etfTnZJMxO7gyt3clw0N5s66d/++Ecmbb74p733wgdy6eUvmFoIVwoh9a7SnkpDAFI9WILBUJqembEliyAXywGJhsklvvMfVFiyWx19EaHtpaQ1dns3FqmKH/tsvgjtKoCzTpprL5eXR6CObxZrZFkg72mTI047OTrl69bKcP3smlOmIfcOxIZiNaIFiy5Tpp0+ckJHBIenr7g1ukaTtBCEM4Vjx8YEDtUxIf2F+XiYmJuTunTu2EuRXX9/Q2uo9mZhmMGQxUTChowUk4434kAttLRAMlsusBqaQYYwL7hPIpa2tzcglEAyW0sYurf0ArrzW1lZpauYbiD/fnpyM2BS2Gqnm90O1XG7e+sbcoIApfXA70lnj/Plz1iPQ13+KZXt/cGxStdqHBheNFt4VkdbmvAxrDfbq5Uvy7DPX5NyZU9Ld1aEXrUhhaUGWlhdUeS2napFQVpa2/Fg26DuohVpYTQU7pQjXpJE209Nh/1GOdzl+tZG9Zr37bH3Y7DvKaVUOVOOXlRwmp6fkq5tfy6eff6bK46ZNAYMrq72z22YqpncX80sB5n1DcZBnEIv1KtNarG8hGgbFWsO+ko8TSeiEURlJ3FjVwk5g97L1kHkO3bhbGF+jJAfo1UZ8tk50FU9PBb6pVjg6IH+ZuYFuyWOjY9amStpRkWC+wJMnh5Vk+q3jRqO5qtUq1iR4HGWsWq5sNxwmHAuC8WLJx1YEFbowepueZPVaqHPS29UmJwb75Kmzp+TSudNy/tRJGezpkXaWp7Uc1oKeTLiYhtV0VQn6mJBK1BKPQDQHGSUFn0Gt41uB1xZRmgSI3pWnt8lYeibHUAy+iNf9+w9kanLKXGQNSiQo4qY8I+o1fxpoY2nQB4fnO6lAIIQFrckuLiwGYtEtjfwrahGx5RiuMhBIKZCM9wCkpxm14r0G7yCe9Ezj23HpNel39XSrzDW3qvKrTK+9B8/cZ636mLGo+Ym8ELBSSTdkifzt1nQ9efKkeSxwe0fsL9brwiMKVFU61Ov/FnCn6AHqvMxO1KqC2N3WIpdOn5bnrjwlzz19Rc4pyfSoQNq4YFUGVgvnOTjH2SbKkJpQaV9DNawqoZRDOLZTRf044YSyG2JxkD7AxrJgQir8GGCffPFeX3NqZbBmPUsNf3Pntiwwp1hrqwwNDqrC6JPmZhaLyhkpUNv3AHEYqej9NPKyjDHuEnqM8Rty4V1GOHoNpMUzeLcvnsZ5tlg4ewlkx9qI9H1MKVQiNyVHGp0He3qls0UJRpOnUa8zV5ldEbERkCbyc2KCOeSmQz6rLHg+9vZ2yalTp6SlNcwbqDlsxyP2B0eaYPi4rQWmw2NRJyUQ36qVktdC3dPRKmdOnZBnLl+VF56+LudOnzE/fWODKghTQkGpIaSmkPSYm9k8ezPUIhlzo1QJaWxH0afJYaOw30inFzCSTqwER7G4qjXPBXn4aEy+vvWN3P7mrszOzOm1Oenq6Zb2rk5p1krAWn0YRW/r7tTTXkE1oV6Jg0XBlGRWyhYJpEEDL1PB4HpiTAShVS2gZlXo5Bnkk11t06dq9/a4zVCZX7y/WiiDuDU2JvHTfd5DexDT3zQ3NGY6L2ocqmRSkOFyOO7AGpyfn1MZwDJksQHa03I2912PEjczMdDGatdqXofSnwSzFmNq7hViCmZgYqX6BUVIDx4U0EBfj5xWkrl44Zy1zZwYHLC1Qtqbm1QJsKag3rVKLXRFimsr1pXUF9riOarq7Nkg6+MNv0M2bEfJPw4y2Aqw5rYC0oEQ9hMFbuQSLD5LM00n2lmwWFgY6tH4uDwcG5OJ6SlZ0uMMfmTFQcan0OUYwgA++t2f68BthgstjGdplTYLbeYe4Tld3V22bWtrt2vd8gFYDMQrTTJ1WySZasjmu1tv9nzrUKDpod+fb1SZa2Kdfq3EKNGkv0kvjdgCiiorC/PBInWQh+QxbTC4yXzAZVoWTR4j9hQ7LzFHHLlkoksEkG0zfvHOLhuY9dwzT8v1q1dscryerg5pYdU7VRZMC7OstaeCjcaGaMpusPR4D57noRqcaEKoT0Ll8YOArZJLNaBY6Y7rk4Hym3YRyISliO8/eiATE+OkoDS1qMLtbJfm1hbJNeXNaoGQSIcVJXQWjMItQnsLShsialcrs6enx5YmJgwzl9jIiAwPD9tiYuwzSp+eRCMjwzZanwkwnbQAcQqWD73Skm7qewhXbgz8884PTODZ0dkmbe2t9k6Q4c2ITWAWzMKCWaMA4rA8VFmDtBljRF4elHJ0lBEJpgoQvqBcmJ9MA64VFdJ8rl7aWvK2+NNg/4CcUcV0+fxFuXj+nJw9ddq6PzJ/VaNaNkywiF/dA8ok9ForE01ArSzgePrcwcqqnZILLiEbV6RpSppACsxyjMUCueA3x4JhGQWsG8jCuozrPSiKYGXQ5bhoAVKHcFAaXOuWCot92TgSVSjUXP05vva9B59ZmWuClVX+MLdinGToFLKX4H3+PbZSZ92qtLc2SycL16mF1sAKY3ZdiBOv3+MoHEm4XLk1mgb5iMXo1opb1ZrTto3YW0SCqQmUC8QSatisEUE5R7EysLqrPa813z555to5efH6dbn+9DU5f/qUDPR2S0dbq+Qb9XpVgAS6OtcRtLZNUPUYghGO90hzQgkhTU7lwHVlWK+jTNgNeB6x8+CEmA1gs9qfW1oevF2C9pIGVZ6k7bKSw/zCkkxNzthI/NHRcdv3tVdwXdm6MUoeKA0a5W0ALMTCfuICMVeYXsfMxx1K8LjAIBlcWvT+WqVjBu4oDW452m+2qrGtNqvPp7G9qNey7z23cK2Yi0wD4FxFyHxjFnassiElxIEdFCAEU1zWUFCJK6jl1aTxV0tKX0e80nDpiNgYYbLTcsuKlz8VXstXn77H8/AwokIGd/kdu71/I0R53RAkejnhUTGlMq9bKpgkYFO+Xq2adjl/9rQ8r0Tz4tNPy/UrV2xFwhPDg9LdqVZNE0oSBUnX2DAdeFrpmLJLBZ6LEtSSYltTjuHSTeFKc6dIC+1GwpdWrgQsDg+8P9T8cUdoyq2FxvcFCGVqSsbGxmRsdFQmxidsjXtcXBR+JngME4Qm84wpiUAq1Eb5zXOxPGijYNYF2lAgFB83YqSi10HIm4HnZa/jGC4WgsP892oJ8W6Ul4ctIZXHWdj3aMBCptKSV/Id6OuV/t6eik4FZkklP7f41mMNrFbkg8G2pDGAcEq9BReXTEboRcp5v+awgXgjv7uNfzGpVO0HtqqzjiE8wdGcARRyTzC2BM7mcyLtLTkZ6m6Ts0N9NnYGawbCOXfyhJHMoCqO7u5O6x6ZV7KpR6PYA1RlrKoCpaadCtYIjABpSGd+moQ2gxNNtbBdpOOQtmSqPZNp9AnoYIQXklhaWrYuo4xLgGDGpyaDO2x+ztpeGKFvI/BxhWlCWxtW4gZjHxdZTi0ZrBUIBouF0e5MRmmLfulxc30k8UChAAjHrZFq8O/yb6DAQi7p72U2Yx/ZD9LnQPb7s3DrLQvLfn0UVq2Pwxro65ROrax4lO3ZtaMfUQXkVXvSccOBDLE8Mu5YW/5a5S0NLWXJ3sYg79PhIMDjkY3bRiGN7O+9RBRdBYZ0mTLSobbSyIIr/S66MGO1nB4etvaZp69ekReff1ZefPa6PH3lKTl1YtjONzXSkUAVGjV0tWo8rCnhEOhVBA8RGlQTYUGlx9rkzFIICtTDXoD2ERQ9k0nSloT4Ud9jCg6bqRbiQH/bNVpL1OtJQyaeZIXQZSWF+cVFmVbLZHJ6RsYmpmRULZWx8ckwhf7MrE1AWSjoXWrdmIWTpB7PZw0XJqKc12vwbORyTdLR0SWdHd3S1tYhrc1hIkrmG8s1oET25rshgaK+kBUPtV5o1gK/2Zo1pmmB8qLNh2t3VizLcQ2ExfQ3RXOp9nR2qEXWLm204dV4eEilyrB1IKXZsP2nHHSQR61tYWlsehsCPAa011GpYfJLrBlTtlaRC5WRElQGqwWuCgMZkqCHQ+/HoLSDG3tvgj6x4q8a0AHBS7D9/EuTChb6fqHhf1Ik+8cWQYGGoDKzITKiWAHPZmZtDZ0CGrRmrcLeojVulvfV0NbWorWrFulsa5MuDR2tHVobb5a2ljbbNtksuqHNh8Ga+k+hb9VCYDM9o/DQuqaBOFkmHA8uPOyXoLsc92MV5xL4/X6OcgWCMqVQUYiCuNv8XhqfZUbKq4ViAxgXF2RuYV6tEt2qZTI7q/uzc6UBjgVVpLSvYJlYhHiOFiYsHAZFcm5Jr1tSi4b2FX7j9mrON1mNNHTnVSJNXHBpVP6qRK1z2Wf495JOuFmwqCw97J1KfliXKIBMOmafU4amVAVTcJ0Gm6maCoPeq9esrRSkr6dbzpwcsTFXXW2ddmW9RohH13x8TaTfmca2H3QokP3aouXRqnz22Sfy1VdfhjzTMkO+Mt9ct4Zz585LlxI6eZejnTWpnIWenTXSKXs49Zvd2nJQRq2cyWKjZ6n02Pl02A326jnVEAlGkc509j1US+5KAYFuyndwfbjH94OfF0WCtdHS2CSdLe0y0NUjA/19MsR4GlUs3Vo77+7qVLJpkeamnDQpMZl1Qs1KLRmsHLNqtGZdXFk2xW5vspchGEERAgpRqJGxLQfIoZoApYXLA9cDc4XpfarVtZamtTU9zjobFpQs5pcgEghlTq2VGZmZnZXpGd2qhcLASNpWZufmZFFri3TdDqkU0san6Qh+cchp0ciIZy0thqldVpVgmAaGnl8ESBd9zf0Wx/DAclLUQK1zfGsaEAyP04dbLdgb9/06S0cLmiq8X+FpVh0eOd0m09eE2BCUYGjE0+eQt6dPDMql82dloK9bmlVOuIbTOxubEeK2Hjt51sHHuq9VOck3NdlM259//rnNO0flgPwkr6g8XH/6aRkY7JfGhsYMuYCQTkkW6z1hy2H2SyGVnr7n8lArePvkZqEasLb4WM5mr3F53A78Hqu06fOyz6gVj+1AK1I7iNkRQy2rpJrhWb42e1eoNaHcfSyFiorKQ1Dw9hvh0adyDMdLQU32YkG3WqEvrtBLijYHNeWTLUqWENowkn0tLExJP6FKfIkeVcVg0VBL4/lmMlcxeYlBVlm5ANkqj0mtj9Hv1sitz6QmCJmgVG0AqZ7z2iAcZ+NO9Jg9Q68JIXx/XhV0Uz50Cfb4YJXwToiCBljaZJgF2dZjUasH1Gsp5xraUHheb0+PDYzrViI2l10S5/WozK2tiHXtZ4nGu9HiTuCb7Lv1W1FWC5CffnY6Xw2QSEWjfrLPMT0XFBjxxBWoNerislpJddLZmpMXr1+T69efkq7WVk27Zr1mTRrXyuQWnlVNIqshHYc0tnr/4UL6a0nigqYt1u9/+P/+R/mzP/vfbE2YWa285JM565gq5v/8P/6f5NVXX5WTI8N2H51ogsdA0zsxZclerHfA4VJWJOBdMzPTMj83Hw5sA/7c7QD5ceud4AvZ7RR4BHAhNrcgbwE2+DfRE1SMd4tIMIrtFMfytZV3QRqrq/QOwz0WFAN/TjpuZdgxE81gEQhKJCGkLJYLK0YuTDPus/4uasGZUYG+Pzoms/PJPFu4n/Q6iAAgeOwTF+8sgJ84DY8TRAfB0OgJqaBIK/b1XrZ+T0lckho55AGp5ZUwfMoTxnAwDqWjvUPa2lrNWiHuk5NTWvDpsbIqDVpLp9DfunXTuihPzUxaujH/GK4pCIZCj0uD6WG6e3vtXNpaq0Rlbm1FrDcqnHAi1hOdCIA/j/jzLVQO0u+w/RTBBM+YXmOvCMeY8wFYPilDr64sSUdbi5w5eUKee+YpuXLxkkqHWqz6R+Fmnt8Al7WtEkSlbJax1fsPF7Jfa5Uild+/+Zu/kb/4b/9N/u4Xf29d4OkYQt7hIvvn/+yfyfe//zvy8ssvB2+Byhu9+SzfyMckqbDcAaKSFheysKj/MTfewwePdkQYOwFlpAnrWgNlzY5tIMeVKKcU32q9MTvabAC5k0okmH3Adopj+dr1d0EyaUAmfoxkzio0jtE4HgRkfWay2qYpdScJLQRsGT+ysFyQ6YVFW4mRWWPNClCLgLVSGKhYNHIKMwlTm6PmDZx4eJZZPlglyTFgY3+SeBoharDGbYIPWqTmo4QCeVBoaUxta2uW9lYGNzZKa3OLtLfrcca70JFBn8ECX6ww+WhsXKanZqUh3yjLS0UZm5i0SSxZ3tgaGxknowXH4qPfbVO6KMH09PcFC0YP7zfBhHvDVEHeUMy3g9LszJCwkgTP4Pow75mSXyIX1DaD0oFkgnXpE6CuQrKrRS3kYjXoF59/Tk6fHJT+zh6VFghGFYD+v77aUU0iq2E7En34kf3aUOZWzUX2y1//Rv7Xf/8f5MbNb0yhUmFrzOXluevPyu///u/Kv/7XfyQtKq8oU7UrKwgGz9lKIkZZUWGOswW1QN9573355Muvwj1bQGIc1USomFQH8mblS8sd38J0N6VyqxvafbNAvzj4PoDrnaLW0dYug4P9NkjcjlsIzyANI8HsEXZWHCuTTdVIsrceQeBrYWuCmQb9y+ittbiitWnrbTVnVgyKj/YM9pkwkgb4YAHRdgOZMFdacPW4hcI+JGa1ampydTkjEyaF1P+lUfexQKg1pQmGfYSc3/l8Tlqo7TfrObVimA2YghB6uQWLbW5uQe5pTe+bb+7IN7fvWvwLWkixBG7fuye39disfkdB48X7IRfuDQTTI919PUYwoHoh3H461oITDERH92e+sanJeyNpnLFiNEDcpKEXISxBvtZcGRpQJkx4qamuhV+/h2N6LYNvKbwjA/1y8dxZefb607YufDMEynv1/xCy2Oo3Hl+CQYlafqj8MNXQJ599If/z//L/kHff/8AqXuQRFZmerm759re/pQTzr204wUBfnxmfVkFQsnAiMKM0pWd5NL8hmDktb79+9z356PMvVcL3Lm2ryTffROcYyhVlIsw+0WgucoDVEVywlVhPMEqiGujp2trSLCNDAyqDF0zegMscV+7FF0WCyaBSWPcGe5nE1IpVVSWiEkA8EQ9+8ybb6g7tOubmSoglEE1w49lYG4QWBakPxZoBmOCMnPcxJdSSaE/BpEbhUkvS3fC+1GdR6EyxsrUjxJIaIHEI76Jr86daGD/8+BPrYcbvfFOLTRFz/+Goks8tmZ6dVfIKRILQ4xrrYFJKDRqZUiHi2ZW1xr3KLYcWTf0Y3HKkQZOSDMRHmoBFulL7OjJKkhAycYOo2Vo8jVz49mLiDmVEuV1kPQqff/YZuXLpopw+dcoKNi7WvL4D64X02/iL9vp7DzO8JASYzKvMNdbn5N7oqPzP//f/RX7281+oBX1TZYt8DC5b1uX/8Y9/JN/77nfluuYFeeaK1ipgmgd09nCZ9jk3uIKpjOaXC/L2+x/Lp2rBqL0bTu4RKnM3kGaxCME0GcHYwGKVydDhh3K3nmCCBZ0GdIOVFoY/UHEaVgvm4rlz9t1c7u8lRfdCwmIvsgzSebQufw4AQs3KDdlyHD3eCAWBQkEDstXCVUnSZbpJrYtmFSqCWRxaK2/DvdXSpAEXV6uGFjtOd2lcXGyb1EJhlHlOaz36SAu814K+mK29UwNAgF0Ro6Rph7J9yEuVNV2O1WYykqO9B4XAYMY6uk3pg2hXKqoCYNaDluYmacIN19LCB9n38+Tw9PB/QHp/L5B2aYb0pubbWCLaxJWoiYGFapZMwrjW+08Vgh7VY4xr0n39FhxoWCknhgatveW8FuzB/j7Nj8Ywzkmfy9PsGck7a2Ovv/cwI11qA8g7jhaV/LHkp6dnrbGfGRis15TmG7L36NEDayvs0QoMssaU/sH61PS33mUhnZF5fwtHqEhgfWOVM8ZrLy0YYFaMB/3PKoVWTsKs0Gz5Dq8oOtK3lY86wlG1KvQb6MXYoN/eJr3d3SabfJdLFVf6/m4QCSaDdKbsRQLvNUzBJlqW+BGQL7bs+Iqa1IgJLKYWglojqhSpITcRVNExQzSrJ0IkIfAbEtAAoeiDIKa8CrJ1mVWpd3JBqE0J2nGOacFNBBdQwP2PQ0S5UWuOeUitrc0OhLXTcR8xgFHfo+Y/7rgVVQj2TRogPXq5NLU224f4cf1nz0iTwF4B4vDHMu6Ht/FOXIakY/g2SEaLpe3rFbgadWtpxBGtTtJfkLxo1J9NDXnpbGuRAbXILpw5JxcvnpMRrT126veRZzjHrJArOYUOGOF3bWx07rjBpKEEyxMNppT1VFNTs8wtzMlXN25IQa0OKi60wywvL1kvRqwB2hI7uzvVsmyVepVFf0Z4XiXBACeYu/cf7h/BlADBaIUsRTDejd48EHoFMQ2SWEZlqgCOlAmGZ0SCeczwRN6LxN0PoKiJXDqeoXtlWfk7rEaNRk4FKyy6m76XokFA8NhiLvszEUS2CLg+oBQgOdWv9s4QwvUoYPvN8/Q6noAittoW92itkC7KrWopdXZ0WK2RTgQ83wacdrJeR5daVMHH3KpKubFZA20gSnpGKvpswJ4rgfA1e4PwTL4z/E/BXtXaLoNcrYddsWgWmH2bxomCzkhxrDB82znd5jWqed2H0PnGE8NDcvHsebl65Sk5e/q0DPX3KpnnbbXKsExaAARDYbcCX/q2ati77z38CHmVBYuHMStFm1oo1PTnmVliYlIePXwoTcyWoElIT82JyQl5OPpIrcl+6VJl29rejhBYWSNwXfYNEMyyygIWzNjEPhBMsjUY22DBBFLATeYEg2zaJRrJdfKS+ckzrDwTWz0XCeaIYGNFsT0g8GkEsQhb3y+hSrkzQfTtZvHS01yTNsEd5j0wYbXLzFqqVuMOV3AN79Nf+rwg3KFdg8ZzZj7uUGLp7++TgYF+GRkZMYU8oqGrs1tyzY02/Yy1b6jCsPJWeqa/c/27d4rwTGq/5e+GUEhPpRlZURKg5sg4IWvfKi5bN3Fmcj4x0CenTw7L6RPDMjwwKCeHhvRbRuTMCdae0WP9A9LR0SoteVUQmhAkY+UXhDQC5W+rho3OHTdUEXQFsocrjE4pzP3XrkQzPT0l4+OTVj1gnjumKqK35dz8bMhPrSjQxZ52wFLHDg1khdXXkn1b+0kJhrbDx00wNvdeI5PC5vTwBvKS+RlSJIRKgukpyaHfYt8ZdneF2Mh/yEB9ZSNR3iw78S1vtSigVLFqNsLGSpBnrH9btSfSiZrjPu4AaLmXL7760rqBfvD5Z1JQxZ5vYOBjeALr15ffv7cFPKR0GVaTrZEUa2rRFJYX5fLFS/LM05flglooPR0twVLkviSKHsP0c3A9VqLyvbWx1997mJFNs5A21VLy3/+H/yh//Cd/Ip9/EQZf0r4XuvEXrQfkSy+9JP/iX/xL64Bx7ty55C59llYkfMQ/FQN6Es4vLctb730kn964oe/a40b+tKzVBbcppAa5sCyFdZ/XCpo38oOsfGYro6RIcGWvmoeCxe1CL7LzVkHkcpeqzfTMVhGl9NCBrN95CF0Vt4bdCgdv4hkewpEgyNnAed+WAwTHiVAo0gXIOw7sHypjAtxlkg4BIS7EMae7DRRg3VJTbNA4eyD+/g0oENpo1iP73lohooxyuriEZ6XD5f75F56TP/zDP5Snn37alsy2XoCaj0wts6bWzFdffy3/n//4H+S//uV/szEuk9OzEkRNn68ZToWGbGe8GB3JraOHvbs2LK+3GTZC+jqXqXTZ2B72V5b29+kR+4Js4TmIqB3H6mdCgzjmewZGLsl+gkAuj19004U5W6ghFwODKRRrm2iJ1c3OJ9uIvcSqnD97Vl5//VvyrVdfsW7KWAIN9WEQLRbK+MS4vPXWW/Kzn/9cfv7zX8inn34i9x89DES0qrKYCChEU21gY0QlIsEcUqCAqobdyDw6Lx0S0FhaM6gIVQsbododZron5/iE8Bl8UQDK3Gps9sufH+54HAhkwliXcnCUiMbIpUpwNkoHzujHVLnaQsTuEVK5DHKMMTBD/X3yk5/8RH78+z+W8xcuCUs/zC8s6skwSWauKW+zAPzJf/5T+eM//VP55S9/ZTNR4Bbz4oWblm7MuypvxwCPp3RGPFZsW+gpidnSWMJORaT6fRs/zYkmqFj0MKSSrezb74pBlo8DkEplfNL7lYgU8aTh2ZLNHiZapUvyqRMn5YUXXjCSeea5Z6W3v9/O0xZDj0cG0T4YfSTvvveu/O3f/q38+Z//ubz77jty7/6oLC4xn573rIzYCJFgIlSTJ9t12K14hPtDYdxiPxslDr8+De5NKv6GSsV+AMQ4cY2BNa3Z2lYVkH+Hk1FtUtocvCGGjcNmoJNLIJkmuXr5svzRH/1z+cHvfFcuXThnbi9cYWytp1Z9g9z46oZNmvn//H//v+Sv/vqv5dMvPpOJxJqx2RkUvJf55sqB30lQGWBOgGohyMf6YECekpA+tsad9ashcN6eA+Exz0D4XRmeLGI35UMGRpZsBbU4I/S6qnLWD6dDgnJj9nqEJs/1MEIIuyr8CcFs4LMOXxWavUOoswI8Njkpo2PjMjo+bt00rZuyB/uWxwfe5oojQGOqhZwpXla15tvb22vuFxsVTqPxCt1BQ1fZbEz9WbXSD2TPbC3nI7KwtLa/8MvTEbJpyNVJT1ennDgxYuOYlpVgRh+OSWFJ81Tlj+70DBBmRgCI5eatb/T8qMzOLUhjS7NaOeMyNTOTyazyDyjBZcaDn/VtFibX6dqUPsOWd6CbcmOYYp9uylhaWrDsPFhXHuxn+li6m7ISbY6R/O3JOJhwpV/NEzNP2xEiwRwybEYwKCz+wsDH9cGv2irCPXpvjb9aSAtoqRafEEzWOgHU+u2JegmzSLPDhjEGYyy3rFuO12thN5LB/13lOfuJijJv4IDmiA3ALBjBDA4MSm9Xt7Tk8xpHja/+re+KHGCHS3myHtkz/N5J2CyV0srlqATg++XvC+rVQRlhMldWEx0cGlSCyWllQWRmdkaYzLKwXJRcQyPCaZNKjmsl5+6de7qdsgXy1lTBs8AeI/pTj1XLQt+jvy2Q+uHl5aBWeig9FQc1BFiZqxA2Rl/pFRCeTd1UHmiJ7DnK5TuB/UwfiwQTsQlcMDf7K4tLtbA9cEda3DcDhcrm39IbKUrWJmTkEvqJUXNcF/QsHT85z9qXNg+U3oP1AsGYBYNFUM94A1pq0t+BK8CK4LaDT2+zeUi/DyTuB1UEVsjXVm1xNGbl7e7skOaWJo2+foN+m/6ruJv0cAW0/rllZM/s/Cs3R7V7DnNIIxzznFwP0pWJI/u1cjA0MiLDQyfMVTY2PmZbJr5EFskviGdsYlzu3b8vN7+5pVyhSrqnS/PUpN7+whxmAVgw5CPHrJLnXZvXBWTFLgyyYX8h7ki77acJRreBYBI5VBxEgimnRETEHqBUKDDfVURD/SqIrp9zMV9JBQiDaznv0zUztYwHR8kfraBwWUh819sNLDJV7Xj1EBZKWxe8gFMrTQo41ph9Z/js8I1s9TzBv92/uVZg8KmHZQ142XcSeFZRI1Qt2LljFPhecozg6azJoPlUJ11dHXLx4kV59fXX5Pd/+hP56R/8gTzz7HVbi8jykkpSw5osFRdlcnrCFhubVmsniCf5z8zLagXpbw+UAyMXqz4Fty4VKpOVOpVznpkORwxxJH/EllBW69WRFSLohQLt9/l5ttUkjkKaLl7ct6QP+PSzT22K/y+/+jr08Mk1aqFtDAU45R7YDnbayF4dkExRVpYLcvHCObl29ZpcPHtarZh2O8uEoVtVG6U0SnaUv0rwY3z3dlFO7+ofvq7me8RR7XNN/lLH5xeLcu/ePfnf//zP5de/+pV8+OGH5pKl5s+Wma9ZlfVb3/2uPPfCSyoF5bq6WSgpuLfLV4qkMlIBa6wHusXdprAZuRPUaeWGd7IsBBO/MvszW9piaPtzpC0n4MRXRtJLU59dHsk/ZGsS7ddI/kgwEVtCWdzXIy1AXLe4vCxTU1MyPTNnq2wGQVeB1UKJuJnIpQqZK00UnRdCnklZe/BwVO4/eiCPHo7ZffW5MOklVkJYRVKhBZRpY3aCrZJNdcVOYdW4rq1YQR/o65eh4QHz6bc2sc65xo+eP9kilsS1umKvN7cMi8gxNUgZIe2qYrNvrxaHBLQT7T2qxSf9LdvFdvO29rvSae5yCdLpwzXkN4v13b59W2589ZVWdD6z31xnyyogfxrOqsUzcvIsklC6l2vScsXv6nmdICEYSIVJYFubWjYkmC4IJpkqphgJJuIoYCvqwQVpcnZWvr51Wx6OjlnPGwBxUDCBNc6nlGIoCEkhSwgGdwJNmwvzqmyXFnW7aAWoriGnt4aiUBbdnRWH7VgyoUto+R2lkfsg6eHTqoW+pbXJ1tppwHRRWA+zCqKoRFnxlJ89txD8/8z0u3nx3Np3Q4LVsKHi2xE2ik/tdKiNrX3femz9XV55YKQ+6UGglxZtHGB6etqsGQiG2bRZhI5rmByzrbNLWtrUWs2Q/Gb5ViF7TjD6TCon3R2dkWAijhe2WlwRpoeTE/Lp5zfk1t178ujRIyus6xVZWXxDAV//BmvLUMVNG0yoNeqF1sgfwH20gxi2acFst+K+Vl8ZP7/fLRh+22qfGoinEyW9y5i1txrWp0n4ZghmdGxC5haXSuMyQLXrt4paxXznz9yJ+tmqFKWxUzW3/XdBMFRemOI/neYW9Lgtf5EB6YolsxGy91W7mvoIvdgG+3psduMswQBm8GaqfgioTDBUQsK1kWAiDi22U1wfTE7JR59/IV9/EwiGgsC6KdUK6Dpobc4IJ0UYTKlO4bNCnhH7UMDZ2Xpx2EnBCRZMgNc+A8ngnkunTnmfeFHrZFhdLWT99bhaZpVYRiemZVattsUFtdwSsspeux2Y1VgF9aZatovdqJ7tSBJ4PO8KlRXSSHNAZdUBuUA42WMO8hfFvx1r2JG+h34tdJlmHFWWYJjZAhLhPRBLpQVTW7YiwUQcOSCYD6dm5JMvvpKbt+/Lo1EsmLDEaxrrin5KgTusgKSIw2qSyT5AcIP47rwo1LJkQuHMohzHkgUTNhVIf0nW8skiraz4VhTdnJLK+OS0WTAQDIBkdkYGATUJJv3+bWEnab5xWlTHTvN2e+8qE4y+MXHlAtIdEimmpsUHtRryQXXZqQT54W5WiAYCY7E6JxiPvz1XywY9Hg8jwezFMyIi1gFznZUq6+saNZS7aJaCFtyKwDV020x13Uxf/+SxXmFVKzxcRcH2YASZCpYO6ZB8N4ExFWFfrTWUXRHFsmaBfZZlVs1kwXzyWwwoJpRntcC5avdsHlZqhGrXEjY6t1HYyX3bv8eWvE7Sl62nO+RCOu0leJ9tVT48AOQl/RsEkqg8dpgQCSZif+BKNY1qxxJQ5ErFuMZ1phRRABoqsV75Py7UsoCyiqIMvisV9Dtxi4UFq8Ix/04bVq61zdKYG44nwRUgIX38yQfaBELnhMpj6d/bDdu5fzfvKqexEw+EQx5nXWB+3kP6Odlz6aCxq6yA8KyasnL4gURHROw5zGeshamoBb6Y7JeCFrQ1LVEVQUsbU8GEsGIhHA+F9nEDpZIOW4KRYmXQz6kI/m0ebE11rSVbW00Sgrewsmhi1dRG9r0Ru0NleiKbbNNLNWRDxT38rhWqoFr7jYr+kUD1L46I2CVoFA8zvKaB5qxubez/CpV7D2LMCP1qX2V+9SqKoxbcjvECiVswzAjAkfXFFAXkIWJvkO6FlbZI9hK1Ki7ISrYXWDWk41TeBgv3IGLzL4qI2CGCAtRaOWRjQQtDDYXIvF3ZkEW67eZJw7+l1vc4qn2XhwYtfusVjiuKMuVY0OvTIRRdDxsj3ZZVLURUplE1pM9vFugAsJXQ4C1xus994T2an0n7I12my8+tzOc0uRxkbC6dERE7RnXh30wpVyrPTKhwN6TDfiP7vnLA0mDr1kSWNGoFh1s7VotNjodnpd6T/m779r0Gz9zLkEa189sNW0W1e7cbdgeyrmZI8piQfVtaJiqhV6XyPl3xKD+lVniyePIxiIg4AticNCMidofDKGORYCIiIiIi9gWRYCIiIiIOCQ6bFRMJJuJAIO2b3igcbFCcthIiImq1UB4tRGmPOLQ4+IQTEbExjjrJRIKJiIiIiNgXRIKJOGRwN9PeiC4+7XIIXY6rhcr3Vg+Vz9o4REQcB1AyIiIOCXYrrk4GTxqBjCIijjoiwUQcAlQnhp0r6YNANBu/fzvTzEREHFQ86VIWcVQRZmxMthrYJiE0zifHMyE9pUwI1YmF6xw+J9emgWsrQuWo6PXntxuyz6sVApwg03H0Y6BB96vdbUHT8PAE4rvbUO2568NhRjrvjwrigmMRewqU5wRr8t++I/dHx2RqasrWMK9nyb4EzD5bMVHfKrMuizycGLPlgldXVDBtbqZKckEBA841yJrNScZkkEyDfiCw1SlcUuSYVYqqSmVxeUmmZudkeakgy8uF5ExASJfNUH7+1rGfdc2dxCeLrcXPZeTgIp0W5f1cfb3kcvUy2N8nPV1deiSQKqBCRjlh0bPWpmbp6CgvOLa6yZr8a8zW7bDKHRK2qu9rWLfgGGDrd+yFRESCidhTIJzLKwUjimVbj37FJvZz2IJaVmDWZKVYnrJ+amFB/uYXfy+ffXVTlgvcUy8Nyfr7TO/PtP8UGO6lIDZqAck1NupZCIbnb1QcsoU6e236/G6w1SJZjkNdhpT4lJWVVSkwdb+mS7Z4RoLZGEeZYFa1vEAse0Ew9frX0qIEM6gEc+FcqLDZXxl7IRGRYCL2FIgzinEVM2QDGMFwnSpSCs+01tb/+y9+Ke989KncuXffzjfWN5pC1StkWa9hLRmg5VDyuUZpzOXUMmoKRLSZ9WBWgwa21a5NWRU7xnYsGLtWQ3KPF0Nzk6WK5M6K5/a+pZq1uLfYg7TdYvwOK8E02JLJZYLBLQiCO5mtWjCRYCIiNleKfj593ZwWlLc++Eh++76GN9+WgloxuXyzucGwYAqrRXOFESCYxoacEUxjrkUaGpv0CZsVBy1oe0Eie4lqJJPE8XEqyq1ZRbvBXqT7Zvl7WJBOi/L+RgTDl5uLLCGYijX5Vw42wRyVXIs4YEBp1Qr19SreGhoaGkqhqalJzp0+K1cvXpDhoSFpbWu2ArHKmhha8BoaG6VBCSXP9fWs9R+KQljYTK0hLSC1A3+65boDE5Q4M/GEVDxERBwFRIKJ2HNAItsFrSlDfT1y9sQpOTMyYm6AIssKq+JlAaaGhJSopfnzIZZALnQU2CBore3AhlT8Ip4cXJbSIWL3iAQTseeoVlg9VAPHUa+5hjrp7e6USxfO2nZpeUGKxSVrq6nAanCVlRvBsXQ2CCnLYH9D/TaCXq/Fb90z7GsebyAF9zXod+06VHvuJuEgIvtdRx2RYCIOBOhwTBfJ7vY2eeriBTlz8oR0d3Ra9+a14rJqwrV1XXpxNeGDLhSKagmsmXWD+yzriy6r0oOL9XEuI73M7n6E44R0ZaciJNZuGtlr9gPrScbl4Gio5kgwEXuOdHtLNlSDH0cY25pycvHMSTl/9owMDQ9KPldvXZ3TBZwGUVeMhZWCLK8s6UNWlVzUCmqEZHhmOuBWy/4+WCGN40wAjwMl12kqOLK/Hyu8F6JvrURUysZhw+GOfcSRQlELNgGhpKH/2atXyz1q1lbMgqEdxt1JaVSraZbbOtTCKe1nf3PdXoX0O3YebGyQPjCG3YW0TKTloo62PA3bRZhlonrYGZxANJRI5WjhaH5VxCGEFtSUEhjo7ZHLly7Iib4+aWluZvShtcWYsqANxsbPJMpD9xm06e6ycF3q/FpdEtK/k3191pMJHod0vMq/GUeUJZ5DG6gfZI9tJ+z0fuQgFVZVhtJwotkJ2URsDXEcTMSBAP3F6qwlBqqpl2VVsBMz8/Lf/+Zn8tb7H8jNO/eta28un1MCwQJBSWtIuiw3NOQll6PLcxj9D8wtV7+Ji2nPao47eM4G767PNjgdCeykpr/3yr/kslViwSJ20GkEQEZVSWeDPMnOyFAL1awdxrrQS9LGwQz0SU+nWu1JWoVxMIEwD+M4mEgwEQcCWr/U/4N4F22/QZYKK/LhJ5/L+x9/Im9/9JEsqHVS19CoiqBgLhBD0qhfX5+zQgrBQCrsbw17UIx2RFK17ym3Va1XRoce23Un7YPrCJVHu16xEKYyMgtHjznp1EQkmG0jEkzEgQAEg9AjjFgziDc2zcz0gnx562v51ZtvyfTCYihoSaFxC6VelFR0v57Gf0gGq0b3TbT3QUGtxy7eUS1+KIISyRw1bJNgdpO2mXfRbmfkosSysLgo07MzMjMzK8uFZbWK18KMEIkFnOUSlLe3+23W8QJSqAWUfhbbIhglhQqC2XSqmOQH2BLBlG/YecqX74wEE3EgECyYgDX7Q0jrrE1lZm5BRsfHZCkhlrTIphUxBcxJp4THQjCOx/muw4S0ltsptpq2qjyraDQnB5RuUZXs/Py83Lr9jXzwwQdy/+FDlbFFaWxpl1W1hFdWlGwSuXJZQ658NoknRzAFJZiMBRMJJiJic6QJJiBTWJJtRMRmQIenpcclCxliH/t4aaUgN27elHfeeUc++fxT+frOI1lryEuhLi/UY7Sqwi0lQDC5fKPkIJiG8lRF1RAJpnznzp8REbGHQOAr/4JwemAQZgwxbCWYBeNsgoI2Ja36lXMauKaloVHOnjwh333jdbl25bIM9HQbaawUlvQ+lPaqKI+UAsp5ZbWgCn1ZLZxlWV1bMdLZNrCoPRwDHI+vjIiIOH7YQP9ziglW+/v75Zmr1+Sll1/Q2vyAtOabrNs73eKVRcLFoD50H6dR3dYx0m10/myOSDARERFHFzBJhmhQet6ppDXXLE899ZR8+7VvyaWz56WnvV3qWcuIBe40YKlwdV1d6BbP+CtIxrbFsIRERG1EgomIiDhacFJJEYu3LDBDN9MLgQa9AAXY2NAovV3d8q3XXpZvv/qKnB4elraWZuWYQkIySi4a6urXrHcigGSKy4s2Tx7tGukQ3pYNCep038MxQCSYiIiII41qqtwb4lGAOf2/vaVFLpw9Z9MTPfvMNRke6LdVU3GV+WSrAWr56C5uNHo40nU47S7bdGBvDay/62io5kgwERERRxZZcqG3Vq4hdDVG+eEAQ7mz35wTOXPqhPzw+9+T61cvS3dnu6wVClJYKkgDjMTMEUosZtGwr9vl5WVZWlrSfbVelFxyDWoXVSWZzS2WcNdGKvnwqetIMBEREUcSVS2X1B9wBUhHMYZYtjbXy0h/p1y7clVeefEFOXv6tLS3NRuRMEATUoFcAKTCb+a+sznwimrRqMUDee2UZI4aIsFEREQcGaDCPVQDaj+r+l0JchySadKdpy6elzdee1WuXr4kAz19rAshdUW1UpRMuN5dYgCLhtkAlpcLRkKsU8Qy3zYOJRM2Qxgk6jGqop4PWffmwxXbiIiIiH0A06w6MTEKJqeasaerW15/6VV57aWX5fTwkLS1tMAmXG4EUscAmcRSoVdZoVgI7TJJL7OtwAZSJly1o3E1BxyRYCIiIo4lUOfpEGbCC0oRgulszcv5Myfl2WtX5flnn5OTQyPS1Ji3a7BgbFqiFCk4yRSdZFJWznFFJJiIiIhjhzItBNAmw/QwuMgaNUAjOb2oVQ+cU5L5ye/+UJ65ekm6OrBi1FJZnleWYTrWVTViymRD+4w3/LOmz0bwnmzr4dZPFSuoLkyqxNxqbKu54TwcBESCiYiIiEiAQkQ3EyAbfrfoTn9Pqzx95ZK89tLzcnakT7qaG0SK86rvV2w8jTfq20JxasnYaH8NNvJfj1WzZqzDQBK2hq253Q4SIsFEREQce6AI08rQf3vvMqyayxdPyxuvvShXLp5RwumUerVkLKji90GbgTCUCNSScXcZC5lxDJJxoimNw0m23jMNEgnxYNBm2JbD4UM6TSMiIiIONZwYthvWAeWehDolBToB5BvqZKC7S7712ivy7VdflLOnT0pzU2PiDgsEkKuHkpQOsFrUkjELJrFmjHhScHKphtrus/1GtdTZbiij8ldERERERBmptoyGugZpaW2Vc6fPyNWnrsi1y1elr6/XrJc1JsdU0A7TUBcWu+OYkwwElLZkjgsiwURERERkkSIWI43kAFYHMwEMjwzLt771mpw/c87WZrGJMAtFaWAkf+p6SGatWLZkIBzG0mRBG85mC5kdRkSCiYiIiKiGjL63EfpGHvXSkm+S3u4eGRwclKHhYeno6JDGRuYuC6P77frEULGGfyeZxKo5LogEExERcayBus+GLDhGN+awGB5zjuWkqalR+np65OTIiG67pa2lya60WZW5o44G+xCcZFZZsGy1aL3P/G3W1TnVPuOutHQ4rIgEExEREZEAo4NQS6WnFSYN8Vg0+VyD9Pb1auiT9tZWtWRyelyJqF5tHQ22lLGSDbMuM0amsLQUOgYUlWh4TuIas4XOqrjPAO026fnN/J7sMsnbAc/wZzIOCOw1IUSCiYiIiFAkHq0SapEMqthVPW4wXGdtzS3S3dEp3Z1qyTQryTQ0SK4+qFcskOAug0BYtGxFVgoFYWJMlgOo02PlLskbo4IUEpJxZK0egneN9lBt3I0/pfRNyXYvEAkmIiIiIoGr+CzZVFOUkAbuLNaEAS0tLTI0NChdXV22HDOgkX9FLROUe4MSQmOjWjUNdfobksGSWZBCcUnft2KkVM0iYdS+jc7X/dI22bcR/RqYYDNLJgQnlHQIxyGg7FfuPSLBRERERKSwuR0RyMUBcTD+pV4tFnqRdbS1SU93t/Uus7Vn9BrrZYZyZ3yMByUeyIkZmM11pluO7yWyVo5jN6617SASTERERMQWgbp2pck+3ZEhFhQ5418gnjYlmL6eXiWadmluUZLJNZbcZcA6CljbTHB3uaVBD7OdWBXW3qPE1qDPzAbcdyyy5sFI0LahR1wa+2HP1OkH7b+dFBEREXFAkXaL+T50kCYTkL6Otf0XikV5+92P5fOvbsqynsRdZssn1zUYUcwtLsjC/ILMLsyYpYJbCjJoYKp/Ve453a9TZb+m97Hld2dnp7S1t9l7Su02dcGdhRWUV8Lqau8w6yifz+t7w1xokEY1rKZmvfSeatazrW5NmhtzcmJ40JaK9m8N8xCEb63+xO0hEkxERMSxRpo4HK6W00pWKSLZg2BWpbCyKm+++4F88sUNWVqpMwKhPaS+jtnLaBdZtUXIlpYXlGDomrymloY+MSEDt3xcBXOetpvGPDOfObyDQHg/pEKHAq5ryOVsNU3QkHNqyGAtzCpgUKIKWJVGjWdLU4OcOTEil89dsO9lOpyc/u9XRYKJiIiI2CVcoVZDLYLBmlhRgvjNW+/JB59+LgsFJRC1XOpV6a+p1YC7yxYks4vVqlE1m263gYiUicKPBNXnHwuxqzc3WIhN3apaO0ooWEPFtdBmgzvMnpmFEUzyhclU/3QoaNJH9XS0q/VyUq4/ddWOQouBaMKDIsFERERE7BKbEYyryKwCZzWYtz/4WD7+/AuZmls0F1ku36zWStJDy9o5lBj0DZBHQ/IivFYr+uC1DMFAQOvVsccuWDt0BGAcjQNLytpyEvKphL6Z5ynJaIx0E+JUKC5Ls7LJxdMn5fKFM/L0hcv6JWWCceB62y0iwURERERsgFoqckUV+8dffCWf3Lgpj0bHZbm4ohZMXq2X0GiP4scNBklAMKh5YFaE6m4snixqvWtVrRDOMUBzbja43PhtQUmDNphqPcNWNS4A68uua6iThcU5aW/KyUvPPSNPXzovF06fs7YXuztxudH5YC8IphrtRURERERsijVpbWmRns4OaxuxI4nLCgRysb1kuzvgliOAXC5nc5/x3sZco74r6ZWWCfQugyyIi3WlVtJo0uvbWlqlu7PLerpBI2kq8YGce4FIMBERERE7REtri/X8yudQ3QyoTCwAVe6+9YAFQUCB+/la4Dn+LIClgguOwL0QhhEYPdI2IITwbq4Jqp7nQEqM1ent7pZ2JRrOuN20l+QCIsFERERE7BBMeNnexliX0HPMGvKT3lr87xSBS8xR3QlWCa4n0O5D4J4lVsiEeJJjuL0YpLmSuMtqAZKhCzRxY/6zpsa8kWJPZ7daYK1mvTgR4BbbC9eYIxJMRERExA7RnG9Sgmm3mZTz+ZxZGCj7kndMUSIZVbebkUvWsgkWSDjGc+mdBpgFwN1lG4F7ykHJSe+jmzPkYl2d9ZpqJKBvTfZ2h0gwERERERvAlfy6oH95tVzaW5ulvaPN1ohhKv70PQ4m7Q9g62FjmGsr/YyEvKwtJiGNcM3Gz/J5x7iPqWja29ult6vb4u538hZ/U9kxt3ts/pUREREREevgCpmGdEbXt7a1BBdTvYZk4KO7ugAkk+7qTM+ydKgFyIGZl5mF2Ulmu4BkVtaU/JRkrP2lr1caG4Jbjyh52GtEgomIiIjYBegiTJsG0/XXK68w/5e5rxjYqGTgc40FK0LPJfvVUO24Te9fLJaek0XWWqoG4kM7THNjXro0nqzG2cRgzeQ8gAz20noBkWAiIiIidggUaGNDvXT3dEpnV5s19q+uFmwK/vTMyGnLJb2/GSAUrJcCBKPWy06ACw1yIm648nq6OtTiykujRp74e9gP7NdzIyIiIo4FsB5of2ltbZMO3GQNTBdTxRLZIrHQPTndrhKm9l9Z98ytWC5+Dfc2qvUy0NtrC6I1+G08cn1U9wyRYCIiIiK2BCyIyrCmfzT2MyV/a1OzdHR0SHOeto3kvM1Dxr4q20SR+xalnw3psS9ODCxYhhXDvsOJBdLaKDjB8M6WpiYZ7B+whdHsUXq+FBTlN+8dIsFERERE7BArawW1LoqqSFcl35STzs526668Rm8ytTw47mGrYGJLFi4DLERW3IV7zMFEmR1qYQ0ND1qXapDwyr4iEkxERETEDhGskaD8GcDY09lla7XQ0F9GQg51ZaKp1WsMcnGY9aLk4mNfgFskWwXPYBmAvFpY7e2tMqQWTHNL/rEp/kgwERERETsEbSXM8cWIEoilp7fbxsXQ8N+gLML0MZAJi325a2wrYMp/JqpcUT5iX9ZUVXuoCc6lg1Ib7TdKMi35Ruls75Cu7nbdD92T09idfVQbG8U2IiIiImIDWPtGYnUw6SRdlVvb2qSlqVlsaslSd+VyUK2vpLGxSrf1+q178vrG/e2gTt+T0+jR+aCzvUWaG8V+Py5EgomIiIjYIWjg//+3dy9NTQRhFIY7TBAyCSQkqCt23lbo0v//T1SktCgXFiokmQG/88105WJCEkyjpe+TaobcJrPqU32Z7uiRhU2upWNaeWipG8qHUawFYyEz3ZW2igeRzxxTyBTVPTX3EFtMu1kjHHY7FjK572SpHjZdtYquKFXrRQgYALgnzSLTQ6o5ZSHk+/t+M6PGPabHWlThr9tNpm6t0kLGx2HsrItmiKms0rgtvauu39PS/C07l9F1rPHdbSBgAOA3xZDR33be9rW+9prNpasT37V+mLrcFCyaOVZu0D2m78RSLStT+j4x+V4rDHpHPsPNQ84uJwafriJlCBAwALAFsbLWWl+Do76vtJxZWOiho0IllmW0x4vGddZdLXnerYVSXLNMC2/u7Wah2zsIT477oXd44F1k+nV1kz1E5f8QvwEA/ySNwcSHaNhFM7Y6ee43Xu5mme/BokF9beZVrWy8fNRDwaBxFx+DqUv8fDWhYHnxKcx1QKmo5ZTbdRx22hY0k5WTdZxU/ClHYAgYANiKGDMKFe21st9qhWbW9E3BbouqRTLpxqqCZrpocF83VRbjIoyt+ArKapF4qfeBUffXkjJPv6ObKjWzTTPHNJpjp3pQBAwAbEnVjgm+crE29lI32U1R1mFRVsu+2PPRaOwhMl0ULKPxyO/ej8exhZM+rzIcDjcu7XYnPD4+qjcX09iOWkQKKwVS+rRpWMpt3tEHAP+d2Qp5+pl2q4zhItfXRfhwdh7enX0M7+0Yms1QNjOr3Kv31SqZp1f0ukJlGIPnpqi7vFa3BawB5OK5d27G4e2b03D68nkYdDs+HqONljXwX50vVv2LF7LZRuuDgAGAtcxWw7PPZqtjtTi+Xv4IFxdfwvmnz2FkrZfCKnXffGzB4L2/bjQ1Wb1hQ2vBeOvFUsPHUzwUpiNskXr2mXe5WeRZwLx+9SI8OzkJHWvBNHbUNVeErOGb1tTfEQIGAP6w1QETK+XC3lQX19XVMFx+/+bTjUtr46yqbGM4jMvqHhiNzUg1+2xZwEyiIFbn+p7u4n866IeBZo9l+kwdPGprETAA8De5O2DmK+Tp9zetZBdV+JuK16Moqf5fdlYCBgBwb3dFVrqA2cY5AAD4BQEDAEiCLjIAQBK0YAAASRAwAIAkCBgAQBIEDAAgCQIGAJAEAQMASIKAAQAkQcAAAJIgYAAASRAwAIAkCBgAQBIEDAAgCQIGAJAEAQMASIKAAQAkQcAAAJIgYAAASRAwAIAkCBgAQBIEDAAggRB+ApbGxbjS5IC2AAAAAElFTkSuQmCC;" vertex="1" parent="r_Jpmp6yM1Su2GTmglGd-44">
          <mxGeometry width="98" height="82.15" as="geometry" />
        </mxCell>
        <mxCell id="r_Jpmp6yM1Su2GTmglGd-43" value="监控摄像头&lt;div&gt;&lt;br&gt;&lt;/div&gt;" style="text;strokeColor=none;fillColor=none;spacingLeft=4;spacingRight=4;overflow=hidden;rotatable=0;points=[[0,0.5],[1,0.5]];portConstraint=eastwest;fontSize=12;whiteSpace=wrap;html=1;" vertex="1" parent="r_Jpmp6yM1Su2GTmglGd-44">
          <mxGeometry x="12" y="82.14999999999998" width="79" height="30" as="geometry" />
        </mxCell>
        <mxCell id="r_Jpmp6yM1Su2GTmglGd-46" value="" style="shape=image;verticalLabelPosition=bottom;labelBackgroundColor=default;verticalAlign=top;aspect=fixed;imageAspect=0;image=data:image/png,iVBORw0KGgoAAAANSUhEUgAAAGQAAABkCAYAAABw4pVUAAAAAXNSR0IArs4c6QAAIABJREFUeAHtnAdQFFn39ntZ3fTurgkRRcUIgoI5Ys45oIgBFcyKCiJiVhQVERFREUkDDDnnnIYwxCHDkHMUMaeqr+pfz1f3DgMzirqu+H/9vnKrnhqnZ4buPr8997nn3O5mmB///YjAjwj8iMCPCPyIwI8I/IjAjwj8L0fg4sXLq65fvxFrYnIz39jYOI/IyOhqnpGRUZ6hoVGuoaFh7vnzF3POnz+fc+7cuewzZ85lGxicztbXN8jS09Oj0tXV5eno6PC0tY/xDh8+knn48OHMgwcPZuzduz9j9+7dGZqau9N37dJM37FjB1Ha9u3b09TVt6apqamnqqmppaqqqqZs2LAhZd26dSmrV6/mrlq1irt8+fLkpUuXJi9cuJBq/vz5SXPmzEmaPXt2ooqKSuL06dMTpk2bljBp0qSEiRMncZSVlTlKSkocBQWFeCI5Obk4aWnpGElJyWih+vXrF927d+8P1KtXr+hevf6O/vtvof6M/vNPoj+i//hDVL9F//YbUc/onj1F1SO6Z88e0T16/BT9888STj17MlP/FUYCw9Lywf/cv2+Ju3fv4c4dC9y+bY5bt8xw86Ypbty4ievXjXHt2nUYGV3F5ctXcOmSIS5cuIhz587jzJmzOHXqNE6eNMCJE/o4flwPOjq6OHr0KLS1j+LQocM4cOAg9u3bjz179kJLSwu7dmlCQ2MHtm3bji1btmLzZnVs3LgJqqobsX79BqxduxarV6/GihUrsWzZMixZshQLFy7CunXr6GezZ8/GzJkzMWPGDEybNg2TJ0/GhAkTMX78eIwbNw6KioqQl5eHrKwspKSk0L9/f0hKSlL169cPffv2perTpw/69OmN3r17o1evXujV62/8/fff+Ouvv/DXX3/izz+J/oP//OcP/PEH0e/4/fff8NtvRL/i119/ofrll57o2bMHVY8eP+PnnyWI/s+/gnLjxo04AuPevfu4c+cuzM3vwMzMHKamt2BichM3bpjg2jVjXL16FVeuGOHSpcu4eJHAuIAzZ87h9OkzMDA4BX39k9DTOwFd3eM4dkwHR44QGNo4ePCQCIzd0NTUxM6du6ChoYGtW7dBXX0L1NQ2UxgbNqhi7dp1FMbKlauwbNlyLF26FIsXL8GCBQuxZ88e7N69GyoqKu0wpmPKlCmYOJHAmAAlJSUKQ0FBAaNHj8aAAQP+m0AIFMcvzpJbt8yKCAxhdhAYndlh8snsOH2aZAeBIcwOAoNkxzFoax8RyY592L17LzQ1tdphCLKDwOjMDlWaHWvWdGbH0qUkO5bQ7Jg/fz7mzp0LFZXO7Jg6VZgdE6CsLMgOAoNkx6BBgyiM/2KG4Keffor/YiA3b94qIjAsLATZccU1CGdCMnEqOAMng9JxIjANx/1ToeOXgqO+KdD2ScYh72Qc8ErCfs9E7PVIwG43DjRdOdjpEoftzrHY5hSLLY7RUHOIwkZWFDbYR2C9bTjW2YZjtXUYVj4Mw3KrECy1DMbi+8FYeC8Q8+8GYK6FP1TM/THTzBczbnlj2k1vTDHxxKQbHhh/zR1KRi4Ye8UFiobOGHPRCaPPO2LkWRaGn2ZhqIEdhpy0hYy+DfocuY8/Dljg9/3mAu0zx297zfDbHoF+1TLFr5pENwXadRO/7LyBX3bcwC8aN9BzuzF6brveqa1X0WOLEXqoG6HH5iv4We0Kft50GT9vMqSSUL0EiQ2X8PPEVRAZsv4dkBs3bhYJYFjAzOw2hXE47x0O5r3D/tx32Jf7Dnty3kEr5x12Zb/Djqx32J71Dlt576DOewu1zLfYmPEWGzLeYl36W6xNf4vVaW+xMu0tlqe+xdKUt1ic8gYLuW8wn/sGc5PfYHbSG8xKeoMZiW8wPfENpnLeYHL8a0yMe4Xxsa+gFP0SY6NeQCHyBeTDn2N06HOMDHmG4cFPIRv0BEMD2jDYvw2DfB9D2qcVUl6tkPR4hL4ej/CnSzMYh0YwrEYw9g1g7BrA2NaDsakTyLoWzMNaMFY1YB5Ug7GsBnO/Csw9okowdyvAWFSAuVMOxrwczO0yMGalYG4RlYAxLQFzsxiMCR/MDT4Y4yIw14vAXCuExLoLXw/ExMSkkBg58Y5bt27jdEgGDuW9w4G8j8PYlvUOW3hvsTnzLTZlvoVqxlus/wyMBdw3mJf8BnOS30Al6Q1mEhgJrzGV8wqT415hYuxLjI9+CaWoFxgb8RyK4c8xJuwZ5EKfYVTwU4wIeoJhAU8w1L8Ng30fY5B3K6S9H0HK8xEk3VvQz60FvV2a8ZMoBCEIMQg1nRAoCAKhsgsIQhCiEIrFIVwvBHOtAMzVAjBG+ZBY201ABEZ+mxq5QXB6B4y9ue+wO+cdNLPfYWf2O2hkvcOnYKxJf4tVaW+xIvUtlqW+xZKUt1jEfQMxGImvMTPhNabHv8K0uJeYEvsSk6JfYELUCyhHPse4iGdQDHuGMaFPIRf8FKOCnmBEQBuG+bdB1u8xhvi2Qsa7FQM9WzDAowX93ZrRz6UJfZyb0JMlkg1dQbCsas+Gj0DoyIaPQKDZQCAUdkBgruSDuZwHxjAPEmvOf32GGBubFIpOc4lvkKHqYzA+NlR9Csb85DeYm/gasxNeYxbnFWbEtcOIeSGAEfkcyhHPMC7sKRRDn0Ih+Ankg9swOrANIwMeY7jfY8j6tGKI9yPIeD7CQI8WDHBvRn/XJvRzbkRfdiN+Z9WDsa7rHI4+GJJEIQiHpDLxIaljOHp/SBKFUAAK4UpeO4hcMJdywVzMgcSqs18P5Pr164VkViWc5hITJzC+xDcIjA98g/sGC5PfYH7ia8xNeI3ZnFeYFf8SM2JfYlrMC0yNfoHJkc8xMeIZxoc9g1LYU4wNaYcR2IbR/o8x0q8Vw31aIev9CEO9WjDYswWD3Jsh7doMKZdGSLIb0NexAX/Z13eCEPMFEQgdvvARCB/4wnsQjPLBdAGBuZAN5jxRFiRWdiMQQRFoAr2AtI/C+KxvpLzBUu4bLE5+jYVJr7Eg8RXmJbzEnPiXUIl7gZkxLzA9+jmmRj7D5MhnmBj+FOPDnkIp5AnGBrdBIbANYwIeQ87vMUb5tmKETwuGebVgqGczBrs3Y5BrE6RdGiHFboSkUz36OtSjN6sOP1u9Z87EEz5lziQTOrLhQ3OmntDuC51DUmcmMBdyIACRBeZcFpizPDBneJBYfubrM+Tq1asFohX58YC0L/INkhmrUt9gRcprLOO+xpKkV1iU+AoLOC8xL/4F5sS9gErsc8yMfo7pUc8wNeIppoQ/xaSwJ5gQ8gTKwW0YF/QYigGPMca/FXK+rRjl8wgjvFowzKMZQ92bMMStCTKujRjo3IABTg3o71iPfqw69LGrxS8Exheb83sQ3jPnDyBcyqFDUlcQmNOZYE5ngDmVAYllp74eiJGRUYFoRa7rn9qliX8wxU17gzWpb7Aq5TVWJL/GsqRXWJL4Cos4LymM+fEvMDf2BWbHPMesqGeYEfkM08KfYkrYE0wKJTDaoBz0GOMCWqHo3woFv0eQ92nBaK8WjPRqxnCPZsi6NWGIawNknBsw0KkeAxzq0Z9Vh372NehjW4P/PKzqeob0lebMGJJsEIWQLZYJzBkCIZNCYAzSwZxMB6OfBokl3QSEtEeE/Sodv9RP1xtpb7Au9Q3WpLzGau5rrEx+heVJr7A04SUWc15gYfwLzI99jrkxzzE76hlmRT7FjIinmBb2BFNCn2BySBsmBj3G+MDHUPJvxVi/R1DwbYG8dzNGezVjpEcThrs1Qda1EUOcGzCYXY9BTnWQdqiDlH0tJG1r0NemGr2sqvDTnQpBrWD+EV8waZ+mdtQL7/mCcIZEZ0mfgECHpK4hMCfSwJxIBaOXAonFBl+fIZcvG+UbG9/oaB6Salys+Mt8i80Zb7Ep/Q1UU99gfeprrOW+wurkV1iZ9BLLE15iKecFFsc9x8LY55gf8wzzop9hTtRTqEQ8wczwJ5ge2oapIW2YHPQYEwNbMT6gFUp+jzDWtwUK3i0Y49UMOY8mjHJvxAi3BgxzacBQdj0GO9VjkEMtpO1rIGVbA0mbavS1rkIfq0r0sHivaBN6QjeYc6cviELIEGTCyTSaDQIIqWCOp4DR5YLR4UJi4cmvB2JoeDmfdHKvXr2OK1eu4ohvCjSy3mJb5ltsyXiDzelvsCntNVRTX2E99xXWJr/C6qSXWJX4Eis4L7CM8wJL4p5jUexzLIh+hnlRTzEn4ilUwp9gZmgbpoc8xtTgVkwJasWkgEeY4P8Iyr4tGOfdDEWvZozxbIKceyNGuTVghEs9hrHrMdSpDoMd6iDDqsVA+2oMsK1Gf+sq9LOqQp8HFfjNokxQOX8jc+4cjjIgGJI+DoHRSQZzLBnM0SRILDjRHUAM8wkMYWv9sHcytmW+wZb0N1BPew211NfYmPIKG5JfYV3yS6xJfIlVCS+wIv45lsU9x5LYZ1gU/QwLop5iXuQTzI14gtlhbZgV2oYZwY8xLagVUwJaMcm/BRP8WqDs04xx3k1Q9GzCGPdGyLs1YrRLA0Y612O4Ux1kHWsxhFUDGfsaDLStxgDrKvS3qkQ/ywr0uV+Bv+6WfXqGJFI5f2DOF0V9QXyG1AHhlBCCwBfEM0GYDZ0QmCNJYLQTwRxOgMS8bgBy8eLFvKtXr9HWuqHhZRzySsbWtNdQT30FtZRX2Mh9iQ3JL7Eu8QXWJDzHqvjnWBn3DMtjn2FpzFMsjn6ChZFPMD+iDXPD2jA79DFmBbdiRlArpgU+whT/R5js14KJvs0Y790MJc9GjPVohIJbA+Rd6zHapR4j2XUY7lgLWVYNhthXY7BtNQbZVEHauhJSVhWQtCxH33vl6GVRCgkyJAk94TOV8781Z+oLegJfEB2ShJnQAaEdBHOIA+YgBxJz9b4+QwgQss5BFp4uXjTEAY9EqKe8xGbuS2xKfgnVpBdYn/ACaznPsVoII+YplkY/xeLIJ1gY0Yb5YW2YG/oYc0JaoRL8CDMDH2F6QAum+rVgsm8zJno3YbxnkwCGewMUXOsh71IHOXYdRjnVYoRDLYbZ12CoXRUG21RhkHUlpK0qIWVZDsl7ZehrUYbe5qX4xbS4vZknas6kYGtvX3STOX8UwpHEjmwQQmAOxIPZHw9mXxwk5uh+PZDz5y/mXb5sBJIdFy9ewn73BGxOfolNSS+gmvgc6xOeY238M6yOe4aVMU+xIvoJlkU9wZLINiwKb8OCsMeYF9KKOcGtUAl8hJkBLZju14ypvk2Y7NOESd6NmODZCGX3Boxzq4eiSz3GsGsh51SLUY41GMGqxjC7agy1qcRg60rIWFVgoGU5BtwvR/97pehnUYo+5iX4w5Qv0kP6ePuio3ImBVtH0daFOet/wheoJwh8gRGDkEAzoQPC/jgKgtkbC2ZPDCRUugHIuXPn8wQwDHH+/AXsc+FALfE5NiY8wwbOM6yLe4o1sU+xKuYJVkS1YVlkG5ZEPMaisMdYENKKecGPMDfoEWYHtmCWfwtm+DVjmk8Tpng3YZJnAya4N0DZrR7jXOug6FyHMU61kHOswWhWNUbaV2G4bRVkrSsx5GEFZB6UY6BlGQbcK0N/ixL0My9BH7Ni/HWzCD99ceX8HgRaL3wCgog5dwnhYDwEIMQhMLtjwGhFU0nM0vn6DCFABGvkl+iy7F7neGzkPMOG+GdYF/sUa2KeYlX0E6yIbMPyiDYsDXuMxaGtWBjSivkERmALZvs3Y5ZfE2b4NGGadyOmeDZikkcDJrrXY7xrHZRcajGWXQsFxxrIs6ox2r4aI+0qMdymErIPKzDkQTlkLMsw6F4ppC1KIXWnBJLmfPQ146O3aRF6EBgdw5GgkUeaeR+tnIkxf4U5M4cSID4kiUKIBYWwWwCB0YwCsysKzM5ISMw41h1AzuVeuHCJZsfZs+ewxykWqnFPsT7mCdZGt2F1VBtWRj7G8vDHWBrWisUhj7Aw+BHmB7ZgbkAL5vg1Q8WvCTN9GjHdqwFTPRsw2b0eE13rMN6lDkrsWox1qoGCQzXkWVWQs6vCKNtKjLCuwDCrcgy1LMPg+2UYdLcE0ndKIGVeDEkzPvqaFqG3SSF+JU29z1XOtH3xYeXcYc6kVuioF7qeIZFZ0ich7IkB0wUEZkcEGA2icEhMP/r1QM6cOZMregWJlkMs1se0YW1UG1ZHPsbK8FasCGvFstBHWBLcgkVBLVgQ2Ix5/s2Y49cEFZ9GzPRqxHTPBkx1r8dk1zpMdK3FBOdaKLNrMM6xGoqsKoyxq4ScbSVGWVdgxMNyDHtQhqH3SzH4bikGWRRjoDkfA8z46G9ahH43C9HnRgH+vJYn0kMSaV/8w8q5EwK3o1agMyQxXxDMkDp8YR/JhlgIfaFjSBLJBJINAhDhYLaHg9kWBmZrGCSmHvl6IKdPn8kll/OQ7CBXkGiyorEu8jHWRDzGqrBWrAh9hGUhj7AkqAWLApuxwL8J8/waMcenEbO9GzDLswEzPOoxzb0OU1zrMMm5BhPYNVB2rMY4VhUU7QiMCsjZVGD0w3KMtCrDcMsyyN4rwRCLEsiYF2PgbT4G3CpC/5uF6GdSiD7G+fj7ah4kSGv7v2DOH0DYFUmHpK4gMFtCwWwJAaMeAokp2l8P5NSpUzlnz3ZeX7XTLhJrwluxKuwRVoS0YHlwC5YGNmNxQDMW+jVhvm8j5hIYXvWY5VGPGe51mOZaiynOtZjErsFEp2qMd6yCEqsSY+0qoWBTAXnrcoy2KsNIy1IMv18K2bvFGHKHD5nbfAy8VQRp00JImRRA0jgffa/noffVXPS8mN3e1v5CcyYzpPbKuUtzJtNUOlUV9QUyHLWbs2Y0BL4gCiFCLBOYrQRCKIXAbA4GoxYMZlMQJCYd/nogBgYESOf1VTtsIrA69BFWBrdgeWAzlgY2YbF/Ixb6NmK+TwPmejVgtmc9VNzrMNOtFtNdazDVuQaTnaox0bEK41lVULKrwFibCihYl0P+YRlGPyjFKMsSjLhXgmEWxRhqzsdgsyIMMi2E9M1CSN3Ih+T1PPS9mofeV3LwO4Eh7Kb+F8y5wxfIcNQxJHUNgYBgNgaCUQ2AxMRDXw/k5EmDHMHFbqfp9VXbH4ZjZVAzhbEsoAlL/BqxyKcBC7zrMc+zHnM86qDiXouZrrWY7lyDqexqTHaswkRWJSbYV0LZrgLjbMqh+LAMYx6UQs6yFKPuFWOERTGGmfMx9HYRBt8qxKCbBRhoUoABxvnofy0X/Yxy0edyNv66lI2fyPqCSFtbrH3xv2DOXUMIEWSCWhDNBgGEQDAbAsCs9wezzh8SEw52B5CTOadOCa4+PHHiJLZbhWFFQCOW+TViiW+DAIZXPeZ51GGOey1UXGswy6UGM9jVmOZUhSkOVZjEqsAEuwoo25Rj3MMyKFqVYoxlCeTul2DU3WKMtOBjuHkRZM0KMcS0EDIm+RhonIcB1/PQ/2oO+l3JQR/DbPS6yMPPJCNI0SbS1v7X5kwKtvairXNI6pymMju6NufO4SgEokOSOIQACoFZ5wdmrR+YNb6QUD7w9UD09fWzRS8F3WoZgmW+DVjqU4/F3vVY6FmH+e61mOtWi9kEhnM1ZjhVYZpjJaawKjHJrgITbMox3roMSg9LMfZBKRTul0D+XjFGW/Ax0rwIw80KIWtagCE3CyBzIw8Dr+dC+loupIxyIHk5G30vZaH3hUz8SjKDri2It7UFntBV5fzeDIlWzp+A8A/N+aMQOrKhEwKz2hfMKh8wK70hobT/64GcOKGfLbhQ+iS9UHrLvRAs9a7HYs86LPSoxXz3Gsx1rcFs52qosKsw07EK0x0qMNW+ApPtyjHRpgzjH5ZC6UEJxlqWQOFeMeQtijDavAgjbxdihFkhhpnmY6hJHgYb52HQtRxIG+VA6nI2JA156HuRh97nM/Gf0+kitUL7NPW/ZM7MxiAwqgJfEB2ShJnQAaEdBLPCC8xyL0iM3ff1QHR0jmeToYpcKK2jcxybLYKwxLMWi9xrscCtBvNcqjGHXQUVp0rMdKjEdFYFptqVY7JNGSY+LMV4q1IoW5Zg3P1iKN7lY4xFEeTMCzHKrAAjTAswzCQfQ41zMfh6LgZdzYH0lWwMuJyF/pd46HchE33OZuDv0+mQOE4WeURnSJ1t7S+vnD8yQ6L1wkfMmUBoN+ePQljt05ENQgjMMk8wSz3BLPGAhOLe7gLSeRuBmnkAFrnVYIFrNeY5V2OOUxVUHCswi1WBGfblmGZbjinWZZj0sAQTHpRA+X4xxt3jQ9GiCGPMCyFnVohRpvkYaZqH4SZ5kDXOxZBrOZAxysbAyzwMuMRD/wuZ6Hc+A33OpqPXqVT0ICtuR5PQ0dYmVXM3VM7/1pxpJrT7AiMGwZtmAoVAQXhQEMxidzCL3CChsKc7gOhkCe7pENxGsMksAAtdqjCfXYm5jpWY7VCBWfblmGFXhmk2pZjysBSTHpRggmUxlO/xoWRRhLF3iqBgXgB5swKMJjBMcjHcOBey13IwxCgbMpezMNCQhwEXMyF1PgOSZzPQ93Qaehuk4jeSGWRd4b21BbHK+Zuas2CGJGrOXUJY7glBNohDYBa6gVngSiUhv/vrgRw9qpOlqyu4yebIkWNQNfXDfCcCowKzWeWYZVeOmbZlmG5diqlWJZhsWYyJ94sx/l4RlCwKMda8EApmBZA3zcdokzyMNM7FCOMcDLuWjaFG2Rh8mYdBlzIhfSEDUufSIXk6DX1PpaL3yRT8qcfFT9rv95DI+sJn2hdfa87rhVPVrs2ZWeEN8SFJFII7KISFAgjMfBcw81zAzHWGhJxWdwA5mkXueBLeZLPBxBfzHCowx74MKralmGldiukPSzD1QTEmW/Ix8V4RxlsUQflOIcbdLoDirXyMMc2DnEkuRhnnYMS1bAwzysLQyzwMvpSJQRcyIH0+A1Jn09D/dCr6GaSijz4XvfS4+JkMS9+wcv635vxBJrQPSUwXEJg5bFDNdoLEKM2vB0LuCRTAOIbDh7Wx3tgbc+zKoGJDYJRghlUxplkWY8p9PibdLcSEO4VQNi/AOLN8KJrmYYxJLuSMczDqWjZGGGVj+JUsyF7OxJCLmZA5n46BZ9Mx4HQa+hukoJ9+CvroJaPX8WT8QjLjvQWejlqBrC/QZt5/x5yZJe4Q+kLHkCSSCSQbhBAYFScwsxzBzHSExMhd3QFEm3f0aOctaOuueWG2dQlmWZVgxgM+plkWYcq9IkyyKMQE8wIom+VD6VYext7MhcKNHMgb52D0tSyMNOJh+GUeZC9lYMiFDMicS8PAM6kYcCoVUgZcSOpz0VcvGb11E/EHgUELNsFK2+fa2t/UnMkMaanokOQmGJKIL8x3FQxH85zpkNQVBGaGA5gZLDDTWZAYsfPrgRw+rM0j9wOS7CD3A64x8sQsq2LMsORj+v0iTL1biMl3CjDxdgHG38qDkmkuxprkQsE4G/LXsjHaKAsjL2di+KVMDLuYgaHn0zH4bBoGnU6BtEEKpPS5kNRLRl/dJPQ+loC/jnDw017RZt7nKmfRaaqwcv54+6I7zFngC6IQ2OjIBJoNBIIDhcBMswcz1R7MFDtIDNvRHUAO8wT3A2rTu2VXX3bHzPtFmH63EFPvFGCyeT4mmuVhvGkelExyMO5GDhSvZ2PMVR7krvAw6nImRlzKwLAL6Rh6LhWDz6RikEEKpPW5kNJLRn+9RPTTTUSfoxz00uagB1no+QdrCx3tC3UhBEFH9YP2Be0jda85CzKhHULHkCQKgdUBgYAQqruAZHbeLXsAKy+5YcbdAky7U4Apt/Mx6VYuJtzMhfKNHIwzzobitSyMMeJB7nImRl3KwIgL6Rh2Lg2yZ1Ix5HQKZAy4GKifjAF6Seivm4h+xxLQ5wgHvQ7F41eSGWIzpH/W1u7anLuAsMqbtjA+OkP6nDnPZoOZ7dSZDTO7gDC1E4AQhPC1W4AcPEhu8BfcS753736suOCCabfzMeVWHiaZ5mKCSQ6UjbMx7loWxl7lQeFKJuQNMzD6YjpGXkjD8HOpkD2TgiGnuJDRT8ZAvSQM0E1E/2MJkDzKQV/tePQ+FIs/98e0r7KJQPjGlfO/NeeO4Wg6C6JDkjDwH3vtFiB79x7IFNzYf4De2L/8nDOm3srF5Js5mHgjB+OvZ0HpKg9jr2RC4XIG5C9lYPSFNIw8l4rhZ1Iw7BQXQ09yMfhEEgbpJUJaNwFSxziQPBKPvofi0PtADP7eFwMJsu7c5dpCe1ubrCt0rC2It7UFPSRBR7XLok3YvvioObfXCv/QnL8EgiicbgOyf/9BkOwg95IvPc3GZJNsTDTOxvhrPCgZZWLs5UwoGmZgzMV0yJ1Pw6izKRhBYSRjqH4yBuslYpBuAqSPcSB1JB6Sh+PQ71As+hyIQa990ei5Ixziq2xCX/gEBJG2dpcQ/kHl/G/NWTTIX/LvbgKylzyPpP2xF3uw9JQjJl3nYcJVHpSvZGKcYQYUL6ZjzIVUyJ1LxagzXIw4xcWwk8mQPZGIIccTIaPDwcBjHAw4Eof+h2LR70AM+uyLRq89Ufh9Z4RgqfO7NOfOGdKXBP5j3+0WILt3EyCdT1pYrO+ACVczoXwlA+MM0zH2YhoUzqdC/mwKRp/mYqRBMobrJ0FWLxFDdBMgc4yDgUfiMeBwLPofjEG/fdHouzcKvXdH4S/NCPyk3rnmLDZD+szaAllf+Kg5LxI08z5aOX+lOX8s4J/b3k1AdmeQoUpLaw927dLCIj17jL+cDqVLaRh7PhUKZ1Mgf4aL0aeSMfJkEoafSITs8QQM1eFg8NF4DNKOhfThWEgdiIYkgbEnEr21IvD3znD8TC4A6Ia29v+2OX8u8B/7vFuAkMcmERjkOSQ7duzCAh1bKF1MxdjzKVA8y8WY01zIGSRhlH4iRuglYJguB0OPxWPwkTgMOhwL6YMxkNoXBck9Uei3OxJ9doWj185w/LrZGhvfAAATVElEQVQlWLDI05EJ/u1LnV2Zs2CBp2NtgZrzJ9oX39icPxbwz23vJiCa6Vpau2l27NixE/OP2WDcuRQonuFijEES5E4mYdSJBIw4noBhOvEYejQOQ7RjIXMoBgMPRGPA3ij03xOBfloR6LMzDL00wvAHgdG+8P9v1xY6e0ikhUFmSR+pnGeSPpJovdC9vvA5CKKfdwsQ8lAxMlSR7Ni+fQfmHnkIxdPJUDBIgrx+IkbrJWCkLgfDj8VDVjsWQw7HQuZgNAbuj8KAPZHorxWOfrvC0XdHGHpvD8VfW4MhQWB0LPB0rjl/eVu7Cwgqju3NvO8DwjcAsit9505NkOzYtk0Dcw5ZQeFkIuT1EjBal4OROnEYfjQOstoxGHIwBoMPRGHQvkhI746AlGY4JHeFoa9GKHpvC8bfW4LQk8AQWfj/f9GcRYP8Jf/ulgzZuVMzjcAg2UEeKKZywBJj9BIgpxuPUcfiMOJILIYdisHQA9EYvD8Kg/ZGQForHFK7wiC5IxR9t4Wgz9Yg9FIPwu+q/p9cc6Yt7Y72RftKm2hbe07Xbe2Oynnal1XOXxLM7vhutwDZsWNnmoaGIDu2bNmGNdu1sUTjDBZuM8D8rfqYp34Cszcdh8pGXczccAzT1x7B1DWHMWnlIUxYfgDKS/Zi3OI9UFygCdnpWzFk6hYMmboZQ6aoYfBkgWQmbYLMxI2QmaiKQRNUMWi8KgYqb8BA5XVU0uPWYcDYtQIprsYAxdWQUliN/mNWob/8SvSXXwFJuRWQHL0c/UYRLaPqO3IZ+o5cij4jlnSo9/DFIOo1bFGH/pZdiL+GLujQn0Pmg+g/g+d16A+ZufhDZg5+HyTUbPw2kEgFv0oLNQu/DJiJnlJCzUBPqRno0X86fpacjh5/D//6bi95GCUZqkh2bN4seNzexo1qEDxubz3IE95WriTPP1yBpUuX08ftkecfzpu3AHPmzMPs2XMwc6YKfeahkpIyxo0jUsLYseTZh0RjoaCgiDFjiMjT3sZQycnJY/RoOapRo0Zj5MhRVCNGjMSIESMwfPgIDBs2HMOGDYOs7DAMHSqLoUOHYsgQoiEYPHgwZGSIZOjT4wYOHISBAwdCWlqaSvh4v//nnignAEIeRkmAkIdRqtHnH65bt4HCWLVqDVasWIXly1dgyZJlWLRI8PzDefPmY/bsuZg1SwWTJ0+lj9j7AaTH12fIli1bUgkMdfWtUFNTh6rqJmzYsBFr167H6tWC7Fi+fCXI8w8XL16KBQsWgTz/kGSHisocTJ8+A8rKgmce/gDSDUCMjU3cTE1NuZ0ySzYz65S5uXmSmZlA5N/m5uaJRBYWFonm5haJt2+bc4jMzYW6y7l79x7n3j2BHjx4wLGysmqXDcfGxoZja2tLxWKxOA4ODh+IbBd+h3y/8/dWnAcPrDr+NtmPcL+3b9/mEJmamlLdvHmTY2xs3KHr169ziIyMjDhXrlyhMjQ05Ah1/vx5jlBnz57lnD59msrAwICjr68vIj2Orq5uh44dO8Y5cuQI58iRw1QHDx7kCKWlpfVlTyUF8JOrq+tzDw8PeHl5wcfHB35+fggICEBwcDBCQ0MRHh6OyMhIREdHIzY2FvHx8UhISEBycjJSUlKQlpaGjIwM8Hg8ZGdnIzc3FwUFBSgqKkJxcTFKS0tRXl6OyspKVFdXo7a2Fg0NDWhqakJLSwtaW1vR1taGp0+f0tfHjx/TbeSz5uZmNDY20u/X19fT39bU1KCqqor+vYqKCpSVldF9kH3x+Xy6X7L//Px8eiw5OTn0uMjxZWZmIj09nR5zamoquFwuPY/ExER6ThwOB3FxcfQ8yflGRUUhIiKCxiAsLAwhISE0LoGBgTRG/v7+8PX1pXEj8fP09ASJpZubG1xdXcFms18YGhpK/OMnkzo7O8uTHwuBuHh44qGzG2xcPWDr5gl7D2+wPH3g4OULR28/OPn4wzMohB58fEIC3INC4REcBs+QcHiFRnQACYyJQ0B0HAJj4hEUy0FeYRENYHJmFsITuYhMTkUUNw35JaU0+CWVVYjPyEJcOg+xaZlIzc2nsGrq6uh3yfcjklLob4VAIpK4CIlPRHBcAt1HVm4eBRKTxIV/VCz8ImPgGxGNuGQuPa64pGR6jORYyTH7R0RRIOQ8XPyDqJz9AsH2DegA4uTjR8+fxIDEwi8wiAJhe3rTGFm7uNN4WbFd8cDJBZaOznBydesA4uzsDCcnJ7l/DMTFxWWbKBALR2ecvm/7Sd10cKFAwmNiP/ieMEMuWTuIfZaYnkmB2PgGim0PiEukQKJTM8S2W3r5UyCFpWVi28mxCYEY2jiKfRafkkaBWHn5iW13DgylQDxCwsW233Jyo0C6Og8yEpAMuWBlL/YbVx8/CsSUxRbbLhozCxZbDIizs/PWfwzE1dXVTBSIJdsVN+2dQHZ4y8GZyszRBbedXKnM2W6w9fSlQGLiObjr6ol7bl5U9929OzLE1jcQJDAPvf2pMnJyKZDAWA5s/YJg5x8M+4AQJPFyKJDMgiI4BIVRsQJDERifRIGUV1XT75LvE5HfCoE4BIbC2ieAiuwnlZdFgfhEROOBpy+VpYcPgqLj6HGFxMSBHKPweB18AykQch4WLh644+xORc5RCMTC2R3k/IXy8hcM5Q9d3GmMSKyITOwcqW7YOuC+ozgQNpt96x8DcXZ25ogC+eEh3eshZMhis9n/7OnWxNCdnZ2fC4F4enmB5eoOR3dPOHl4wdnLByRFfQODqKmHhkfAOygEPsGh8AsNR3BkNDX1lJRUhETHIiw2HuFxHERyEpGXl0/NNTEtA2QoSUjLABm2+CWl1JgLikuQnpuPjLwC8AqKUFZVTU29rqGRvifbyGfZhXxq6nV19UjJygGXlw3iQ0kZPJSXV4CYenIGj+4jjpuK2OQUZOUIJhXJaen0WCLiE+hxxSclU1NPTOYiOCoGQZHRCAiPpOdBTD0+ngPfkDB6juQ8PQPIeQtM3dM/kMbCxduXxoV4CIkRiZWDmweNm72LG+ycXWHLdoFru6m3e8g/M3Zi6C4uLnS8I6bu4OqGU/dsPtBdthsF4uoXIPbZVVsnCoSc4Pu/42XnUCDGLBexz2JT0igQ19BIse0eETEUCDc7V2z7TSd3CqS8skpsO9lfUXEJBXLDwVXss7D4BDrLs/cNFNtu6+1PgfiFi++bnAcBEh0bJ/Z9sg/yPyGZZV2xdvjgs/fPWfQ9y9mFzrLaM+SfGTubzd4mCsTG2RWGD+xw2cqe6spDFois3TwpEI+AIFy1caS6ZusEMtaSaW8Sl4vrdmwY2ztT3WC5ICtHAISM5SYOrrjp6EaVlJlFgQTGJeAW24PKzNkToYlcCoRXyAd5T0Q+J55Bpr2V1dUwdXLvEPl7/BIBEOJVZB9CRSdxKRD3kHCQYxEel0tgCAUSFBVDj5ccs/A8CJCYuLiO8yPnaWTtgLAIARDiqcJ4kFdhjISvJG6isnZkiwFxdHT8vLE7OzubiQL5UYckoLvrEGGGODo6ft7Y2Ww2RxSIu6cnPL284eXtAx9fP/gHBCIwKBjBIaEIDQtHeEQkIiKjEB0TS2dZScnJSEhMQlIyF9yUVKSkpnXMskiG5OTmIS+/AAWFRbR4I4VhWXk5ysorUFlVjeqaWjQ0NtJZ1qPWVjQ1t6ChsQn1DY30lRSGjU1NqKquod+vqKyivxXOskiGFPGL6d8n+yBFIVFefj6ysnPAy8pGRiYPvKwselzpGRn0OJO5KfSY6XFzuSDnERsXj5jYOHpukVGCAphMe0PDwxESGkZjEBQsKApJwezn709j5O3jS2NG4ubu4Qk3dw+4urnDxVVQGAqBfNbYiaE7OTk9FwWib3YfOjfvflZGVvYUSFhUzAffFdYhp+5YiX3GSU2n0977bt5i230iYykQUvSJ7vs224NOewuKS8W2k+8IgZy2eCj2GTF0AsTC2UNsu4NPAAXiGhAstv2atQOd9nZ1HsJp78nblmK/IRMdAuSalZ3YdtFjJ/82uG35/pD1aWO3t7eXZ7PZEAJhu7rhyI07/0iXH9hRIKFR0R98XwhE/7al2GdkpkUy5K6rl9h2r4gYCiQskSu2/ZaTOwWSX1witp0coxDISfMHYp+RCp0AMWe7i2239/anQJz9g8S2Gz1kUSBdnYcQiN6te2K/IbMrAsToga3Y9vdjd/TGHbBdXCDMECcnp08bu4ODwzZRIMLWyY865JvUIQQGWCzWx43dwcHB7AeQb99cFM0QFov1cWMnLW9RIJfvWuHw1VtU2tfMICpTGxad9jp5+uDI9dsdOmdhRae9nMQkuu2osTmEyuBl0TrkkqUt3Xbsxh0QRSVy6bTX0T+YvifbdEwsupTwN//kVbjfT71aunjQaa93cFjHOZDzIedBpr1RMbFi20kMgkPDaB1y+vZ9sZjYsF1pt/eGlS3dLoyd6OuVuw/EhiwWi9V1xU4M3cHB4bkokOPGZth7ybhLGVvZUiAsdy+xz/VNLTqAvP9bIZBTt++L/SYsPpECsfHyE9v+/u+/xfs7ji4UiHtAsNi+yXkQIJHRMWLbyTEIgeiZmIt9ZuXoTIEY3bMS2y563Po3br8PpGtjJ4bu4OBAeiwdpm7rxIatkzPsnV3BcnGDo5sH2B5ecPHygU9AIAVCqlavgCD4BIXANzgUIZFRFAhZVwglrZOYOESQ1kl8Al2LIOshyekZSEhNB2mhkBaHsHVSWFKKzLwCZBUU0fZILr8EecWlIK85RcV0G/mMl1+IjNx8pOfkUaVm5SCFlw1uZhb9e0npmfTvk33Ec1MRl5yC2CQuYhKTEZ2QRI+FHA85LrHWSWQ0giKiEBgeSc+DACE1CDkv78Bgep6kXULWgUil7unnD1fSNvH0pnHx9hWsGbl6etGYkbiR+Nk4smHt4ISHLEfYODiKASEx77IVb2dnt+19ID9M/dssUIl6CIl5l8Zub29v9j0B4aakwNnVVUxkyiiUE1nkaZcjmw0iByenDrEcHUFk7+DQITsWC0T+gYH4b64YdgHkQ2Mna9XfE5CAoCCY3jb7JnJkO31vQMSNnRi6vb398+8JiKe3N8zu3PkmsmWxvisg9vb24sZODN3e3h7fExC2izPu3Lv7TfTQ1ua7AsJisWBjY9O5xk4M/XsDYmdvj3uWlt9EllZW3x0QW1vbzordzs7O7HsCQi7zsbKxgeXDh99MwsuT/huXAXVh6rC3t+80dmLo3xOQmtoakGHlW4pcN0aant8LEDs7O4GxE0O3tbV9/j0BIRfR2drbf1ORC/q+JyA2NjYCY3/w4IG8ra0tSZnvxtTJFYYsR4dvKk4C57sCYmdnJzB2a2vrbd8bELKaJyz2vtVrTGzsdweEGru1tfXx7w1IfkEBomNiQIImFHlPFEWurY2ORmRUVIciSG8pMhLh5HrbiAiEhYdThYaFgSgkNJQqmFyDGxKCoOBgJCQmfndAbGxsdBgrK6uJtra2//M9DVn/v19s3dUsy87O7n9sbW2V6dWMNjY2y8htAvfv3+dbWVnxra2t+TZ2dnw7e3s+i8Xisxwd+c7OznwXFxe+m5sb39PTk+/l5cX38fHh+/r68gMCAvhBQUH84OBgflhYGD8iIoIfGRnJj46O5sfGxlIlJCTwk5KS+ElcLj8lLY2flp7Oz8zM5GfyePycnBx+Xl4ePz8/n19UVMQn/5WUlPDLysr4FRUV9JW8JyL/ke8UFhbS75PfEeXk5fCzc3L4vOxs+jfJ304nSk/np6Wl8VNSUvhcLldwDElJ/MTERD45pvj4eHp8MTExfCJyzOT4ici5hEWE8UPDQvlBwcFUAUFBfP+AAL6vvz89dxIDIhIPEhcPDw8aIxIrIhI3NpvNd2Q78lmOLBpPexaLxpbE2NrGhm9jYxNvb2+/9P1LS39atW7d4tVr1wavWbcOQq1dvx5E6zZsoFqvqgqqjarYsHEjNmzaCNVNm6g2qqmBaNPmzQKpb4aaujrUtqhj85YtVOpbt4Jq21Zs2bYNW7Zvw9bt27FVYzu2aWhQbd+xA1Q7d0Bj505o7NqJHbt2YYfmLuzU1BRISxO7tLSwa7cWNHfvhuae3dDaswdae/dg99692L1PoD379mHP/n3Yu38/9h7Yj30HDmDfQYH2HzoIogOHDuHA4UM4ePgwDmofxiFtbRw6ItDho0dApH30KLSPHcWRY8dwREego7o6IDp2XJdK5/hx6Ogdh66eHnRPCHRc/wSI9E7qU504eRInDATSMzBIPnn6pJqamtrP78MQe79ywwa5tevXa6xZt85i7fr1AWvXr09cs2EDj2i9qmqHNqiq8ohUhVJT46kSbd4skPpmnpq6OtVmdXUekbpQ29R56tu28dS3E23nqWts523T0KDarqHBE0pDQ4OnsYtoF09Dk0hTIC1N3i4tLSpNLS0ekRbRXqK9PK19Qu3jae3fx9u7fz/Vvv37eULtP7SfJ9Ah3v7DRId5+7UP8w5pa3fosLY2j0ib6BjRMZ62Trt0dXjaujq8Y7q6VDq6ujwiXaIT7dI/wdPVP8HT09dL1DupF6BnYGChd0pfQ++MXmerRCz6P978iMCPCPyIwI8I/IjAv4vA/wU7Cw15/1F6TAAAAABJRU5ErkJggg==;" vertex="1" parent="1">
          <mxGeometry x="-676.5" y="110" width="111" height="111" as="geometry" />
        </mxCell>
        <mxCell id="r_Jpmp6yM1Su2GTmglGd-48" value="" style="shape=image;verticalLabelPosition=bottom;labelBackgroundColor=default;verticalAlign=top;aspect=fixed;imageAspect=0;image=data:image/png,iVBORw0KGgoAAAANSUhEUgAAAGQAAABkCAYAAABw4pVUAAAAAXNSR0IArs4c6QAAEnJJREFUeAHtnQPwPckRx7/JBRfbtm3bvNi2XeHlktzFtn2xbfNi27bN/fxquqqvf7Ozs7uzD/+kq17N7nuDHreftDwcRtIhJV1c0nMlvVHSUyXtL+nHkn4p6XmSLte930rS7SUdf3m0dGxJt01t0ja4/UHSX7v2nynpRZK+JOm9kq6yAnwWb+Kwkl4o6W+S/jPy82dJL5b0km6Q7i7pCA2wPZqkR0h6k6SXSfrTSJzow++6Mg+UdIgG+CxexeElPUTSVwc6elDaFTZJ76uYtM9IOtaMHhxH0pcH8GIRvMvl+Zekr7l3w9fSv0v6kKQbz8CreVF2AduZo+adPciD+NMkvU3SbyR9RdKRJF1G0ofT0XByV/4d6diwjlvK8fbJbmXfs5v4vSp6wiq+aypDWasHfHj+bbfzHpWeOZZOlnbl9yTdUdKpEq7gDO7PkWRlrS5Ln57G4KLr3D1HSWesIWXpz7pOsq3vI+nJaUBemQbwUJIuJmnv9M7dcur0zCA/SdJVJZ29O9+ph4HITTTHzuEKk3JoSS93k2C4fSodWz/sFsIp0l11QHefgRdweocbODLA9ttbE070hfvvQZJ+nmnjNamulSfsCuuoT/8o6ZYBG87vsXBGSTdNA8QK9m3wzKTkdgo746UuP5c0+T8t6aiSqPcMY5HpCBGIAH93XLcjQH7h2vH4nXVC/bOLsK0NiQfPrq1cwTEkfbM7Zu6SKCFrl50Y4R4OLy7hC6Sj5wQxY+N3jm7D6zyN666qjjPWEGAVnrKq1PRMJ0pFryzp36ltznSOGQNw+Ev6jTxXTD/YEWn5Wqccn9w9jAe7hiNz5XBzNyEg8uwVYvBE1zYkrAG8gy0S7q9Vwe1cu1BnazmyXu2Q4Pkphd4fvfDblJ9YkT9I7TMA7JLTSfpn+g5mE6KjJZzQXfixXngl+CZIZxYEBM3KAerEViMMVwnYwpfoBpFddeJSxhG/Qf9b+4/pSGk+9s490gIgAiAsrilpiDAhj7V/tRaNj60DZH+VkOC8foAjEfvqOmJ3/u/bkbVvkHT9mWctFBbkK4PAbrEd84+ZTCS4nzNJGRDx2N3V1ye+Z7EhdgGXjwdqrFSu+W82ISDybkkwSDUX2nGTPOsbHdd+B0lw+VOAnWmr0lL4lqlwycT3vFnSmSoruWxiGGEgwQHeaW3wRTcgj52ABfwA4gcYrPtXHAuxCQbQJsLSx8VMA+/wFleX9Im0y2BMxwDluSM/m3DxRMaYeprkvVkYECS1Y4EOwWSywn6dpL05hi9X70lC+0wKF2wtwC98rDtuIQyg3I5cW9Dlg5OHe6dt6rmw+20tjxxVtjq5S+49EQuOMVYXdbHaajoGw2htW4pIYwiO18muXpD4Gdo691CBnt85nl/hcICwWDvYIDIgkL9nm4kRHC87hclF/M7g9cH53WDYhHywL3MiOu6VLmDqZwBr7ry+KpEiI+y0u3TM7uyrc/b3Uaa13+wapZMmaoVB5n5BgZQDmFGbCJ9C9URAiMnxRD6Ox7F3RayPdyhN1AfW9gVzmVb9HXcA1JUhRQpZy+qZA2gan5DqZTUjKver+RrpzPbt2jOSYr9Tb+QUUlzeiNrnwpklfd31mztoo8A0g8iXmKArNMIOZpLLksGGxoccRfxtXLlNQkzRCEK5oYux39C1TCWxfXdYGA/vdEEozqgbSfLGAbvCOg4tPkfDFzsHEwnDZ/VPSRHXtxQynqPTFn4n4VQSG8W+rOwdjtY4ZwYMqSeXXIsVSSeuNWNCUBtzBLYAeI7HuwVCn4/ZouIl6sBaxF9y304WJf7sn9ruRWZMyI8qxDo1eLErvFIKIqGVbK6m/Ul5uEztSEGXzYXaYnViPmT1TklvPak3By9EP6AqUXxxr7U8lg/eUuM3o45s4OArnl/J7OVQQeJqdU1Nf5/Ut7n6S9+h94ecRd//U4fHM0qFNvE3qKy3uA6gUUOKOgYgqTFmm3uh2yTC01x+DAKJ1IakNaru88kqhYnaOkAm9S03KZCiH00mNXC4yKL64FySIFNtMFul8DSITUrSXBbTnRJ5jSTCOHHMlrYeTuO4bj+orPobuN5xHmN2g+ECzJvPu9QziwPjPiQB6ONRQrErMaaIuxIjC6+/d6hv5+MNg6EZxweWgd+XhOnQmEHnLOdM3yfZV2FqCnmNwR2idPTp1D+mzr68qIMhuVtQihsxc3TkYZkV1zcApe8ho9lVNVQbechLmVKdNb99ThJH6NYDzCLHQuw0zBQW5jeRdL60ylndp5V06U7CCwXjy3DuI6qYwmkzMcjBqMPqfE+3ox6ZVAWQsdwXD00yOChCy+dTREJ3W6d6du5qQLpqtkrWMXQPSFmHFFDcI1YGGRlH01xA/GIyMSagD8DtUp0pz+vCJBo+LKQh/PvqXtv3WAl6A2cuyPtWdgS1rr9T2EWt4H5porkXaowX2L0Yh9tkWIo/y9YAR8RHXCewJLxSJfbYz3oXAKzdWwK4IUZhYKm7RmULweAFpzYpUGJbAfAXhjQpRsk1AMlphgJWHgv21mD6b9r4QKXwE725Z3Ipy53CnbfRAC+B34UNKD4VNYC/SO7y59gruR3U1B3zvN3hB54wn/i5DAG76buhLCL9jQb01TYZ3AM1wjfyIB63cjFF1N0KIDRY2bENqK6a44ujN5ZFc7ix4O20YNyGANHJkAscA4CwsmYVl9qjLa9yjQOL1g/LlyGIUoRHDxVY1+94JPlOnncAEVaWV2j5srlnPGKvXUmp+aYxRMDWF5F5rl7/HeIR3CxKcJtQD5KGjQQGyzqHqLtEqyOK8KStlatJEYnAOEIOo3vBmAKGEYkAhAEyKfwXYeLQoZhFek3d5IEx7LNyYeBRwsW6SqZKa5ssOF9DFPPQHDBJcNyea7YyS6fcHRhJYNjGB59Bzyv59mEgcSlA0JiDKI4xx6Bc3rV9h1GbdQofvwioOr2Vo+W1lCOFlX+9JBpHlMIHUThG1X2DZ+X7UvgaFFx91BrSaBaTV81aXa/tIUyiWuDOsbOb8I7FuHXkWQEhTHn6znCON9yXh4IDMKDcBeayZm2VUtwJzIs2oLTrleMO8yUTr1i9SJZjJAfvqUW+nK/jrgZW/QXHlHUCbyIAh8vSrnh/pQgjVbeToHU0XxBrL5ciLJwC+DDmojxwApiBHaIT3+YUy/8puFWXwZ3Mr1zUnV7/7JG3Z+yAp0hvQQptX27QrG448BJRMdQxrOLNAcfqJKVfiIXibkcMM6e9IXxG/c6qGQpb4TvFM7tmbgfQtcd67X2qNbvvOIquMcQHDOzcPvn2Jz1zJI3VzCHcm2v3C7IICnN8DCKYVhCtZ2zC+1Iu+7UZzSFY83IrkETWg76gT8lDnha6DRtw9OFxcFpY31v9+J/EPtIe1Bd3GYqvSASgXUQ2t1LA5TiKPBAkGiJw6bntToiMlgADGCeklZG34YkDkG+DCfIu1yizoBR9nr6wH1Zn85Rd4BFA8ROBi87n4ZkgZi0B2VNsY6zt1xA+PmIFbeWCy6Bvj5KHqZ5kQ/js+h1TGDMaA8E+ks9HWyAfd0dr4zJWapyQJaSvXk/T5zKHv4rHhV1TI6zcNcBjv3i9axhE+8xjsHz3COKn0RoQmfs2eMYouzXA6Fo7GEX0QQwJtXi4EUQZ/m7AsK0PCNFknSCFTG0NxBTxbfBcGrCp7fsIQ6UIcohh/CWP/KwFRdmLtxkJ0HEEdSWILtOt7w/axpIkTkgU25RwrP3NB9q5xUChKOdCLLQYIOqwAUC8XQJ+t7ykSxwlB4Y2aAchYa38qoS//80zoUOXNb76vt/EcVwEuJA9JYHzSgmwVvSIQR62BISRHh/fVq2VSy0+3k5syBcdisvjggimNTGzgzeuytYQ98iQHMpfhJQjAl1LiDvQcCNFHdtyELzFCaFvS5ALZsDYNQcCU1qnIemGwHeCchwvrQA/v5I0gPYw7m4BRDDywsQh0Qy6fxsnS1vI1nb1BQmoNYAlYp82zQpGhRJbF53DXKBdrwwznGJKewS8nAtEK/J1I2Uu3VGoc31+npe4P3d8I3xDXnwQO53TO1MWv/G5QFwuj0fpGaOFOcEvMVGKC4v2ShONaiDi1Fp6sDOG+F94GrvkvIKOOSLFO8Ey5yCHfbDng3JtxO8w+J4SFhaGF717rI/3kr3xdTJlFuNFvECxpEfGVinXEb5jgEorLLeD4MhxGs3VCaVFIDRswvqoLu4Ajp5afQVHa0nTiXKtD3CX83iinlgMUMJYY32R0zjjoxuClbGU8x2Od4gS4qzG6SYeG0iNsY/K+ShyhsPIIXGNuwnqi3b7ghlwITNxP3H9NJx9inY0Z+lIeeKs+LwtiZldE+vDIXGxo7qNgNLKI1R6ZsdBviKuZ1XywU2AIy9nacKAlsQ1EZez9Bw7UIlMKgJQzJKwOmGB9e2wXB9yVBynRsy7eEBMRCbWKE4tEfpCJlmZqSn1DvE+ERfe2bFMes6mdyoulCOOvKc0sZCM2lNOihJFlsN39HcxziFWiAaIvqP36pxOW9kWwV1K4ZysnaE09s3kVAw6R2QsH2Pg2zg1Tz0fwHlK+Az+9SBa9EUEp7wjrKu9jIc6WuLu+3CzyKkEUgYg6YlZjE4IqpOxwMollj+o4o5MVc5P4EG8p1NEhnd0yxieESUU8nGsjS11cMwg0m4FEBHRej2Hu7UNz9Nnde8DN8c6UPMuHQt/15h4zt0jBGWTo9OhSnC2jOesLxuf+V+o1kD4v9hOfMem7EIDDbNTvObU1wEFuHLgQjN/PY9MiUYHSXYXAjpfpu8ZI4bWwC7J4W04EJQM14oayB1VLMi1WcNHk0o6VUvmocAqUT6svj71cM1glfKw82wCfMpk1HjnWt2QzL48zxzVawMcOiNCOWatD0F2QJ9JKEZwS4HXbxj+MHRDzjoRn6gVpS5stdYGMHL2l0LWMbPNqkUK5xgLoGl1kGJAsRT4fweiLXbqlBCv4O5x5nlKPU37iZ2SRwoGaSygp/Z18LzkDiGqqW9v6t9bEAbE18OR55nFsePQJD93hkdq7LY3JF4V6uEOwX53CfB/GkZAsql8TvTKneoC0bSP0OneFaH2Uo9I4GHl62GSS75+sXztO4SC1zbOoeT8Xx2BL1rVjQBvNjrnUovWjkP66ymdJ/iN7egvTKnAlSEul9XFXboUVeiarHv0Ynm0dFMBRZJ1kBTZUSkU39h2GDAfTIYVPge8XwwmUhsDGMH5gYSLnwqI2H1dxDnsE1+MbcO7L8DAwW1PBQSpHs+N+GcE6wyUBY79hiAX9FTgyLN6LMVmdkiZNdQe4hyvsCJu+xzwAlZ4qdb/RDcHt52yBCq2AUQKOvW//Py/nVl9pAgoa2KnxI5AQWGx7u0BqA+V8FSA1/CTu5ExfHFb9rFEEFvDOI4Fgob5ifDPyKAw66w9wjhKfewuXxcGE1MAOZX3AkbLaN65U+pbtAx/U+RXIqGQxvIS3iDPD6B/ZmJwb4BiwrUOZhRtImIbcGBHoNHzZeIzcb3GAovOa0ypsxQucGz9i+SPf2WHgmmMOCUnjoiD2eJ97B8qs9sJ4+TbZsHNvdsWmQRfKQhGxxUu0FrPprGer36AxjwzuLXALvTkMu3Qp5zlSW2dK83HGR9FIQjwsNcyVWgOoZyv3phBHpOXo3UohBS6GyxSovCT43Al7mq5QZr6HTslF/kHGRWG2FyqOOdjNIEYG91KFJ3kBhiDOPIShBIXawYV1wj7YEeL9SA8B0eK/QNnri7IVZhatIgE4ORYwiITww3Cg+RUAwhTMcDeWoDSgXvPDUjtd/A42DyNUR7ZgMEjQShwFE7R6xuOBORn4ewRgMgCEXukUKyzfSmDgEFaK5E2E+rlbn3t+u/5dwdiZ5WMy7d2khhYyM2S6tYGgzN+CelpDEVo7eVS7HSHwkZt7WR4xJF1ecFcbjAI07EE5Dx3Y/sYZxP07H8KoMRg4CIF4wcHjVxryEWp9m1i9T7GLqA1fmuvD993BHVeNmQDhOHBWNeFUof2LRAXEB5QV63uqxIeW/Eb9wUMZbSfxc0599+2YzoFCY561Sbap5DRGLaNFfGMaX+r8+KxGv9bF94FBm2MCMYGgR0Yw4szIbgfrN1CxJDchtSHLbcVjeMOFiI1UmR09OhWcrwHLttTDRu2YewWwxGOG28rmxBLGWSioDI5RAzFDpcP0l8kAMip4tFHWchtOPz/3xMzpgzrdx/SwyZlbIowcI7D6Ywu7HlFWdFoErGbHTsRUE+IPBb3ZNrzhr2uR0RF4G5ABJLjYSAAYDrxusKJaOP1Fb7b/wUM9NScQl01XgAAAABJRU5ErkJggg==;" vertex="1" parent="1">
          <mxGeometry x="-386.0042486572266" y="107" width="100" height="100" as="geometry" />
        </mxCell>
        <mxCell id="r_Jpmp6yM1Su2GTmglGd-49" value="" style="shape=image;verticalLabelPosition=bottom;labelBackgroundColor=default;verticalAlign=top;aspect=fixed;imageAspect=0;image=data:image/png,iVBORw0KGgoAAAANSUhEUgAAAGQAAABkCAYAAABw4pVUAAAAAXNSR0IArs4c6QAAEnJJREFUeAHtnQPwPckRx7/JBRfbtm3bvNi2XeHlktzFtn2xbfNi27bN/fxquqqvf7Ozs7uzD/+kq17N7nuDHreftDwcRtIhJV1c0nMlvVHSUyXtL+nHkn4p6XmSLte930rS7SUdf3m0dGxJt01t0ja4/UHSX7v2nynpRZK+JOm9kq6yAnwWb+Kwkl4o6W+S/jPy82dJL5b0km6Q7i7pCA2wPZqkR0h6k6SXSfrTSJzow++6Mg+UdIgG+CxexeElPUTSVwc6elDaFTZJ76uYtM9IOtaMHhxH0pcH8GIRvMvl+Zekr7l3w9fSv0v6kKQbz8CreVF2AduZo+adPciD+NMkvU3SbyR9RdKRJF1G0ofT0XByV/4d6diwjlvK8fbJbmXfs5v4vSp6wiq+aypDWasHfHj+bbfzHpWeOZZOlnbl9yTdUdKpEq7gDO7PkWRlrS5Ln57G4KLr3D1HSWesIWXpz7pOsq3vI+nJaUBemQbwUJIuJmnv9M7dcur0zCA/SdJVJZ29O9+ph4HITTTHzuEKk3JoSS93k2C4fSodWz/sFsIp0l11QHefgRdweocbODLA9ttbE070hfvvQZJ+nmnjNamulSfsCuuoT/8o6ZYBG87vsXBGSTdNA8QK9m3wzKTkdgo746UuP5c0+T8t6aiSqPcMY5HpCBGIAH93XLcjQH7h2vH4nXVC/bOLsK0NiQfPrq1cwTEkfbM7Zu6SKCFrl50Y4R4OLy7hC6Sj5wQxY+N3jm7D6zyN666qjjPWEGAVnrKq1PRMJ0pFryzp36ltznSOGQNw+Ev6jTxXTD/YEWn5Wqccn9w9jAe7hiNz5XBzNyEg8uwVYvBE1zYkrAG8gy0S7q9Vwe1cu1BnazmyXu2Q4Pkphd4fvfDblJ9YkT9I7TMA7JLTSfpn+g5mE6KjJZzQXfixXngl+CZIZxYEBM3KAerEViMMVwnYwpfoBpFddeJSxhG/Qf9b+4/pSGk+9s490gIgAiAsrilpiDAhj7V/tRaNj60DZH+VkOC8foAjEfvqOmJ3/u/bkbVvkHT9mWctFBbkK4PAbrEd84+ZTCS4nzNJGRDx2N3V1ye+Z7EhdgGXjwdqrFSu+W82ISDybkkwSDUX2nGTPOsbHdd+B0lw+VOAnWmr0lL4lqlwycT3vFnSmSoruWxiGGEgwQHeaW3wRTcgj52ABfwA4gcYrPtXHAuxCQbQJsLSx8VMA+/wFleX9Im0y2BMxwDluSM/m3DxRMaYeprkvVkYECS1Y4EOwWSywn6dpL05hi9X70lC+0wKF2wtwC98rDtuIQyg3I5cW9Dlg5OHe6dt6rmw+20tjxxVtjq5S+49EQuOMVYXdbHaajoGw2htW4pIYwiO18muXpD4Gdo691CBnt85nl/hcICwWDvYIDIgkL9nm4kRHC87hclF/M7g9cH53WDYhHywL3MiOu6VLmDqZwBr7ry+KpEiI+y0u3TM7uyrc/b3Uaa13+wapZMmaoVB5n5BgZQDmFGbCJ9C9URAiMnxRD6Ox7F3RayPdyhN1AfW9gVzmVb9HXcA1JUhRQpZy+qZA2gan5DqZTUjKver+RrpzPbt2jOSYr9Tb+QUUlzeiNrnwpklfd31mztoo8A0g8iXmKArNMIOZpLLksGGxoccRfxtXLlNQkzRCEK5oYux39C1TCWxfXdYGA/vdEEozqgbSfLGAbvCOg4tPkfDFzsHEwnDZ/VPSRHXtxQynqPTFn4n4VQSG8W+rOwdjtY4ZwYMqSeXXIsVSSeuNWNCUBtzBLYAeI7HuwVCn4/ZouIl6sBaxF9y304WJf7sn9ruRWZMyI8qxDo1eLErvFIKIqGVbK6m/Ul5uEztSEGXzYXaYnViPmT1TklvPak3By9EP6AqUXxxr7U8lg/eUuM3o45s4OArnl/J7OVQQeJqdU1Nf5/Ut7n6S9+h94ecRd//U4fHM0qFNvE3qKy3uA6gUUOKOgYgqTFmm3uh2yTC01x+DAKJ1IakNaru88kqhYnaOkAm9S03KZCiH00mNXC4yKL64FySIFNtMFul8DSITUrSXBbTnRJ5jSTCOHHMlrYeTuO4bj+orPobuN5xHmN2g+ECzJvPu9QziwPjPiQB6ONRQrErMaaIuxIjC6+/d6hv5+MNg6EZxweWgd+XhOnQmEHnLOdM3yfZV2FqCnmNwR2idPTp1D+mzr68qIMhuVtQihsxc3TkYZkV1zcApe8ho9lVNVQbechLmVKdNb99ThJH6NYDzCLHQuw0zBQW5jeRdL60ylndp5V06U7CCwXjy3DuI6qYwmkzMcjBqMPqfE+3ox6ZVAWQsdwXD00yOChCy+dTREJ3W6d6du5qQLpqtkrWMXQPSFmHFFDcI1YGGRlH01xA/GIyMSagD8DtUp0pz+vCJBo+LKQh/PvqXtv3WAl6A2cuyPtWdgS1rr9T2EWt4H5porkXaowX2L0Yh9tkWIo/y9YAR8RHXCewJLxSJfbYz3oXAKzdWwK4IUZhYKm7RmULweAFpzYpUGJbAfAXhjQpRsk1AMlphgJWHgv21mD6b9r4QKXwE725Z3Ipy53CnbfRAC+B34UNKD4VNYC/SO7y59gruR3U1B3zvN3hB54wn/i5DAG76buhLCL9jQb01TYZ3AM1wjfyIB63cjFF1N0KIDRY2bENqK6a44ujN5ZFc7ix4O20YNyGANHJkAscA4CwsmYVl9qjLa9yjQOL1g/LlyGIUoRHDxVY1+94JPlOnncAEVaWV2j5srlnPGKvXUmp+aYxRMDWF5F5rl7/HeIR3CxKcJtQD5KGjQQGyzqHqLtEqyOK8KStlatJEYnAOEIOo3vBmAKGEYkAhAEyKfwXYeLQoZhFek3d5IEx7LNyYeBRwsW6SqZKa5ssOF9DFPPQHDBJcNyea7YyS6fcHRhJYNjGB59Bzyv59mEgcSlA0JiDKI4xx6Bc3rV9h1GbdQofvwioOr2Vo+W1lCOFlX+9JBpHlMIHUThG1X2DZ+X7UvgaFFx91BrSaBaTV81aXa/tIUyiWuDOsbOb8I7FuHXkWQEhTHn6znCON9yXh4IDMKDcBeayZm2VUtwJzIs2oLTrleMO8yUTr1i9SJZjJAfvqUW+nK/jrgZW/QXHlHUCbyIAh8vSrnh/pQgjVbeToHU0XxBrL5ciLJwC+DDmojxwApiBHaIT3+YUy/8puFWXwZ3Mr1zUnV7/7JG3Z+yAp0hvQQptX27QrG448BJRMdQxrOLNAcfqJKVfiIXibkcMM6e9IXxG/c6qGQpb4TvFM7tmbgfQtcd67X2qNbvvOIquMcQHDOzcPvn2Jz1zJI3VzCHcm2v3C7IICnN8DCKYVhCtZ2zC+1Iu+7UZzSFY83IrkETWg76gT8lDnha6DRtw9OFxcFpY31v9+J/EPtIe1Bd3GYqvSASgXUQ2t1LA5TiKPBAkGiJw6bntToiMlgADGCeklZG34YkDkG+DCfIu1yizoBR9nr6wH1Zn85Rd4BFA8ROBi87n4ZkgZi0B2VNsY6zt1xA+PmIFbeWCy6Bvj5KHqZ5kQ/js+h1TGDMaA8E+ks9HWyAfd0dr4zJWapyQJaSvXk/T5zKHv4rHhV1TI6zcNcBjv3i9axhE+8xjsHz3COKn0RoQmfs2eMYouzXA6Fo7GEX0QQwJtXi4EUQZ/m7AsK0PCNFknSCFTG0NxBTxbfBcGrCp7fsIQ6UIcohh/CWP/KwFRdmLtxkJ0HEEdSWILtOt7w/axpIkTkgU25RwrP3NB9q5xUChKOdCLLQYIOqwAUC8XQJ+t7ykSxwlB4Y2aAchYa38qoS//80zoUOXNb76vt/EcVwEuJA9JYHzSgmwVvSIQR62BISRHh/fVq2VSy0+3k5syBcdisvjggimNTGzgzeuytYQ98iQHMpfhJQjAl1LiDvQcCNFHdtyELzFCaFvS5ALZsDYNQcCU1qnIemGwHeCchwvrQA/v5I0gPYw7m4BRDDywsQh0Qy6fxsnS1vI1nb1BQmoNYAlYp82zQpGhRJbF53DXKBdrwwznGJKewS8nAtEK/J1I2Uu3VGoc31+npe4P3d8I3xDXnwQO53TO1MWv/G5QFwuj0fpGaOFOcEvMVGKC4v2ShONaiDi1Fp6sDOG+F94GrvkvIKOOSLFO8Ey5yCHfbDng3JtxO8w+J4SFhaGF717rI/3kr3xdTJlFuNFvECxpEfGVinXEb5jgEorLLeD4MhxGs3VCaVFIDRswvqoLu4Ajp5afQVHa0nTiXKtD3CX83iinlgMUMJYY32R0zjjoxuClbGU8x2Od4gS4qzG6SYeG0iNsY/K+ShyhsPIIXGNuwnqi3b7ghlwITNxP3H9NJx9inY0Z+lIeeKs+LwtiZldE+vDIXGxo7qNgNLKI1R6ZsdBviKuZ1XywU2AIy9nacKAlsQ1EZez9Bw7UIlMKgJQzJKwOmGB9e2wXB9yVBynRsy7eEBMRCbWKE4tEfpCJlmZqSn1DvE+ERfe2bFMes6mdyoulCOOvKc0sZCM2lNOihJFlsN39HcxziFWiAaIvqP36pxOW9kWwV1K4ZysnaE09s3kVAw6R2QsH2Pg2zg1Tz0fwHlK+Az+9SBa9EUEp7wjrKu9jIc6WuLu+3CzyKkEUgYg6YlZjE4IqpOxwMollj+o4o5MVc5P4EG8p1NEhnd0yxieESUU8nGsjS11cMwg0m4FEBHRej2Hu7UNz9Nnde8DN8c6UPMuHQt/15h4zt0jBGWTo9OhSnC2jOesLxuf+V+o1kD4v9hOfMem7EIDDbNTvObU1wEFuHLgQjN/PY9MiUYHSXYXAjpfpu8ZI4bWwC7J4W04EJQM14oayB1VLMi1WcNHk0o6VUvmocAqUT6svj71cM1glfKw82wCfMpk1HjnWt2QzL48zxzVawMcOiNCOWatD0F2QJ9JKEZwS4HXbxj+MHRDzjoRn6gVpS5stdYGMHL2l0LWMbPNqkUK5xgLoGl1kGJAsRT4fweiLXbqlBCv4O5x5nlKPU37iZ2SRwoGaSygp/Z18LzkDiGqqW9v6t9bEAbE18OR55nFsePQJD93hkdq7LY3JF4V6uEOwX53CfB/GkZAsql8TvTKneoC0bSP0OneFaH2Uo9I4GHl62GSS75+sXztO4SC1zbOoeT8Xx2BL1rVjQBvNjrnUovWjkP66ymdJ/iN7egvTKnAlSEul9XFXboUVeiarHv0Ynm0dFMBRZJ1kBTZUSkU39h2GDAfTIYVPge8XwwmUhsDGMH5gYSLnwqI2H1dxDnsE1+MbcO7L8DAwW1PBQSpHs+N+GcE6wyUBY79hiAX9FTgyLN6LMVmdkiZNdQe4hyvsCJu+xzwAlZ4qdb/RDcHt52yBCq2AUQKOvW//Py/nVl9pAgoa2KnxI5AQWGx7u0BqA+V8FSA1/CTu5ExfHFb9rFEEFvDOI4Fgob5ifDPyKAw66w9wjhKfewuXxcGE1MAOZX3AkbLaN65U+pbtAx/U+RXIqGQxvIS3iDPD6B/ZmJwb4BiwrUOZhRtImIbcGBHoNHzZeIzcb3GAovOa0ypsxQucGz9i+SPf2WHgmmMOCUnjoiD2eJ97B8qs9sJ4+TbZsHNvdsWmQRfKQhGxxUu0FrPprGer36AxjwzuLXALvTkMu3Qp5zlSW2dK83HGR9FIQjwsNcyVWgOoZyv3phBHpOXo3UohBS6GyxSovCT43Al7mq5QZr6HTslF/kHGRWG2FyqOOdjNIEYG91KFJ3kBhiDOPIShBIXawYV1wj7YEeL9SA8B0eK/QNnri7IVZhatIgE4ORYwiITww3Cg+RUAwhTMcDeWoDSgXvPDUjtd/A42DyNUR7ZgMEjQShwFE7R6xuOBORn4ewRgMgCEXukUKyzfSmDgEFaK5E2E+rlbn3t+u/5dwdiZ5WMy7d2khhYyM2S6tYGgzN+CelpDEVo7eVS7HSHwkZt7WR4xJF1ecFcbjAI07EE5Dx3Y/sYZxP07H8KoMRg4CIF4wcHjVxryEWp9m1i9T7GLqA1fmuvD993BHVeNmQDhOHBWNeFUof2LRAXEB5QV63uqxIeW/Eb9wUMZbSfxc0599+2YzoFCY561Sbap5DRGLaNFfGMaX+r8+KxGv9bF94FBm2MCMYGgR0Yw4szIbgfrN1CxJDchtSHLbcVjeMOFiI1UmR09OhWcrwHLttTDRu2YewWwxGOG28rmxBLGWSioDI5RAzFDpcP0l8kAMip4tFHWchtOPz/3xMzpgzrdx/SwyZlbIowcI7D6Ywu7HlFWdFoErGbHTsRUE+IPBb3ZNrzhr2uR0RF4G5ABJLjYSAAYDrxusKJaOP1Fb7b/wUM9NScQl01XgAAAABJRU5ErkJggg==;" vertex="1" parent="1">
          <mxGeometry x="-99.75424865722658" y="107" width="100" height="100" as="geometry" />
        </mxCell>
        <mxCell id="r_Jpmp6yM1Su2GTmglGd-57" style="rounded=0;orthogonalLoop=1;jettySize=auto;html=1;entryX=0.5;entryY=1;entryDx=0;entryDy=0;strokeWidth=3;" edge="1" parent="1" source="r_Jpmp6yM1Su2GTmglGd-39" target="r_Jpmp6yM1Su2GTmglGd-36">
          <mxGeometry relative="1" as="geometry" />
        </mxCell>
        <mxCell id="r_Jpmp6yM1Su2GTmglGd-58" style="edgeStyle=orthogonalEdgeStyle;rounded=0;orthogonalLoop=1;jettySize=auto;html=1;exitX=0;exitY=0.5;exitDx=0;exitDy=0;entryX=1;entryY=0.5;entryDx=0;entryDy=0;curved=1;strokeWidth=3;" edge="1" parent="1" source="r_Jpmp6yM1Su2GTmglGd-36" target="r_Jpmp6yM1Su2GTmglGd-40">
          <mxGeometry relative="1" as="geometry" />
        </mxCell>
        <mxCell id="r_Jpmp6yM1Su2GTmglGd-59" style="rounded=0;orthogonalLoop=1;jettySize=auto;html=1;entryX=0.5;entryY=1;entryDx=0;entryDy=0;strokeWidth=3;" edge="1" parent="1" source="r_Jpmp6yM1Su2GTmglGd-40" target="r_Jpmp6yM1Su2GTmglGd-53">
          <mxGeometry relative="1" as="geometry" />
        </mxCell>
        <mxCell id="r_Jpmp6yM1Su2GTmglGd-69" style="edgeStyle=orthogonalEdgeStyle;rounded=0;orthogonalLoop=1;jettySize=auto;html=1;exitX=1;exitY=0.5;exitDx=0;exitDy=0;entryX=0;entryY=0.5;entryDx=0;entryDy=0;curved=1;strokeWidth=3;" edge="1" parent="1" source="r_Jpmp6yM1Su2GTmglGd-61" target="r_Jpmp6yM1Su2GTmglGd-17">
          <mxGeometry relative="1" as="geometry" />
        </mxCell>
        <mxCell id="r_Jpmp6yM1Su2GTmglGd-70" value="&lt;b&gt;&lt;font style=&quot;font-size: 13px;&quot;&gt;HTTP&lt;/font&gt;&lt;/b&gt;" style="edgeLabel;html=1;align=center;verticalAlign=middle;resizable=0;points=[];" vertex="1" connectable="0" parent="r_Jpmp6yM1Su2GTmglGd-69">
          <mxGeometry x="-0.1748" relative="1" as="geometry">
            <mxPoint as="offset" />
          </mxGeometry>
        </mxCell>
        <mxCell id="r_Jpmp6yM1Su2GTmglGd-61" value="前端" style="swimlane;fillColor=#e3c800;fontColor=#000000;strokeColor=#B09500;" vertex="1" parent="1">
          <mxGeometry x="-706" y="228" width="170" height="200" as="geometry" />
        </mxCell>
        <mxCell id="r_Jpmp6yM1Su2GTmglGd-65" value="文本检索" style="rounded=1;arcSize=10;whiteSpace=wrap;html=1;align=center;fillColor=#647687;fontColor=#ffffff;strokeColor=#314354;" vertex="1" parent="r_Jpmp6yM1Su2GTmglGd-61">
          <mxGeometry x="37" y="48" width="100" height="40" as="geometry" />
        </mxCell>
        <mxCell id="r_Jpmp6yM1Su2GTmglGd-68" value="结果展示" style="rounded=1;arcSize=10;whiteSpace=wrap;html=1;align=center;fillColor=#647687;fontColor=#ffffff;strokeColor=#314354;" vertex="1" parent="r_Jpmp6yM1Su2GTmglGd-61">
          <mxGeometry x="37" y="114" width="100" height="40" as="geometry" />
        </mxCell>
      </root>
    </mxGraphModel>
  </diagram>
</mxfile>
